<mxfile host="app.diagrams.net" agent="Mozilla/5.0 (Macintosh; Intel Mac OS X 10_15_7) AppleWebKit/537.36 (KHTML, like Gecko) Chrome/135.0.0.0 Safari/537.36" version="27.0.2">
  <diagram name="第 1 页" id="kKO8mnhzYcHMao-upV74">
    <mxGraphModel dx="4074" dy="2074" grid="1" gridSize="10" guides="1" tooltips="1" connect="1" arrows="1" fold="1" page="1" pageScale="1" pageWidth="1170" pageHeight="1170" math="0" shadow="0">
      <root>
        <mxCell id="0" />
        <mxCell id="1" parent="0" />
        <mxCell id="jelOHzqF7eau557FTTO8-1" value="" style="shape=image;verticalLabelPosition=bottom;labelBackgroundColor=default;verticalAlign=top;aspect=fixed;imageAspect=0;image=data:image/jpeg,/9j/4AAQSkZJRgABAQAAAQABAAD/2wBDAAgFBgcGBQgHBgcJCAgJDBMMDAsLDBgREg4THBgdHRsYGxofIywlHyEqIRobJjQnKi4vMTIxHiU2OjYwOiwwMTD/2wBDAQgJCQwKDBcMDBcwIBsgMDAwMDAwMDAwMDAwMDAwMDAwMDAwMDAwMDAwMDAwMDAwMDAwMDAwMDAwMDAwMDAwMDD/wAARCASNBJIDASIAAhEBAxEB/8QAHwAAAQUBAQEBAQEAAAAAAAAAAAECAwQFBgcICQoL/8QAtRAAAgEDAwIEAwUFBAQAAAF9AQIDAAQRBRIhMUEGE1FhByJxFDKBkaEII0KxwRVS0fAkM2JyggkKFhcYGRolJicoKSo0NTY3ODk6Q0RFRkdISUpTVFVWV1hZWmNkZWZnaGlqc3R1dnd4eXqDhIWGh4iJipKTlJWWl5iZmqKjpKWmp6ipqrKztLW2t7i5usLDxMXGx8jJytLT1NXW19jZ2uHi4+Tl5ufo6erx8vP09fb3+Pn6/8QAHwEAAwEBAQEBAQEBAQAAAAAAAAECAwQFBgcICQoL/8QAtREAAgECBAQDBAcFBAQAAQJ3AAECAxEEBSExBhJBUQdhcRMiMoEIFEKRobHBCSMzUvAVYnLRChYkNOEl8RcYGRomJygpKjU2Nzg5OkNERUZHSElKU1RVVldYWVpjZGVmZ2hpanN0dXZ3eHl6goOEhYaHiImKkpOUlZaXmJmaoqOkpaanqKmqsrO0tba3uLm6wsPExcbHyMnK0tPU1dbX2Nna4uPk5ebn6Onq8vP09fb3+Pn6/9oADAMBAAIRAxEAPwDsYL6f7eYDCRHn7wqh4j8LzXEn2qxILHqvrWvNa3y3kXkyxiFuGyOakb7ZBqAQsDAFyGrzzqMnwlo91prvcXi7WI2hatC/uk1Ly0tzJEW5YDpVnUbm+kKLZx7yWBJ9qTZeoymKP5W+/wDWgZl+JfDLXoe8sBsf+JPWqfhDQr23vXuL2Py0xjnvXTSPdfbkgXlAMs4pmo3F4zpHaR+YB1oKuQjVVi1BrWSOTb2YdKx/EvhyefN3ZLvJ/hrckhuDJHILZi5IDD0qa5uJ4rlLdYjtcZJHagLnKeENPu49U82eB44wMlmHWukmvUhvDEwbYxyMVavLkrt8mNpVHHAxmqFxI8ciSi0eTd1A/hoiKRl+IvDr3G+9sly55KnuKpeEdInfURNdRmOOI5yRXWXF1cwTQxrA5EoHHoKXU7swx7oYixAwQB1pEkF9qKWV95YDBH9OlZXiXQm1LbeWeS+PmA6mtGZC0UM80Bct/D3FXhcvbqmIwiv0B60F3POdN0y7l1MRG3ZCh5LCu5edbVUjkGEUYya1L2aO3haRoxuK5JxzWQ8sV5aebNGyoDjmgm5l+KLNry2WWBt4HIxXHum2TDr89eiJNbRWwYMvlA+lQGys52M8caMTzyKbiPmDSV/4lMfnL26mk1vMmmMtv82R27VZtzDdI8KN90cjpikgjjhidI5N6DqGoRJ5v5aRZVx83fNdZ4HaURTK5byh0FXpNF0+8dpXUBh0C1ds4Le2TyISob0phcfKqfZJFteC2elecXsJW6l+0bt+eM16Ja28dvOzpNuZjyh7VXvtKstRkJbAcddtBVzB8GzT+c1t83l4yBXYJKyps/hqhpmmQac5EQ+Yj7xqb7JP9t3eb8uMbKBmhHzH9KbVPdNDL/s+lWklDjI/EUEt3HAVIDTaKogfRQKKACiiigAooooAQ0xhT6MUAQFaaVqwVphWqAhxSYqQimkUDGUtGKKACjFLilAoENxRin4ooATbRtpc0UgG4oxTqKQDaKXFGKAEop22l20wGU4CnhaULVCGgU4LTgtOAoAbRQaKAFooooAKKKKAFJppNBNNNZlDWbNNC0oHNKeKVx2G1HNN/Cq1WkvN919mi/E1ja7rv9lT+VEu6bqc1m3YqKNxVIcO65yelMvbmSKVRBCrA9axNF8Vtd34guosbuhrav2uEnjW3TKseTVIlk8sx2xgQqS3UelPuA625Kxhj2WodTv10q1E0ignHtXP2fjJpLxEmiIiJ61opWJOgWecWAeWMCQHhKfDdu9m0jw/N6U28uWktjNaAPkZFLZyPLp/mXACEckVVxWHxM7xCSRdo7CmQXTm6Mbx7U/vVi3Xify5THDHvVTWvpWpQ6lFvCYcDlaLhYkW4zemPyif9qmi5WW8MSxFtv8AEaigu5pdQaBoCiD+Kmalq1tpqsu0s/oOtFw5S9I3lyLt71DJIPtS5XctVdJ1y31GQq0ZjbsDirLSH7WI/K+X+9SuOw+5uds6xpGWz6VNNI0NuREmX9Kp31/b2AeSVvn7CqNh4njluQsse0N0Y1LkM1pJpFst8kRLf3RU9vdTmxMmxl44U1HdtO1m00K7+OKfFePHpqPONrAc0NdQJrWeQQCR1IY9qrpPcz32xUOzuayJ/FMaXGxYy6jritay1MXkBkgAU46d6EwsPiEq3pjMWVP8VJvka5ZGQhE71DY3M8lxIJVZR2NVdX1xbEbE/eSk9BVNhY0Ly4n8ry7UZzUcizR26MY/MfuKy9I8R/aJ/Kkj8tj0rT1CW6jdPKUkHqam4WLFzLMloreX87fw0sUjxW4Y/K59Kr6hqBtYllnPAHSsAeKZPObEW5T0NFwsblvJdS3MjTR7Y16E96tQyusLVBZXn9o2o8ogYqwsZigIkpisR200skm51O1elJf3N3L8tqhrF1XxKLY/Z7RA7DrU+g62183lORE5oCxoTLOoX5dzcdKnuEnEUYA5PWoLhLmJ1CsCGPWkv9QSyAMzcgcU7jLMkzxxYiGGxzVSAzLbO8qYznArJt/ESy3hV49qseDW5ds5tfNhIcAdKIsCCw82SItsPHSpbdJhKWnO1B/DTLC4nFq0kyhB1rDv/EhWYxwjzOcE05MDavHu7m5i8iL92p5apZlmWZTEgLd6raFqK3sQG4q+Pu1I8txHfIoU7SeTU8wFi5a9UoI1UFuvtRNJLbwbYyDIw5+tUda1Y6eSxJZ+wrK03xFLc3QjnTarHhjTuI14hdCIvLGNxqe0NzJC7FQCvSm3xu/sxa2bdnpRbXU0FhvuztYdaLgS2vnbTJcADHQVD9ouJrjCKwXvWHe+JZPNAhQsg71uaRdLfW/mQnD45FFwIpXnW8AjhJB6mrNxJOkixqvB6n0qpbz3R1MxyJhB3pNZ1ZbEMDlmPQUXAvXd1LFb4t03PjBxVRJ7gWxZo2DkdDWfpXiCOaYRMpjZzgZrS1OS6SINCu4imA6we4mt3bZjHY1LZu7K7SqFI6CmWl08dgHuPkOOcVi3niSNZgixkrnrQBqy3N1LdBPL/djvRJJOL1UjiJH96jS76LUIcwtgjqKcsk6XezYdv96mIW9muIZBD5WQ3enPK0VuMfM9UtU1lLIktmSToBVTS/ES3F15M8PlbuhNAGmk0zwMSmD70WM08sbEx7Ah6+tGpm4giLwR+YKktbphYBpU2N1I9KAGW0st1O26LbGnUnvTNQvpvMVIEYoKztR8SpC5SGPf67au6PqMd/BmIYYdV70AOvJ5U8vy4ywbgjFS3l1Nb2yHyTk8YAqtc3VxBerEISVbvVm/vo4AHmxwM4JoAISFiE0qEN6U2K7llkfERCj2rHTxKklyI3i2xk/erdEjPal7Zd3cEd6AK9ncyNdSQ+S2MfeNOjmne6aMIVVe9RaXeXEokaeEw49ar6j4iitQyRoZJCe1AGjdXLwQlYAzue9QzXEiWy5VtxHIqtousR3w2iMrN3FJqF5c210I/L3q7dfSjmAvi4eKz8wxsSR92mWU0kimWVGQHtU1xcCKFfOZQF/WsK/8SQRXAjjQsncimI2hdtLcBUBKAVAs6f2iEMZc9sdqmtrj7RZLLaKCCM8VU0u/ea+dDbMhTqxoAtXV4VnEexgx/hFSyTR2sQd1ycfdqnqGqWlq7PLzIOlQ2WrW2oyYHLehoEWvtIltTIRt9vSorB7VyZEAZx1NJqF5BaR5ki+TpwKsaaYPsrTJEEDDPIoAdviuGKFdw71KhtbYhYUVG9apT6raWoId1jJ60tv5Nyomhbep70AXvOP/AD0FFZZuEz0NFAGyDcXtrHNbOFbGSrelVdbvnsLBpGUlwMfjUssn2DT4QvzMi4JFR3lq2vWBVflbt71gbnM6f4pvIpFM6/Izc47CuqlknubFLrTpcnrsJ61xN5o2oW85txbsTn73auyhUaZosbSqVdR8wFAEmp6g1nbGebAk2du/FcxbeMLtWVmgGOmQ1dDdxxa5prKOGHTHXpXDXmnXlpN5bwNxwuBwaB2PQoJZryyW5tWIkIyAaW+umgtxNcqQyg8ioNPdrbRYCylHXkj8KdKyarp0sfKnB5PrQBhQeMoludkcAC5wXPWuke5kmsvtNliUkD5cV55f6be2AcmJmUfxBa7nRZPI0G3mI2MM53celSBYuNSaKxE90u1lHzDFYKeMbYOS8O7ng47Vs6gE1bTnWNwWI5x615/PaXFq7RSRfdPp1oEej2+ofb7TzrT58cgYqVLwvb+ZcxhSvqOlZfhCKS20Pew8uTrg1oXk6ajavH5gyRjjimOxjy+K7CO5ZXZnI4Py5FbNpew6namSAKU9hXml9A1ldvHMrDJ4J6Gup8BbzHKQzADpnpQTY1IEivEeNUZdp+6wxTJNS0/T3EEsuH6HHatIMk4mWMgOe4rznVYHg1KX7VnLHgk9abkKx3NlJZ3BaS1kUnuR3qNGhleSJCMg81y/hVni1HEZwjHkV16xwpcu6AMT1FCKIDJa2OBcSKu7pzUlvBZ3L/aLZ1ZvY1zPis+eQZVxtPFVPDMkttqSBGwkg5XNMmx1yC3+1OY2zN0Ip8NtBb7pZH256knFKLSNbz7SgO7HOK5rxdNM10I95WL0oKsdL/o1xOhimVmXsGpLiKMXaSyTHeOAN1cHYSSQX0TQuynIBz9a7ua0S68qRsb1IpACWv8AprTzS/Ljp2pb23aVF+yTqu0/wkHNZfjC9ngsdsHyhjgla5KzvLy1nWWO5Ztp5HY0XsCR6TDIY0CykbunNTdax2hk1rToplfy3IzxUt5enTrESOC2zANFxGoDzTqy9H16x1OMBXEcnoa1PpzVJiaCimk0tMQtFFFABS0lLTAKMUUUCGFaaVqUikxQIh20m2pttG2mBDijFTbaTZQIhoqXZSbKAI8GjBqbZRtoAh2mlxUuyl20ARbaULUm0UuKAGBacFp2KKADaKMUc0UxhSZpaKAG0UUUALRRSE1NygNRk80pbNJipuAZoxSuMCqd7erbpu+ZvpUtlIluZ4raBpJjwPSsa0vri+uWKqyQDoT1NTqft6AuhCg52mp7RotzxrGUx0IpDIoPIlu8pu3p97iuY8XW00+q+akbHgZxXX2jxPM4RdrJ1arXlxsPuK31FPluJSOC8NaZPJqqSmMhU65ruZ7pUlRHUBjwKfGiwt+7Qjd1Iptw8PnKzKWquWxLZi+L4pJrVFC7sHPFcnHYyzSIiRsGJ9K9IuXiLKv3ie1ROkMCmXy8Ee1HLckh02NbHTI0m6gc0+8+exYwchhT1mjubPfJgDNSoYBa5RvkWrsFzgBEVmdGRt2etb/haJ4pWYqceta6W9rMWkjjHualtjGhaONdvvRYLi71aY7M5Fcd4iRn1PeUNdfarH5zHOCajkhtppipQOwpblXOb8PWxa/WXBAXtXVtLG8+wkBqbZx29vNsUAM1EMNq98xORLSsBheKrR5XVwpKjrWRBbs7JhGznjiu5uZ4EPkSEMxPANTKltbRh3hRT9KOUCOD/RrCNZGwSOhqDVt0unssahjjtTtSnhk2mRhtPSrKSwR2ikbdpFN7AefRRsrEGNlY+1dN4W0+SBGncsAegNbMMFqVM00Y9RxSJP5wdIRhF9KhILjVnSTcUPzDqtcVq8Mjag7eW4z04rtbI26F3Xlx1NLC0N3c5VFO3rxVWC5yeh2M095EfKICnkkV1c97DHcCEnLYwBirD3MEbtEihG9qpWzwtdENHvkPQ0WC5neKoZZ7UELkDsBXO2lnNIQixnJ9q7qa6V5Ps+zmpJpra1gGI1DjvRYLlDTbE6XY75G+YipXlFzbMEbcSOlOluBLGryjKHtTsx28e+NNoNOwrnF3VhJazsWVm3ntWv4e0WV5lnbKqDmujRYJEV5lVs8jNQSXwaYwxYVVosA+WWLzTGW+bPAFc14qLtcIroxUd63Yfs7XJJwZBUrNDduItiOR1zRYZx8Fu0rBYkJP0rsLaM2Nkiueo5zUlwbOwjGEQP7VWvZ45rdDK4CmiKAjv2LWThAcsO1cbDGQ7AoxbJ4xXdiSCO3VsfK3AJpILW0GJWhTaOc02gMXwxp8qXP2mQbUArenmQuxyvtUS3sUrMkGNq+3FRQCGSZm67eoqUrAc34gZp7xC4JA71WgtjczxRwqxwe1dgq2t5JsSJWK96kma0sMLCiLIeKdhAZEsrdIpH2ntmqOtM32Rwq5DCprsQ3E0YuMcc1ZleARCNwD6fSiwHBqvBCqee1dV4dtntNOaR/lJ5q8LSyhjM0kS5PSiW4VrUrwE9KLANS5SVdyAbl61yutlri+LFWIFdPZJbxRM8YLDuaWNLWd9zouDRYDmNK0+S5vIykbBQeTXVXE6QFIXbGBxmhLu2gn8qBAPXFVp5LN7v8A0jr2zQBDq7H7Gyrk5HauWSCTOTGa7maWFFCKAc+tGy2jhLmNQfpTAzvDtmbO1eWUbS3arqXaTZ8o7yOtEtyj2xOdq9DTbBLaCNmTHPJNMRy+tbjesz5AqOwtmuL6MYbHqBXUslrfy/cDAdTUym1tZtlsAG9aAHzPHblYXk59+9Z2szOlo/l4AIxU7JDcTnziWYHjFTTyWqoIZVBPYGgDhokwDuB3Guj8Lac0DNdSEqp6CtOCztFjMjxKrDoKclwrxNtACL1xQAsk6TFtrgsOmK5vxG7zTKhDYHWugshZKWkj69+KjmNtdTECMM1AHHxwNM3kRoTuPHFdvYhdOsI1nO3jHNIY7SyKMsa+Z7VHqDR3SiK4favWgBLyVmgdo+jrkYrj3hxcMz4OTzXbGS3t4VT5Qu3Az3qumn2krGVo1C9T70AYfh20ZtRM3zLH610krI7FSynHp1oilgRWjgjAHsKqx28ct00+5ty9qEgMvxHKzFIxuCisSWAFMAbia7G5FrdYWSPc1CadZ26+YyDI6CmIZ4atzbaVmQlc84NTyFAWlTaQRzinXcivAqlvLDDHFNt7WO1ttrS7w3PNAHIXxE91K0nTPy0mlQudXhMQx6kdK6U6Ha3Mm5flBq7a2FnYcRjc/c0CJbmKOSPy5UVvrVTUZUis8LwFH3RUc9vcXV4skEpWNeoqW9svPtypfk96AOJuF88nfXT+EExpfmfeAJ4/GoP+EcZ/+W21e7Y7VrWlqmn2jQ23Of1NAFnfD/zzX8qKw2j1PccbMZ9TRQB0Cw3M8LNLHtHO1T3p1pLfxwuXg2FOVUKBmsXwvr9xqEv2a6yCOpz0rcjF9DdPuZXg/hOcmsEbNC2d7PJbefdQlGwQB1NQJ9p1KOVZbchOcE4Gaxde8SmyvPJgiLOvXdwDV7w74j/tSQxSkRSDoq0MpIu6eZYoJR9jMXlr24ziprG7+1W/nTQAHtuHNNimvkuJUuUAh/hZTnNZWr69HphVETzWPVQelAGmJpLppE8ghV9ehqW2uVVHRYtpXriqGh+I01SUxgeUQOAR1q8skgu3EkC4AJyO9AD4HgvI2cncqnoarvPBcO9nggDr6VS1DWbXSE2yD5nOdo5pNJ8RWF7KI0XbMx7jFIC/YyWdsWW2V8r1zV2Oa1ul3tBG2OMmopJNjkGNSp7iqd3qVtp0JV/lXOcAZNAE8t7FNN9mX5MD7gFFnHaRvtfdvzkZqtpmp6dPLvgCmXAzu61PdXtul7HHNCQzjCkA4oETzpY6lMElhTKdTgZxUbCzsCIbdFj3dvWopzbaYZblnIDDmoLO/wBKv5wC26THGeKBC2NjGmpPN9pYFjnaSeam1XTbHVAUm4kA4IPNO1GSzhuY/PUq54DAHFMa3t7edrzdgbe/ShiKFhpNvpczZI+b7parFzat9pSWOXZ7etOdtO1SdR5wLg8AGl1FFUp5snlpGQBzQgK+p6al/CVcBX6g1U0vQktLlZZXy1abQlpFcyHApLhVuQscdyitu9asojnW7F6Ps5AQdah1XShfp83DjvVi8gYBP3/l7Ty2etEsczXC+XJ8g6+9AGNZeHfKukaZ8hK17+OdIQ1sec8Cp72N5YCluyiT1pMXS2HlEr5oH3jRZEkM9mt9aCK6XaxHH1rmpPDlylyI1IKE5zXUy/afsiBSHmPf0qwiS+SC2DLjp70WRRVSKSx01Vg+aRB90UyWI6lp226iaNnGCpqxaNP+989dvpTopJfKbcq+Zk4Ht2pWA4ifw1dWkwa2J4PUV1ujvcwWgFwd7etW7VZCmZ1G81XC3ou/mAa2HYVNgLscqP1+9UoFUI/OWSTco2j7tLYzXJ3ecvy54+lO9hF7mk3U0ShjxUgXNO4hAR3pfrSbcdaPrTuFhcilzTaWncBaKKKQgooopgFFFFIgKKXFGKBiUUtFACUYpaKAEopaDVAFJRRQAUUUU7gFFN3UFqVygIxTSxo5NKAai4BRinAetVru/htdvmsF3HApcw0rk22s3U9bsdN+WWVWk/u1B4jurkWTfY2Ur/eVq89kjnuJyjlnkb+dS5F8p6Jdag8toZrb5wRkc0yx/fWKz3HykDLZo0W3+x6QouiBgZ/OpdQUXGlOtmQQw7UWEZ8/iiytpPKSIy47itjS7y1v7bzbcY9R3FedND5MpjcYYetdJ4JSZXmbkRUIcjdsruOe/khS3IVOrHvUeo65aaZII5cszdh2q6iIkheEgEn5h3rivF6b9XLKpxjnNU7kJHV6ZrFpqjlIWwV7Gkv72KC6SLYXZjXJeH4n/tKMwrtwecV3F1HDK4b5BIo4NVHUTGTzRWqCebaFAzz1qla67Y3twYs4J9elVPF5Y2KHdyOtc5BGNqyKcH0FGzJR3N9PBaQlmAZMdhSWrxXdmrxrtRu1R2qC401BOD0709x5GmyKMIFHy1TY7Eb6np9q4tywBHXFW45bdo/MiIINcC0bSTuzkksetdL4XJKvHKxKr0oTCxfguYZ7opH97vxTpbmzsZSZpVUmpYIVguGddu1u9cd4ijM2qMMlkpAdnAbe5USwMrehp9mI2vCvBk9a53wh50d15IyyCurCQidpB8rd8UxlOUQLdGaXaNnc01dRtLq48vzVf2rD8Xs/2hUR8KeuO9ZFtGYp0kRsMDipA7LUFt41DTKNnYVdRrZ7GMbF2deadsSayiW4RWBGc1Q16dLfTWWFQNo4ouBJ9utJJfKMqqq9qsvPHBF+6VQh6nFeexCSU+aGIbr1rstAuGutPK3A6DHIp3Av211DPAwiUH1OKp3OpWdkBGZFUnrgU8Rra2swXjgmuFnYz3UkjFm570Ad1b3FvcRF4AJD3NN0u7hmumUIQ0frVTwfDixkkYcdq1IUjQl41UHviquLlIL6/tbFpJZdokPSqdjrFleSeWCC7etc/wCIyZ9S25PFJo1m0uoJ5QYheuBU3HynX3coiaJXjBQnjA6VLd7Pl3MNpHpU0jBUVHCn61h+J5JVtgItwPqKq4rFy51O0h2q0igLU8U8csImhwVPfFcGRvUh2LH3rrvCyyrZHzR8o6A0DJ7C4hmnmCINw6nFLPdWdhGWYgMakZUi8x41ALDqK4vUGmuL1/MJKqelJsEddZXNtegyBhJjtTr64txsWVQPQYrnNBMsd6vk/cPUV1V5DFOV8xAxXpQmDG3AhCIJQFQdKrjUbOVvIVxxwBWV4rndUSJGwKwEhaMiRWO/rTbEdyVghgO1Nueppli0DLKY+p70miO82n/6SucjHNOmCQQSeSuNtFwI5L6y0+PAYK7daktHhuw02BJ3Bripg91clpDwa3fCLSLcmIHdGBzSuBpve2z3yxGPLg1ZvJrZJBJMAqqO9EsMK3DypGN471zniK6M03kg8Z5ouBu2l/bXrlY3BA7UXtzDbod8QCiuV00NFeI0JIOeRXXTRrPAEkTcx60CFt5IjZbgqhG5xVOe/s0dYt6qaZrE4t7DYnysvAFcjcKxzITkt39KYHexpbKhlEYcnvVL7VZPdhSm6Qdqg8KzzPZ4l+ZF71f8iBZ2nRBk96YD7qW2j/eS7Ux0zUMV5aXLlRKHP92sDxLI8s4QMSvtWdYI6X0flk5z2oA7G+mggiyyhV7ipY3t5LPMaAKw60rwJNbBLhASao6k4tbF44xgDpigCRryzslWNHUM3WpYxCVMqruJ7iuIZDcMXdjkV1XhJnFq3nZZR0oAuWckDXJO0hhTnW3LtNNjApwWJJZJQuK5jWb2WWdooztSgDoUvba7kMauMDjFE0sFrBggKh6iuQsUeK9j8pjuJ5rtZ4I5rYJcIC2KAIbb7M9uWiGA1RrNaWisC6iRu9RXzi1sSkIxxXKzK8+Xdz1oA7MGGQCQjeexFQtc2pulVxmQdqoeEjKwdJG3Rr0zWvLbW/2gTbMP60ASXccMjhpMDHOagiuYJWMELBqxdeu5WuDHGxCd8VkwSvaXCywsc55B70Ado5jt4zheO5os5InhdoxwetLG6XVivmrjeKqyhdOsnRBz1BoAsM9taoXmwuelNDRXC7w29B0xXH3Uk16zedIdoPAFaHhq5mjuGtcbkpiNm6a1wFkl2nsKsTRrLbqiHgjrUN/ptvKyyODvXnFVdavRbW6LFwSMYoA0tyW6eXE4y3bNRtEEfe0uWPVa4e4muGm80SsZF5xniux0xjqOmLJKNsmMUAJHAWudwlAB7A1alt8zKwb5R1wap6bpn2WZ5JZC3saz9Z1OZZWitvlx3oEbc4eRDFE20etRvFIIfLL/AD9jXP6PrFwLsQXbb1foa3NTtbmSJXtZNtBRD9muf+fmimC1mA5lbNFAEHhHTL23vjLcwGJAOd64zW/NqqW18tsFPzn8Kl1G6kVFFupc+mKgmEkbJN9l81zj0+WsEaNmT4r0Ce4Y3tqhYdwBzWd4Qsbj+1hLPbMiJ1LDFdbPf3EU8cZhb96OfQU+9uRbW+VjDMeyr1oZSY261GKGYQu/3jx7VzPirSZzKt9ax71I5wa27ny4WWeeAvux+FWpb8QLHE0eBKNqgjNAHG+HLe5fVIXMbKo4JJrtWvora4WCVzk+gpb67is7X/UgNjHyriqV55bCC7lQgHuRmgDG8YaVJMyXUcQdAMkjiszwxbPLrETpG5VfvD0ru/tscapEUDK4xgrTppLazTdHEqZHzEAZpALcXEMUvlORtYcE9q5Pxdp07y/abcmSIDkCty4a3nVLiXOwdDirb3ltBagyA+W3TIyDQB55pJYajGY+GBx8vevRpJoiIRdhd3YntTBaafaKLkQKpPOQKp3xg1KHzFZlUH7w7UAZvjO0nmhU24LJnnHpXJWsggnjKl1kDYPPSvTrKW3gtgrMJUx1ao59M0qb980KhhyccUCHSrFLb24u1DAjIJrI8YxynTgIAwQ9l9KvamqXlqESQIi4GRn5asW8cUdmEncSKOCxNDA81gJjlVoWYOrV6CkKX2lQi7TJODuNMbwvpjS/aVbYM5xnrVu62vZmK3OABhfahAZ+vbrfTHNvkEDrXCpJIcSxyvvXk816GlnJNY+XctuAHNc5ceGJPN3wtiInpTuBq2UbanpcZmb5wOKk1SaSysRJGMui4p8dq1np+2E5cDiktVkvLRo7yPr3ouBxaajetIZUnbJOdtddpd1Jq2l7WYqw4J75rFvtAljkf7Pyh6EVt6DYvY6cdx+c80WZJYsUextGWVy5XJya5XUNcvpbt3jk2KDjArqLad7lXiljIxkFvWue1PQ5YZi9v8yPzRZlGj4b1i4vN1vcnLgcGtPT4ZYnkEzF8nisvw3pjwEzTEI3pWl9tkW9MLocHowpjOd8Q69dfbXtrUmLy+C3rVjw34hmeUWl4eW6P60zX9Fl+1G6txv3dRVfQ9Fle/Sef5BHyKzV7gdMiTpfMzOxiYDANYHijxBcW9x9ns127ep966WWXbMsPlsVI+9XPeIdFaaYzQD588iqYiDw54jmkuRbX/LSfdb0reQ3seohmJNuRXLaRotxJqMTyIUCtnNdlcT+W8cLqSGGM0Bcgn16ztrxoJ22kd60bW4guU3QSLID6GuQ8UaG8kpu7cbvUVlaNFqKXy+SWQBvmU9KAPSCBSCoLebeoVz8wFSg1SESUUCimSFFFFMAooooEFFFFIQUUUYoAKKXFGKAAUhp2KQ0wEApGOKd2qGRuaAFzRnNMBpwNSVyi4zS7ay9W8RWGlf8fUgVz0X1rIsfHNte3wt0jKhuAxNRKaHY6tyq9eKpXGoxxvtUMze1QXc5bbgFvoabcyWumwfabwoq4/GlcLFj7RI+1nJVarajbWsxVrkbx2zVSw8UaZqE6QHKNnAJNaOqyQWm1vLMgbFUlcu4wwwQwKrNiNuAuaYul2MDfaSi8c5q1MbdIkknwqAZ+lU49c0u4kEJuBjOAKqyC5bnEFzYtv5jPWlhitrWyUxkLEe3anzm3gtGYlREevpUcQiurJfLIMRqiCr/AGbY3r+YqB/cVcsFtbVjbxYU+lRfbrGzcReYsZHUVYt0hmJniKt7ikxEdukX2yQ+YNx7VFcWFldzMZCGelgkt2vZEj2lx1qRzBasXndUz3NUtgsJYafb2zZiUAmkurVJLlT5u1h0FWLeWK4G63kDAfxCobryvOUySbW7U0DG6pZR3UAimYVn2uhwwNvzuA7GtKW3W4mV3c7VqQpHMCgdc+xpaIlDJ4VmtNiOEHYikNszWRgdt/H3qJLfbblHYqo6HNNWAmDbFIW980NjMpvD4EnyyEjritOytY7aPy0xuPU1Mke1Nufnx60kUJi3HcWz15oTAbZ20iM7O25T0FU7/QPttwrI+0d8Vo2luZGdxIRjtU0KeRGw3Eu1JgJpllBp0RVeZMdagtrW4a6kl35Qnoalit5GlMrvwO1LarI0kmG47CmhlbVtHjvEHzgOKq2vhvynWWd1KjnFXEjuWuy7yARr29anuRLcgJGdo9aegEOoNKURbc9OAKkuNOa6sws+FYjpTZYZgiIGAYdTU8sUrrGEly3epYGLbeF3V90siiMelbbQRw2Xl24UbR1p0/nSwCGI4A6tTRaGOzKvMC570XAjggM1qROygtwayv8AhGFklchwI+tbQhC2gTzf3hoO5IxEGBbuaLgQxwpaWYghOQBzgVFp9k0LGR5iyydvSpfIaNGBfJb3p1jbbIXLScdsmmSVLnQbW9udysQe5q3aWdrpYMcPzOerU5NlvGQhyW77qhSPdukJBP8AvUrFA1ubmffJKVC9KfOkEi+XM24GmwRK7NufHsDVdLUG6aV3IRO2aYDIvD9pExmkJ25yAauM6taukPy44GKYzpd/Ijkp9aHjighMYbB9SaYC2tuIrciSQMWqi+gQ3c++NiuOuKvy26m1jWNjk9805CLZRHE5LnrzSYIj06wtbAssYLSetQslzJe5jbCDqKtRxohMu4lqbDAHnZw+3PbNCBlbU9JS7ADt81Vrfw4sbiWdsxrWitvJ9oMrSZjHakulkugYkkKIabYh07D7PttxhRwMUyC3aW3KXPy570GDyolQS9Ohp8kDyQhFl+am2Bjy+Ho3nYwvgZrSsrOKxiZYsF+5qRlMcQjRgX7mmrbmOF90uGb1qbgVbeO6FzI8jboz0FRXuiJeSZQ7WPNaFlbOYnZpc+lOt43tUd3fLnoKLgVdN0eCw5mG5z0NOvDcNMjQD5R1FSiKWSYTyS4UdFpUgk+2b/OAX0oERX9kLq3BcYZhWMnh+RnAdgYwea3biCWS4ysw8sdaWdJJE8uEhQf4qACCKKzsjFCMDFU9OjuCzrOcoTxVlbZ4rVkeTc3rTkgk+zYMnPYimBl6lojyz7o3zk9Kfp+irZz+ZK2X7CtKJHt+ZX3uelRGOea480tgL2oAjvHunmQQ4Cg8in3lgbmIguFYinwQSSXRZpAFFJc20j3WUkyopgYaeHZDNy/yDritsJHZ2QghGCe9OZ2C+VGee5qCS2kAG+TjtQA62hmkVhK3y1l3uiedIWSQda2PKdbf5JPnanQwG3izIQ7GgChpmjpYsJJiHfqKmvTdXFyv2Z1AHXNTiF3fzXk4HamRQs13v8wBT2oAW4sPtEJEjANWQPDsmTmQbDWvJA7znY/yinSjC+WhJfFADbS1t7K18uLl/WoLNbozSfaMFG+7ThbusR3P8xqSJHW2JZue1AGZqWjvNLviao7Xw/slWS6bvwK14o3ij82Z+T0FMlSa4kVt+EWgB9+zQiNLVc1Fcwvc222XhjT3WV7pArfKKW5juJJtiHCDqaAMFdDuXkKxn5c9a29L0uHTomeQ5mqcyGBAkfLd6iiSYM7zNkN0FAEM93M11tEe5PWqOradPcKJEH4Vq2kUqmQtjaORTIvtDzEu2I+1MRzkeh3U52spRe7V0BX+zNNWOEFynP1qWaV3+SIEepplwZkChI9zDr70ARwTy3VvvCMrt1BrBvbO4a4c7GYnpiunYTC3DhMMf4RT40MUYkmUA+lAHO6ToMsl2tzcfu0j5Cmty41BIbhYjn5uBgcUjXFxLOdsZEdMhLSXBVoOB3NAib92eaKftb/nkKKBnMjxbcxXLEQAxg8YbtXXWNydS0/zrY4kPRTxzXG6z4av7W7wkDSxseCoxXV6LDLp2iqsse2TPHc1gjVxJ5rk29oZbtNrqOc1za+MdtwR5GVB4PtW67x6xatERye9cdqeiX9lMwW3eSIngqO1RIDthfPdaf8AaLNFkGMlT1p0l4v2Jbq6j2MoyQe1UvDkD2WiB5VKSDJ21Ymmh1iweGPbvx096ooxl8XWhk2yRl0yfm210SXq3lks1rtcDHy46157e2E9nOYpYXAJ4O3iuu8KrLZaS00qleeAfSgDSlmVoY5ZQBjse1Ys3iXTftBWYFgDj2rUvpINWsXWCT5sYwPWvP7yyazuGiuFOOoJ70AejJcrc2Pn2sSSRgZx3oWSG/tIzJAE8o5weKxvBBlFnK+SiKeB2Na93JHd2cqQEeaepFAFC913T1kaGZiQDg46VeSWxewL20Qkixkgc15/e2r21y0d5GQWOa6bwMzETIjExjsw4oFc2Ee0v7NVjiwgPI6Ypt1qmm25W2nkC7Rjrmp3jhEMv2YhWIOVX1rzm/hdr2T7ST5hbgH0oC56NB9ie0KwqXhIzxTYI7G5tWWEFBnBA61k+BhJ9ilJPypwAa20hTY7QIAQMnHc0BcgkuLW2AhMwUYxhutTWdvZJAxVywbncO1ee6mJpdSmNwTuJ+UE1veBp5i0tu+WUdN1AWOj8mB7eRbefLk4z6URjyLbyHkV3Pc0+O3gg8xoB8zDke9cBrF5eHVJEeR4wpwBmgk7K2hnjMgmIkRumD0pLcXEYkDbSD90Z6VheGNTuRd/ZZWMgboTXQR2bw3kk+92Uj7melADrNJ2jP2hQPSq8X2wXzCRQYKxPEGtXcd4Ibc7AtR6V4guRdJFckOHqhnSJJKJmBQeXjrTbSWW6ldZUwing0wxzfbFlViIm7VT8Qa0dO/cWkWZG70xFy6luYrpI4YCYz95qlkdluY4/K3IevtXN2Pim6W7jiu0yjcZroZ5JzNG0PzI/J9hSGSLJ5lw0GzC9iag1GaW3AFtGZGX2qPWtSXS4N+3c7dKx7Xxa/2lBcxhY+5oEdE1y48vMZLMOfaiS4cXSwpDvVxy9E8zSxRT2e1kfqKi1fUo9Ks/OcDeegpNjH6hJLaQ+ZBFvccYqRHaVIjInzEZIz0rmYPF8jSqLiHETHrXTGTzIY5rbDK1JMCOe7WO6S3EbOG6nHSmXzpZr5ojzj0HWnX9/Bp8LTXGMgcD1rCt/GNtPKEmgxGT940+YDWmvFiMU2MK/HC+tawrL1KWNLeOeGPzI8j7tXrabz4Fl+7uGRTQFpaDQtBpkhRRRTAKKKKBC0UUUAFFFFABRRRSEFFFBoATtVV2+c1cx8tZ7n961BRJu9aqXd2scioTz2qYmsm+MTahCJuoPy1LNEcl4+s5WvY7kRsUAwDWFpdpLNcRxIjBs5JFesXUVnLtjuAHLdFqG30uxsC1wIRHjue1ZOAXL9jbgQRK/JVRmuc+IMM09jH5W4hWGV9s11ELI2HjfIIpbq2SePbKqnJxV2Fc8m02J3u4SiHerdK9Ufy1ih88gNtHX6VRXRrOwkE2wZznNWdQgjuhG3mYX1q4kszvGG46TmPjnt6VwiwAMrpwR0PvXqMtnHJaLFK6mPHUmss+HLPAkTBUHJoaAk0XN1pG26ywbjmpr9VstKZIvkAHy4qx5UX2YJbsFA44pWsxJZ7J2DgdTTaEefBGnlLyuS1dN4TdkZossU9Km/4R63JLoxAJ7VpafaR2uViK5x+NSMWO2ihvHlQBWfrXJeKp5JtQaJnOAOK66CBzIzu+Qe1Z2p6DHdTiQMVI61XQDD8NTSWd0iRElJDyK6e+sEuryKVyfkOcVX07Ro7edX359K0JVl+0jYcgUIRl+J76S2hEdt8gfgmucsbi4gkEiSFiG6V1Ot6Yb8dcEVQttA2kM7YApMDWeKW+0xGJ2s3UUTk2emM0bHegqVwYrdBCM7ajv7aS4tCACC3WqYWORF9dyuXExXnOK6vRbj+0LTZISGXjNYsPh+5aT5h8tdLptoljaMsa7m71KCwlrAbVJcPk9a5XUNYvJLwhTtWM8V10Ae6icFCueK5u48PXJvSI/myc0wNfQrt7uMF+uOTWrDAIRI27O6qOk6b9gt3aQ/MR0qa2cuGGDigDA1vWZoJmt4AR71FpetXCzqtwTtbiptY0iaa786EFge1P0vQJ3lR7kbUU5waLAbNxbyShJLeQ4PUVT12+bTYhtzvYYrRkk8qRURSV6DFZXiHTLi6VXTJx2qrAZVlrd6rr5rZibtXSODPZrJA3LVh2Gh3EjqJ0KJW/JEtjboiAsKQXIru5ax03zJRuZRXLLrN5NMZFbapNdLqlpPd2JCZ5FYFnod28qoyEJnk0Bc6XTnS/04liVYjrRFGbO1fLmTHIzTljGmWPloMnvTIQb21KjKk0wOSvdSnuZ3xIyBT0FbXhWSS4jkSQll71Ufw/di5YQqGUnk1uabZJplm6Kcyt1qQJba1S1klkjfG7tXMa/f3AnMML7QeprprWCfDmfgGsnUtAea582N857UMDE067uLaeM7yxJ5rsZoFvLNSco5HWsyx8PeVIstyw47VpXLS+aqQYwO1CAqarfDS7JWPzlBgVy41G5ml+0M5AbkCus1zSXvrYDcFOORWPF4duCqrkBRTA2dHnN5YlpRg460+xtTbtI7OWU9KkiiFhp4jTBI60kbS3ER42gDpQBzWra1ctO8FqSo7mk0rUrmO4RZ2LqanudFuPtTMi7t1SRaTPaSRtKucmgDZvLZpxGyOQvUiqWtXT2EA8ol2xV6SSVWSNEyCOtZ2vaZcTIChz7UAYkWoXv2qOUycE/drrmi+2WIYttdhWBp+iXLzxvKu1VPetvU7jyPLWJM44wKAGEf2fp5+fO3k1yl1q95czloX2Rg9K6q+jkurA7FwxH3a5YabdK23ys80AdB4fvmvICky5K8ZqdLacX5cy5iHak0GxbT7J2m+83NPiulnZ1jHzUCMnWNblimNvbfK/eotJ1m4W5Ed0273qvqFhcJds5jLZ71Y0nSJ7mcSSoUjXrTEbWoRSTQlrd9uaa87Wmngu24r1NTSyxwSLFnK1R1mCWe3IhHy+lNgYk+q3ctxuB+QHiuk0u4W+tPvkOOtczFY3DPtEZBrqNNtF0/TyX+8etCAitIJ4bqR5HJQ9Kz9U11oi0MPBzitdXNxE2w49K5a90+6FwzmItk9qBlnRdTme68u4bIbpW9e20swDRuQBWNomlTNcrNMm1Vrdlmw+xeR0xQBVvbkWNmC/zNjrXMz6teySb1kwo7etbmuWtxLH+7UsvpWINKunkRfKIBoA6fSp/ttkGclTjrUVlazRXEjyyFx2Bqe1QadpwUj5wOlLHIbuJmRSpxzQBkalrZhd4IPv+tULDWLmK6UzHeHODRdafdLcFvJJLGrel6LNJdI9ymxQc4pga+qWr3UAe3kMYIzUbyfYdMBkO9wMVZvLkW8yw4yDxxVDWLeWW3wnKntQIw73WLqVlaPKqvaug0W8/tGzJJ2yAYrAFhcyEKsRI9a6HTbNdNsGYr8xGTQAllDcJfMZZCUHSoNQ1cWpkVeZKt29z9rhLxggrXPXlvN9pdmQnPSgBLTXbiO5DXI3xsevpXR3Qaez860fLEZArmbXS5ryQK0ZRQea6V3i06GOLqMYzQBDp7TQWLyXbfOazNS1x1UJaruA61oaoXa1YRDcpGa5qOBtx2xtuPagDo9BvhqEQ4CyL1qWf7cb8JGB5frUPh7THs1a4uTtD9qu/a0lkKw9VpgJfXotY1MjdBWIviNHuvLlXEZPWo9bmaa52sDgVnJaS3pEUUYB9aBHZM5EIeHBTGeKr6fczSvI0qiNF6GpNPheysUiuJc4XBzUd45t7R3j5VhxgUEk321P7y/nRXHl3/2qKAPQopbgSSCf7oPy4pki3MjN8oMTd6xvEutS6fDtjQ+a54NZnh7xLcm5FtfklHPFc6OtnVWaXMMjARhVxw3FSWN7PcPJ9pjCqhwGOOahmivI7/zIJN9vIPmVucVn+INXbTbdUt0DSE8A96YjVlaWV2jEP7ojrTLCOWB2AtlXH8XrWFoXieW6uRBdqIi/GQa6AC8huuqtAw4yeaQiS0uPtrM11AoCNgZFQyXAe5aPy8x9AAOBVHXdcGmw/IAzn+Gq2i+JRdzLBNGIGb+L1oA07DyLUSLHEw2nJYmp45rDVXZXgVwnVttIJLhL4xOgaJxkOBnNUL3UrfSLeRypJY9BQBdluLOFxaQqUB7AVWsYba3umbe5c/w84qtpPiKwvpRiII7cc1ozXiQXaRvb/f6OAaAJLmLTtUJjlj+ZRyR1ptutjpxFvbLsLc+5qG5ubXS1eZsAt+dRaVq9jfzjy49846FuKBWJ4rZRfGZpD83RTTr/AEjTtV4dfnX7xXipHvIY71Y54yHfpxkUsklvZ75GYLuPOTQFhllZ2umQGC2blh371BZwyrcMxmCrnlaW3utOubgHzR5nZTVh47Jb0GTKu3QZ4NAWINU8PWWr4dW8uZe470ul6XDpCbVIeU96ssI7XfLvxu6egqukVtdTrIbnew7KaAuRxxXX9ptIHzEeq0zWPDsOqAvuWObrmrkiwrMn77ZuPHvSeTL9tMrTYiA6etAFHQvDv9mT+fcPvYdMVYnuZ1v2RV3IR1qa5Z7s7ba52sOxPanS2jgJtugrjryOaAMDX9GM0nnw8k9aztL0aY3kcki8Ic1115DMZY44WBUjLVHPC6xkQsNxpoCC9nkt9gVNyk1m65phvlW4jwsgHIrWYzfZ1RlUuOuaSaWRFXbGGc9RTEcXDp1xJdopjPynk12jyi2t0UjJwBQUYR+YqASAZApiTPLbF5Yh5melAFHX7Nr+zBTlhyK5f+zriVhEYTk8ZxXbzzNFAGCYcfw09OYPN8sCTrjFAFezzp2mxCVcgcVW12zGpWgZOcc4NWkuXmtneWA5B+7ipZrkQ2aSiLBb+HFJoDhX0yZpRAFOSa7fTEax09Fn5C1I8atGJygVgM9KbZXQvIHLKQFOMY60JAU/EliNTsN0Q98VwdxYyowj2Nv6dK9NeRIoQ20hemKha2gYicxjI56UWAq6aBbaJCLroByDWlp5SS3UwplO2KrebDqFk+5CI065FWNH8v7MBF90dOatAXKKDRQIKcKbThQAlFFFSIKKKKYBRRRTELRRRQAlFOopCD+Gs2X/AFjVpfw1nS/61qChtY2r3MUN3ArxbmZsfStls4rNuhGbmMzAKc9TUsouTNBbx/aLhggUdTVSz13TNVc2qy55+6e9Y/xEFx9iiWEts437frXGWPmRSI9vkOp+XFK4j1+cxWiLn5V6AVLvTZ5kjBUAzk1T05WvLGH7YPn7/lWV42N1HYotuSFHXHpTGaP9qadeMIPPBIOMVPqHkW1uGmJ8kdMV5vaIVIZSRKDXpFvGLzSYluQCT600IVlhuraMI37s9D7UwXlkn+jLMMjgVDqitbaQyW/ykDj2rhrfe0hYu2/PWhsR6KYUgtyARg/MGpsbiezVbd9wJ+Y1V0J2v9NMVwxyoxmpo4Rp1lIEycdKbYFiJYrSMJLJ83uaIrRftH2lZAc1wt/dz3tw7SOwCnA5rofC95I4a2kJbA4qeYZpwxhbmRvO3N2XNOhicyNJM+F96jhsDFePcM/DdBXPeKdTn+1C1RmVe+KvmA6WaJpJEe3lBVeuKSYSG5Qq4Ve49a5zw5d3EF0kTOWRz3rob6xMt5HMjnCnJANO4DpknlnGGxGvWn3SSSQBYHAPrWT4o1CS0iUWxwX4NZGn6ldxSoXk3LnkUhHUSR3EdqqhxuB5q0wuGtERXG41Hg3doHTKk0l5O9pp/mZyyihhZlpRIkIRGBkI5pltbzRb2mkBz0FcdDrl+1yzh/lB6V11hc/2hYBwSH71KCzJIftPkSkYU9qdA7xxB3GZDxmoEL2trKzNvxziuXufEVzLcfueEU8incDrAs5jkaQjnpTkLx25JjGMdah0yb+07EMzbWAq2VKQbGPSi4FOxlkuJzlSqKOtSXTXUkqpApKdzXP6l4jaGUwWijKHk1p6DrBvVKSNsY8UXA0FgkM6DsOtOJmNwUI+Qd6ixcRXX3vkPeqGs62lkHjU7paq4GlqEk8ipHbjkelMuI5ooELJubuM1j6LrrTTBJkCk96175plVChyjd6QWJZjMscWxeG6inTzmOHZGvz1Wv79bGzDyEE44rAtvEEjXAMkY2MetAWN9opmhBccn1qVzNDajYg3dOKjkaae0ElswO7pSy3JtrNZLg8pTAlileGHL8OarJ9oYSPIoyehrBm1+ea53hQIwa37KVb+yYpJtYjipAWD7Q1q5mbkdKjslmbc87cDpUkO+Cydbg7mFczd6vcNKyQEqq9qGB0sn2iSRWAxGKiaO4e9Ur931qj4f1Ge6fyZvmAq95NympK3mHy/ShAPu/tTXkccXzRD7xqxMziPy4OTWRrWsCzYxJzM3pVLTNbuhdKkoyr8UwNq+WaK3GwbnPUU5WuVsd+3MmPuilv1nMIMJ5NRXV8bCyDzcnFAFmyaWKHzJx+8boKhC3stwXcDyxWAfE1w84KRDy/et3Tr1r+1ZlO1/SgCSNp2ugAo206OS4kumWRQEXvUFgtys8nnHCgVm6nrvlB4bcZYHk0AbVzcSORHD0HpUEjv567lziqGgaqbt/LlGySrWoLdrdJ5S5TPNAE8t1KuBFGST1qTJiiJC7pD2qpqGqLYRjgFsdKzbDX5JbkC5Tap6GgDZWSV4HLpg+lEeI7YzGPDdKL2SSO382Ab1PNEcxlsVeYbV64oJEtJWuD5kybUHQGh5rg3IWJNsR7isu68RxxyiGOPdGOprWs7tLi23w9+1UBG7ZugrRbsd6fNcHzBHEmB3qtBeXEmoGJ4tiDvS3upxWoZnA3dh60MC3KxijyiAsaiuJZTBl0/Cs/S9XFxKwmXax+6Kt6lcTweW8ab1Y80ICd5ja2obydp9KLUtKpnkUKp6A0l1cLHbq8xGMd6yP8AhIojciLYdnY9qBmnHdTSTsgTCDvSxSn7TtWM89zUhkMkQeFgQVzgCoNPupJHcPHjb60AK928s/khCAOpqSeYxxjywWb6VU1DWIbNSSoZz6Umlawl25TaEYjoaAJruV0iRjHuY9qluL37PaK3lYJH3QKrX880UiKIywJ61PczxxRq84xgUAPtpnkTzJF2egNM+1zS3e1U/dgcmsd/EYMu3YNucZrcWVZbYPAATjkCgCuk7yXpQQBh/eNPe4ka4MSxfKOpqLTbiaSeUzR+Wq8D3qO/1eOz3YG5jTA0J5/Ji2RKpb6VVu7hltVYoWyeRVfS9RW+ztAVh1zRql3LBNHGse5HOM0CLf2gR2ysqBAR0ApbdhOPMZMY9RSSuIkQzbduM1mXPiGKOby41zGe9AGjLeFpljjjx7gUxyr3AjlXIqRJPMgWaABs9cVFaSO90zFfu+tAE8zoJFi2fTFOZra1Te8YDfSql9qMMDF3xu/lUFnqttcyCNhlj/eoAuy3am285u9R2vkJCZkXr1NGoSeTDgRBlPZamjeL7Ao2hFPUNQBCiQ3j7jGMA9cU2e4t7RxHCg3E8kCoZtZtIGWGI4HciryPG0QlRFfIznFMkhvpY2MSSFgrVLI8EcHkuAR2B71WlvI5ryOExZYdR6VLdTwBt04ClOlADfskP/PAUVB/bdt/fFFAFjUNKbXLQHyjHJtyua5qx8Pajb6tEJImZUbJau4P22GyLsVaTHAFI11cfZgACZMc1znTcj1PUTYPGyoXQ4BxWX4h0l9Xt1uLZQHHODWiI7mW23PCNynOD3qaSa5htUkWNR22igLnFaPpN1LqkcbQsjRtlieldtqF9Hp7xh+VbgCpZ5nihDIi7yvpzVNjNLCk0ltuZf4SM0AZniXSzqNus9qu5l5+WuY0+zuTqcUbI+4HnjpXoEd5LBBvaDavpipDNFFD57woJDzlRzQIfNcRWhjjkYAHp9a5jxfYyy4uYCXQdcCteeaG7t1nlQnB4GOanOoW1vbgFMo3GCM0DPObaOX7Shh6huwr0hX2WkP2kENt4PvTfJ05EF0sQUjngVFeyQahbAuWEanII4oAxvF9rJIgljDSRD0rmLUyR3cLRbkfIFekRyWKWISTJjPGWqH+xNNhcXXljPVSTRYC1Fsa3i+1Dc+AQx7Gua8ZpPhWiJ8puuK19RAvYU8qTy0B6irqWtqbZY7tllUjAJNFgPOLMGO5haI4JcdK9GaKOSKFrkDfgYbNUl8Mafb3H2pZPlByFo1xJZ7Rfscm1g3BoAyfGrzRCNFyEJ64rnrS5ls7qOSCQtk8iu+jsTfWaQ6iyscferHj8HGK68wXG6ENkCgDaEcV9aQmUbJMA5HQ1R8U3U1hp5MPBOADWhfK4ssWagvGMDimi0k1LTxBfqAzdTigVzz6O9uYJhOkxLA5PPBrvbVU1jSonkJjc9WHeudufBl7HdbI8NDuzu9BXU+T9g0hYLfl0GeaBXK+s3T6TYeY37zjANcV/bt+s5lV8rnOPau3hjk1OweK7iwx45rldS8K3tpMyIhkjc5UjtQM6GCdtX0sS2zbJwKkjeS008y3Y/eIMn3pdBsH07RtswxJgnHpSC4TU7V4UBDYIJNMRzE/ie9admt0GwHv6Vu2epDUrDzbcASgcj3rlL7T57SRxIhOT2rd8IQSwWzl0wCcigRsQTyPa+Zcrh1HNYU3i5YZyiw7wvFbkE8V9HLHGdr8giuKv7F7WeRZUOCeDQB2FnqEepae09vw46pVizkH2MzXAKheoNZHhWKSGzlkddoPIrSE0N9bTRwP82MGmBj6h4saKZltod8Snk1safqUWoWXnW4w4HKVxN3ZyW0zpIpxng+tdD4Nikt4pZHX5PegDahfz7ctcALt/hPase88WWlrc+Ts3oBgkVrXBW8tJktmG8DDfWvPb20e3maGRMEtyTSGegxzQz2P2i3UbCMkUaBdwXccgiTaq8EHuaxfA/mmCZJs+V2Brd06KKOaTyBhSe3rVAaNBoopsQlOFNpwoQCYNGDTs0ZqSRKKXNJTAU0lKaTFMkXFIaWkNABRRRQACqEw/wBJxWgKpTD/AEkGkURycVm6jGlwyI/UHqtasgrL1F1hZWb1/hqWUWbi2hktPLuSpVuBuPNZ9t4csLaUTEfKDnnpWiYIJYkmnfZGOaYdW026zbJMG7c0gLcRXYvkuGHTgU68hE0WybbzxyaYkMdvFkYCDnOc0SJ56q6v8nWrAx/+Ectln8zfgda2Zod1gsdtJgjvSG9sdptjOu/pTjGsFoQjfL13UIQy3hY2RS4PmZ4NYr+GszmSI4QnOK27crNabY3OCfvVJJPbWzCJ5Rux602hENtCLeBo4T8wHJpbaCWS2YXLE7ulPMSxhpQflcZxmmw3CywMYW3dvpTsgMS58PBrhnjatLS9OWzDHd8zDrVyMi2j3zuvzf3qemGG8NkHpUNDIkM/m/Ou5O1ZGt6K91N5iffHNbEFx+8KBvmHQUiB2lZ3balMDK0jSjDcRtccHtWrceet1iMfu+9OljZ5I3jcbVpWdmmA38E0wM3WdLN2p9e1U9O0CRZAbjhBW5IszXIy3yA1Zm3Tp5cLgZ71IEF07WscYt0yAKLu0kvtP2kbGYZp11E6QoglBYdTUkyXAtkCSDJFNgcxB4duBKVI/HtXS2lumm2OEXcw60/c8cCoeZD3o8uZYTuYMTzxSQFZle9tZFUFWPauVXQrtbhx5R2lutdmqTR2m9VXeTUm4pa4ZQZTTaAq2VuNN0obh83rT0driBgoySOtBMr2+Jlyc/dpY7jy0b5Nm0UWEche6ZNHeSMYi248Gtbw9pUokE0vyKO1bVpMJF824UAdsimJcSTXmyOMhcdR0poZJPKHOyM5b0rldc0ycXvmshYGurhGJXIi5XqaW1mNw7PMnyocDIpgc1pOjSzOsjDYB3NdBdyJaokbNvovr0iRUiiOzPYU26YGeLMZOfakBleJreae2UohK+1Y1rplxcukaKQPcV2M07mVYRFwfan3NzHbRBI4cyewqbgQgJp1lFETjA5qrrMMl7Y/uBkVZum8yNGlQ7j2qeSXyYkjSMgHrTA4q2sLhnEPlnINdTFarpmnKzjLHsKuyslvAZI0DOfaqoll8gySxlh6GgBY915bEqCpIrmZtLuYbiTCFtxrqDeBbYOke0/3akhcmPzXXDHsaQGZ4e06SzV55hgkdKtW1zJPOylCADwanE8koYMu3FJbTtHE37sfWqA5zXNPnN75oQsKdpWk3E15HJIu1F55rpLaZrhi0yDYtNa6Z5/Ljjwo70hEN9eiGaOIIT2Jqh4itpZ7ZfLXclXxJ/poVodw9akectL5IjOKAONi0+4lkVIoyPrXWaZaJp1mTKcSGrNzLFbRDaoMnsKhkmJhDyjk9sUwGfaDcQyeVy2K4+6tJo7pzKpG412sMqQQmTYAD7URiKb97Mi47ZFAGF4a0+QTmeQYUdCa23vI3n8kHLCmw3XmyMsSbUX0FJbmGWZiI/nHfFKwjA8TI7TDC8DvWfbQyXEiIBXYPJDcyGJowxHXimzPaWjKIoxvPtRYB6hbO0iSZuPes/XpGNkVgBIPpVu+KXHliQEZ6CpZGt4Y1icc9qqwjh04OAp3V0/hW3njgeSYbU7Zq79ktEXzWiB/CpxMjWpWNdq0WAZJsLM8R3EVyOrs0l8fNyPSursYoYVkk3HDepqF7Ozvmy64C96LDOe0i3e4vE2A4U8muqmlSIrCevvUdqLe1k8m2UY9ajltUubrfIxBTpiiwGb4k81oQOdntXPhA4wil3PGK7aQW8+Ijg59ajFjZWj+Zs+emBFotu9jp6m5fAbse1TzuqozxHK47U+9ZLuJI2OEPYUiRwWsGw/d7ZoA4y6mEt1I0meTwMVo+HrKSS+E+whF9RW6umWTv50idasQz2+0xwIVVfSgAlliaQqG+Ydq5/xH5zuBghMc1sQxwG4eUkgilcw3jFAu/HWgDjo4DMVjiUs57V1+j2bafYj7QcFuxqQw2tgA0UYD0XdwJ4lEgK5pgRyyARM0Z3Vyly4kncy5GDXXQCG2QbuQ3rTP7Osp2aR49ue9AGH4dtne9EqZWMeo610dwYmJUgbh0ptvJAu5IFAVfSoLeKOa5aUs3B5FAjG8QzuQq5IHfismOLzh5cal2auxuora7YxhNxHemx2tpYkFF+egBNGhNlZqJuOO9StKiB2QDnvTb2aORFV22lqFiigt8Fgwb1oA5fUZVmu2ZsEelP0mwkuL2N0QhFPWt+PR7SQCWUBe9WIZYYsxwAfKOooAdNLACI2Ybx2rI1+dhCqJkLVoWkN1d+cZSGB5GasXEdtNmI/MaAOM2g9i7t0rpfDUN1b2ztOSE7A1Y+w2dj88g57VaaYPZkgYB6UARMkSzGZMZI61zOqzPcXTIWG0V0kEUcUBaQk7uRVY6La3cm4kp/FTA5jyk9VorqP7Bsf7x/76ooEalqLm2gk8yUy4OVJ9K5PUfFN/HfOIY1CKcYrq7C6ed2g2blzjNYuveFLoSNc2RD7gSY8VznRYveGdafVoykxEci8HFbEm6BCTJvC98Vg+ENInskklulMZYYx71owXrPdNaNCxHQvQFjBuvFU8V6wgUNGp7itzS9Zk1e1d7c7ZlHSsTxD4WuIW+02akq3JUVZ8F201ok5ngKZ6E0AbUVzO1oftqABOtYV54sgt7ooIt6DjgVsQanb3nnWTFRMeM1xWs6PdWN6W8ppI3PDCgDsLHUI9TtTLZxjevOw1ZfbLBG1xGI2U85HFYnga2kSG4kZSMdD7VsSXMOo20tusuZhxkUCuZ134lsIbkwTAkDj5RxWmLu3ksDPbQeagGdorgNXsZrGfbcqSCfv4rpPBAuVt5WbPlA8emKAN6C4tb/TwzQbEBzg+tVLjVtPaUwSTgBeCtWpo45bN47Tg4PArzy/gaO6ZZVIkzz70XGeiQ/YzZgW6+ZDjORSyLaXlunknZtNYHgR7kGWJ8NF6Gt+7jUWczWgAfnA96LgRT3VtMBavMExweamS2tY7bYrl1P8AEO1eaXXmm7k8ySQSE8nNdR4IvbiVpLeUl41HUmgDoIrRHgIiuWYg+tSzsRALdJV3+pqM26wxSPbEnIJxXn97e3clzKTK6Mp4GaAPRLW08i1J+0lmbvTHS4W1YRS73PQ5rC8G6nJd+Za3BZyo61uw2z24kKyFgeQPSgViSBrmGzAncmRhyM1BAl4Uc3KrtPC4Ncpq+vXo1CRIWwI+MGtHwvrz3sr210Pnzw1AWNyOa9jtZGfG6PpjvU9heXL2xa5AVj0BqMQyQtId5eNuRXL614lkt7zyrfBxwwNAHSLLdzTyCaPEWODRZo0ZY+TgLzkd6yPDvib+0ZfIuMo3atwNcxXTKcNA68EUxEUJjvnkM0C7VPGRUUU6LOYEh2qOhFZ2teIY9OdYlUE+1N0HxDDqNwYTHsbsaBF21WFJZdiFXzkmlaKG9bEke7b3NTnzFvPKMXykZLVQ1DW7bSiI2Qu5PagC3FLAkhtETAqOxS2ikmFum05y3vUGkazaaoz+UoWUdj1qaGcNcPB5JVv71MCQwW183zx5I46U+3kgidrQDkelVL3WLPSW2SuNx7Cl0rUrHU3c2xAc+nWgCxAkEcziM7WJyxqC6srTUWDFQ7KfvCplZDcNCU5xy3rQ9zaaeCruI8ikK4+EW8CC2jwHx90VX0mD7PdSbbncGOSh7VJaNZXUpktpg8w70WkUH252VwZe496oLmr1pKWkNNiClxSU4UIAooooAKKdRimAhpKcRSYoEJigilpDSEGKCKWigBB1qnc8Tirq9ap3fE60ihJVPOKyr6MFhvrWkJ2nFZ18AVBakxmX4zSf+w1W13bcjdt9K4K2iYYwTmvUj5TWeJ3XYeOapDw9p+POX13H0qWhlvQQ82ixLcMWPTmna4XtdHkFucEDgirVsIpLYRwEBU44qWW2U2vlS8g9c1SA8xtQ7TGSVjvHOa77QJ5LzTtk3IHGTVE+G4muzKh2r121tRRpDamOEYOO1MCKdPsVi6w9uRXCTyzXV4Xdm3E469K7+3ilNuVuQGJ6GsS88PNLcGSEbBnNDRJc8OTPcWzwTc7RjNWoIE07zdvKvS6fZCzgIUfvCKW1WUlvtABU9KdgOR1W/u76fyy2EXgCtrwzdyMTazNkL0qPUNDaS6MkHGe1X9H037IpY8yGpsBPbaeINSe43sdx6GsTxTqFwt6baNiin0rfQzmYiQHb61l6zos95dCWLJpjK3hu9mEy207Fw3eugmsSbhJEcgKckVT0bRXtphLdDbgcVqNI/mhUX5T3oAx/E2oyWahI1wX71jaVqV1bz7nkLgnpXQeINGkvQrKSSvQVSsPD06SK064TvSA2bu1/tCyjlRjGcZ4qDU7prDT1cncVGM1cu5jbxpHCuVAxxVXUbB7+x2qOSM0MDlrbWLz7UsnmEoTyDXYEPd6d5sLbXIxXNWegXLThZE2oeM11EoOn2CxAZ20ICOS4ksNN3yHeyjrXLJ4lu3uC6oCmcYrotRWS800iJWwRXLWWj3byFDEwwaYHZ28rX1gJI/lYimj9zGzzHcaSJP7O05FY8r1pJl+12LCI4YigDGu/EYM3lW0eY1PJNbmmXxuLUGBRuIriksLqO4MRXPPX1rrNB06SyiMsjkZH3KEIuWdzMWkWVQMdazNS1+G0cQgbx3xWkZA4k8rriuIv4pI9Qk3L9455psDsNN1WK8T90BkdjUk95JHdpGY+D3xWF4d024ecTDKIK6GbZ5gyd8g6VIyDVdWgsPnY5cjgVR0zXo7uUh12N2JrO8R200k3mup2+lV9PsJbm4QQg4HWp6gdTe3EqNGyp5gbvS3t+lrD5k5GccCnORAiJIegrE8Sxyz26lFyKsB9r4iSafayYXPBNbM80zwBo8MprjbK0nuWSMJgDqa66EpY2scUpyTQA2WeOO2WWZQAOtY8/iFmuQsceYx3q9r0b3ViVtxxXO21lcMoRRz0NIDrYpGurTzLfBJFR2jyx2shuOxp+nwDTtMHmthuppLgtc2TeTyHqgMi78SCOTyoY+Aea0NK1YX+QiBWArmW06cTuu35ia3/AA9pr2qPLOu04pCLsU8ovdpj49ai1PV47AsCAXNT292JZXjC5I71zesWk018X2EgUAaVhrkV5IEkjwR3NXr25kSMfut6npWBY2M0lwnlpgA88V0c8yxMkLcn6UAE08QtkNwNigZIrLk1+3ebykX92OAaj8UicxKFBC96xVifygETOe+KYHZwSxtbZgQHPXFN0y6SSSQCHyyvr3qvoitb2G6b5frU80ii3eSLqQegpiILjU7O2dtxAdvSn2ctvdcqd59TXIsDLcymUMGz3FanhqOb7YBHuEfc4ouBtT3UZvIo5Fye3FSXPkmQyS4G3pU0yQeaCAC471y2vzyNc7UchaLiN2HUba6lMZI46CpbueKGLbsKp61yFpG/2pTBkuTXYlEa2RJhlsc5ouAxPJe0BIwCarHULSKTyFZRUOuz/ZbIRxkDPSuWx5jlnz5lFxnbqIYYzLt3A9xSWMkU8cjxjp61B4fSX+zyZxlT0zU84S2tpGjAUHrii4Eck1pYx+bMw39qLO7gvMsPmrk7mZp2bzWJXPStTwzCrzM6sVC9qYGy1xALyOJ1w3YVPfG3ZczEKq9aJo4JGWQqN471zevXDyzGEMQKANptRsnZUWUEfWrE0kNvFuSPKkdRXELEd4RMmXPFdpYwyLp6rdddvQ0AFq0UlqzhQdxqM3drYKc7VY9aiv3NtYEQjA9q5SYtO2+dyTnpQB19tcW90SwYMR2pLq7i+0RwsvJ6DFYnhyJpb3MOQnc10k8MRk3EAsvQ0wEnEQ2mQABeaq/2pbSziFXABrL1+eRplUEgd8VitGTKphb580AdszQwWztsx70lhNEYHkiA560lpHI2moLnlj1qK6kS1smEK4wKBCzXdraAsxCu1EPkzL52Q/tXJmY3Dl5iWH8q2fCizl3J/wBVnjNAFq5mtZ54omX5s9q0bjyFjVXwFTmoZY0SfzQigjrxXP69dtNO0cTkD2oA21v4LyTyYXHy9qe7W9qjM6hR3Ncfal4rmMQsd5PNdrJELizVJgM45oAi017VkkkhUHd0JpDJZ2khZyu9vfpVaeWOwsnRBtwOK5jzDOfMmc4NAHYp9mvUZiRIB2BonuLdY1hIC+grm/Cjzfb3SLJgzyTXS3drDJMJNuStACzpFJEqHIXHeoYbq2aQwQyAMBisnXLyQOsUJIzwaxnkaCSOSI/vM80Adp5Q9aKrrPclQSo5HpRTA0kinil3RsqqzZNSwyXYvGWQ4hUZzmorQi9soZ2Z0d13deKp+JNRk0+03ADJ4B5rnNi9PLdTSqYB8m7DE09kuI5R5aIcnk9cVw9l4p1CG5QyndBn5ua7Yu11bxXVnJhm5IoAet7cfaPLnjBjHem3l23mCOGPIPpVTxBqjadaNIy5bHfvXN2XjC4SVWmhG1v0pXHY6iKFYbkP9ny7d6tC6S4cxSxAhPWkhlN7BHPG3Dc1S1vU10yNpfLw2P8Avqi4WLhvI4mMEUJHH92oLUwRSv8AIwfOc7awdJ8XpPcBJIggfjdXUsrsUkQKysM5FFxWGfaIL4GOSPcqHksKja4t4G+zwLsU+gqrqWq2ulxMzL8zdQOtVdL8SadeXSoYtjHgMwouFi1p9vFBPLukbJOcYqxdaZpuqsNybnXknFTShFuQTAQjD72Paq1zd2umIWZwhJ9KLjLNulpY4toCqn9TUFhbst/J+9yG/hqLT7nTp5/NMyvM33RnpV0G3iugx+VjxkjrxRcCrqeiWOqMVTasyj7wqTS9LttHjwrq8j9SaePKsZppmY/N0PaozFbXs6yPcjcRnappgRwi5XUJCGBiPaotX8N298pkiIjnPpWjLHCkiHzCuOMetRxxvb3rTySkx9hQMpeHvD39kb55XWSQ8VYMt0NRKKmYD/FmnyxSXU6vHcbUB6Z606SN0uFCSru7qaBGPrnhSW6le6s2G9uWX1qPwp4durPUGuL1QqjtW8kt1FdlW/1QHJFOuZrmWZBF0PU+1AiBb5k1FrcxM0Z5BrJ8Q+GTfO13ZkiT+Ja3lhYS/KBuPU0yO4uI74xhcKOpoA4/wzot3HrAeaAoqdSe9ddcagtveLC6naenFTXdzPvVYk3MeCRUE6SLIjNEXYdsdKYHO+KdAuLiY3dsrOO64qn4Tsp21ZHaJkROG3Cu0F84uVg8oqpGTxTby8W3KiOMHcecCkFx095DFefZ3OC3Q1xfjKxmS++1IpkibjI7V1VwkTTxyyoxPbirb3EDslrJCCG55oEcJ4St2/tMSRKxXua7BpbcXGzKrManEVppx2wRKm89qp3Vlam+SZ9yyMPlxRcRyXimzkXUy7oSpH3sVH4XR11dSisB3INdrfWtvPH5Ezb2PSq9rZWmmSjAAZumaBlrfE0xXcFk7471xXihZ11Bi4Yx/wAJrrLm0je+jm80o386l1CwhvYTFJtJ9adhHG+EndNURVY4brXXtbRpe+bE/wAxPIFVtK0m102TdkF26E1JNbv/AGkJo5tid19aLCNkcigUsfKig02ITvSiiloQBilApM0oNUAtFFFIAooopiEooooAKKKKAENVbz/WpVs1VvB+9SkxjW+6ay9XfZbFvStV/umszUyqwMzj5R1qW7DQtpElxZRu4AQDJzSjVtLkX7MJgG6cVR1JWudAP2JiDt6CuBtIjDOPMVhIp5JqSz1SK3itrctCcIe4qeKQSxccqOprL8Mu9xZMlwCAOgNaN0DZ6fL5SjJHFUSK11bB2j81AcY61HbQGBXdZN6v3zXnrtK95JJIzbiegNdn4VZ5rJ4pnJUDjNAGqGZ4MREMR1PpToz5Q2TSDcfeoUT7FbStG249a4i71G6ub5meQqM4xVEndLE6O8hfI/hpLcsVdg4f1HpWf4evJLuAwvyUHWrdlZtZedKz7lfnFO4E9ujISZpQN1IIH+1+YJMoe1chq2pXE906K5iVDgAVteGL6SSVbeZt/HU1NwsbFvC73RLTLs/u1Yto2ikeR3+QdBVcWXkXxmDkg9q5/wASavcRXPkQtsXuRRcLHSSLNNMXDfux2ppWZpkEZAAPNYXh7VpPNEN0xcP0NbNxaTfbUmjmIQHladx2JFFwbo7mIjWpbt5JUxCPxrD8S6xJaZiiO0nvVXQNamMgiuHLKx61Nwsbk3nqUUAdatyGcFFQcY5xVa7tZpJo5YZCE7iquvarJp0HycswxTcrBY07x5WgCwKCw71WuPO+yjzRvc9q5ex8QXgcGRjtJ6V1L77qyWWE4c0J3CxMgnNmmAB6ipJn8mMbAGYjgD1qlfXp0+x8yQ5OKxLLxI8lypkjAQng0wN2UtKF81DnuKfLOLeL5E49Kc0jSqs6AFetNvJkWHzHAC9zVATwyRi38woAzDPSqyXUk7sm0hR321lJ4jgeXaVJQHg1sw3ontWlgxgDpU81w5RkIEUTyAEjPI21NB5Ey+bIgAHQEUyO73W25+B3BrNn122SXyuSAcUkwNFL5HuTBEgC+wpsZjkvGBBBX2p1pPBInm26LnHOKSyulkmf5Np9TVAP3rcyGKRdyr3xTbi5itnSOGMKfUCqd9rdrZuyj5nJwcU/TNRhvJcKqqw/vVHUCzI6yzxq6E59qdIV+0eQse4DqcU2S4lTUBFs6d6g1LVI7Bm3cu3YVQizdyRwIPKgw3sKr3DhjGJEyT7dKq6XrKXLFZBtfPGatXcswukCx5B6tQBPJKsSpEkf3utOmkjt4iEQFvYVU1TUI7GINMfmxwKo6d4gjnnCMgAPc0AaEkrPb7pkJyfu4p8twIbVDHFtHpTL+ScKrQgkNS3NwkFqj3GAQO9AE0W0J5zgb/TFMaaV1YldoPbHWsVPEAku1UqPL9a23mMlr5sHOBwKAIbKVgHZotgTvjrSW9z9qlYeUFA7kU6yuHltZPtChSKoTa9bwOYkUNj0oA1nvERliROc9QtRs0H2hWf5m96r2GpQXTfuo/mHXmk+0I96UMRDDvigCzc3UBbYwUnsKY5ighDsqj/gNV55La0YzTEF+wpttqVreybN4JPY0AWpp45YAxULH6UK9skClfuH1pl9cRW0ah49yewp5SCa0RimxDzVgMhgtrgs6oMDrUkctvEzRxLgjuKr/wBoWcEnkRuBmrLmCKAyqu8mgCCEo07sWOaZJbWt5Js2Zb1qWzeKa3dwoVqjF9aWvyqQHPU0aALHDaafIBHjzKW9ZZ5owZArU+JLaciYYdhzmovNgnvApUb1o0ALi3t5ozDN97tVeLQ7S3XznOfY1ddLdLgyzOMjpk0wSW16cPLkL2FGgh00qvZBImCjoKZbQpHblbqTcD60l4tuoSPlBnin3NvE8Y3P8gFGgGbL4et7m4MquVWr9rDb2cJityGbuaEubcKYopRz70vkwwxtIepHJoEQ2VoUneV5d4bt6Uy90u31CXaGw3qKt2kUTW5MbdaQSW9ghy2C3c0ARwaZZaa2OHkY9TT73/SWEbMFHYU5FiuSs7vux0xUSmB73G8Er2oAkkjt0h8uaRScY5rNXQraZy+7CirN1aRXNxvkbYi+9Tia3kQQxyKF6cUALY/ZLRGihwzAdRUNpApmkmabGT0pwggs97HIDCnWkUBtmKgtuPU0wKl/p9tfSgRNufuRTrTS7PTHDsQ0h9asL9ksEJVxvalWKKUrIx3mgBuo7pY1iR9uRQ9sptRHK+7IxSBYprsBZOV6ipbjylk3u2AKAM1fDkCSCV5AF64rRSaBYDHbAKAMZpDIl2NgcY6cVC/2e1hKNx70ASW0Q8thLIGyapS6JBczExtjJq9HFEbP92SQ3emJJDaEIsgyeuTQBDZaXaWM27hnqadTcT4WQRhaeIYvmlLEnrUNtHDLctIr7vUUASXtrb3ELI7Dms+HwzCo8ySUCMdjWg1rGLjzWkKqvY1JKReRFFfCj0oAjgFvBEy2yjjvTbeOYkszjaaRLeO3t/JEmSe9WBEotNgfn1oAzdQ0dbtwY22v60tloUNkQ9y4d81cgCW3STex96je3Z5DK05/3aALuU7BcUVR/wC2w/OimBbuYmtdPSG2be0S4FTRWbajY+XqCKdw6HtUdpHbzoXhuPMz1xzQYmEJ8mYlsccVzmxzl74IuEn/ANDkUxE5Ix0roDHJpeloMb5E4IFWYZGtbYLPMQzdc1Clo7lyZ1cP074oAhntf+EgsfKkiMbkcE9q5ebwfqMExiBDof4sV1oguI0YxzAleAOKmtJriK1xPIofPelYdyG0hk03SUjwWkQcjFRajp7a7YCN12NjgmrUVtdu0jyzDY3QYFEvnx2uY2DuDhaLBc4VfDGo298kbRl1V/vL0ru7mZtOt4hngKAQKkjlf7MhP+tYZ5NQmC4liJkUZzkA96LCuZXiLSn1eFbi2UhlX7vrXJ21hdJqEa+Q4kVvmHavQZ7u5srNWEQZicbamWcQ2jXLQKJiM4xzRYLjbq7js4YvtLcMACCOnFc54r0+S5AuLf548ZxWrM/9pQebPEx2t0KmrUN7b20A3QnB45WiwzzWBZUulaEssinGM16ZbzCS0gN6ihwBgn6Uq2unn/SjAAevC1Wvpk1G02xkqqdwKLAZHjNblIx5JbyW/u1y8FxPbTJNFI+VI4zXpNotsliFmHmoBj5qrroWmOTP5eB94elMZJbldQsoZZgVYgHPSsjxjLc21uot2PlnjcK1b+VJrExWTqmDgYqSG0hksRFqBD8dTQB51b6hd21wji6LJnpk16JHHHfWsLuzRy7Qdw71mHwXZyS+ckuIicgVp3wZLELY4PljAOakRQ8TX9xYWmY+SeMmuZsvEGowzKzuHTPI9q7QWI1PT0TUcKSOTWJN4JfzAYZwYs5z7UCOgtna+tIp4W2Meaz9d1T+zlJI3Ow61blR7DT0htcu6cfWoLvTDrNiFuVMUnb60wOftPF9zHKnnJlM8kV18Mz3Uaz2zZyM4Ncc/hHUFmCEfKD19q6lkOnafGqjcyDBA70AR6vqkWno0sy/OB+dYtp4wikuESaHAY4B9K19R0w67YkBPLccgmuNm0DUorwRrbkgN9+gdj0C4uGe3jnjUSAnjiodSvobWL7RNGFZRSrKdM06JXA4A3A+tU9dtn1fTG+z4MmMhaYrFW28U6dJcAMuSTxmtq8mX93KYd6kcEDpXmcdhc/aliNs6ybuOK9HikOn2MInORtwwPakILu5tLYefLgYGeRWausaTfTKDJ+8zxk0eKLKTUdPWSy+bAyQK4m2sZRfqqRuJc9MUDPRLyONGjZiT6USvbWim4klwMdDUm5YrSAXIAIHesnxdbPc6crWx3oOoFO4iwl1p9/KPLuAT2pb2JBNEXk2Y6e9cDbB4LyNlyrhhwK9BMaXNpC0o+fHU0XEacJzGo9qfgZxUNpkxe4qZRk1SJA0UGigAooopgFOFIKUUAFFFFABRRRTAKKKKAD1qteDlTVn1qve/dU0mBGwOwE8is/UVBhkLDK46Vo4/dAjk1Q1DPkOVGSR0qJDIdPaFLTcTtQ9sUn9n2V0/mCMMfUil0Qrc2hedNuBzVCfxTp9jeG3RSzA81IG7ZGIbkjOQvtVq4RWi2kHae5qrYzW9zbC4t8HdyQKdb3Ud7FLGqnKHBqxmTc6Dbzy+YjH8K1bO0ihtjFG3IHJqGXULTTsJM4G7tVmJoJYDPEdwagCOytyFkRpN4NZU/huOeZ5Y2APpWrpssExkiiY7x1qRrm0sQVlk5agRX0rT47FGQP+8PWrlpCSZPObIPSn2yQOhnU7uKhtZIZZ5Ujfcy9RTEZl74Yju70ywyBSeSK0dL0eLTnLu6tJjipI/LtA8ksuGPAzSxxieUTmbKjsKLFXCN7iS4IYAJ61k+INAN5IskLgMeorYjSNrsATe+2pETbcNI7gqOgosFzH0TQJLV1muWAC9K0mnl+2CONNyE9all33Dn5wqD0phiY3KCOUAA807CuZXiXRHvXWRCN3pUGl+HJoJVkuTsUdvWt5o5RcEu+YxRctNOQI2G0VNguLLMySJHGpYe1ZviLR5r9Nwbbt5xV0xS/aF2uAPenXIuHnUqfkHWm4hc5nT/D9wZF81SFB6muomf7DbJGi7/pT7h3KBIsVFcQSeWuG3MPWhKwXKWr2cuoWJ2oawbHRLl5FjMZVQeprrSJiiAYUDrVTWb0QW5SJgH9RUSlylQXMPlnj063SMnpwaydU1G3uLUxh9tYN9eSuDuZjzVBnLd64amKa0R1Kh3NW3sxIQsDg+tdTpFo1hZHzXznmvO472aCXMTFSa6fSvEPnIIro8jgVdGtzEzo2N/US1xZOIeCR2rjxaTcoVZmz6V2MM3lWvm43BzhRVuMQRW5kkiBbGeldadzntYzvDVlLaRO85wpHQ1d3xMHMPLe1MtL77XHLtU7F7EUWcyhXeOPG3rxWi2JONvIJk1CRpEZsnitrQNLuHuBP9xfet23SC4bzpEwfcU1r0C58qJdoHoKnqASSqLorvG8VzHiOG4+1eYykg9MV0se2S7Zmj5HepY9t1IQ6jC+oqhHLaLplzc3CSFdiL1JrqJJI0lEJxuHSiWfy2WK3XvzgVCxVrsM0ZLDvQBh+KIJZZVLAkLWbY6Zc3FzH5aYGeTXZsUmuAjoCvqRRdymErDawjOfvCgCKSRbQJFM+SBjFZfiRHltlMSlhWnNtadBKm5u9PuZ1RhAYwd3TigDi44mYiMIxOa7C1CWWnoZGA9RUhS2gCt5I3/Sob2RGVTNGQp7YoAS+ffZO1vzuHauPEbCRt0ZL5rtRLDb24xGQppIYoGBmMQwe+KAMvwxbMnmSlCv1rUWeGWaQDBkUU+KVSriNSiD2pkIgCyTKnzdzigDl9XMrXZ3K2KZYW8zTqYl289cV0yPDePhI8kdTirEhgtGRFXDH2oAa6ReTHDOwJ9zWR4juJYIVjgyE6ZBq9dsjXKg5LduKA0dwfIniBI9qYHIKC0hKhmk7V1+jxulgDd9+xqRbCys/3jLhuwxUl06TRruGxTQBDPsgtXaIcEVxTyPLduWJxniu8YQRWoSQ5BqpHpNoy+dJgL1qgKPhjzgGLZ2D1rUkiTzzNEqhh1Ip0EkKROsG0IO9JZrGAzbwVPWgDk9WlknvWAkO2naIsx1FViJKjrXRS6VaXU29B+IqxZ2ttZuRFhnPWgQ+7jinKLIBvXpWF4kuJIwsUbYXvitV4vPu/MEhyp6Ckv7K2uwVkPzGgDjATCRJG7bvSuy0lzcaav2pPvVHDodpaqHm+YL61bvMvCi2pCAdKBFW6mGn2khQcDoK5W4upL1t80hA7LmuyeBJLfZcEMSOayI/C8ckzPvIQnigB/hZ3dWU/NGOma0mtYorlp41y2KfZww2do0UJB9TTbeIgMWfKnvQBzGqajJLO8Ubbcdqob5IyghclyecV0c+gwXF2WV+T1xVu00iysJQ2Q7e9AE9uolsoxcg7iKq6nIbKybyqtXQM0yCOQKB2FF3DDIjRTNk4pgcVJcSyBpJHJ9MV0HhaSSSB3fLKOmani8P2+PMdsL6VfjjhgthDAQgbvQBEIY4ZTOo5brXOareST3DoshCg108Vv5UB86TOazpdDgupiyPj1oA56wuZkv0WJy3PIrsrmFLi2TzVAY1VsdKtNOk3jDuT3qW8E090rRSgKvUUAZ+r3jWdqI4hiucmeWQmR5CH6jmuxvrGK8h2u21j0qhF4ZiRxLPPlR2oAtaEWuLAef0IxTre3ismlKk5PTNTXUQWBIrM7AO9L9mLQ4uH+bHWgDl9Rv5p5nj3lVqPSr6eG9jiR2dW4IrWHhszSsRNwec1fsNPtLBscSSetAEl3ZCZB8+D1qlq92YLZY42w/TNWRHdTXrOHxEO1R6ppn2pQVbBFAHM3E020uJdpPNdHoEsl3p+64Xd2zVKPw3ISrTyfu89K2XiW1svJs1+YdKAKx06LPVvzoqLbqH90UUwOZ8J38tlqUKwvvSU8rXom1fv/KshHzKtUotL0jT3F3HEwcc8Nwv4VHcv9ouVmim8uPvXIjpuct4s1G8N35L7kA6c8Gjwlqtxb6gkUju8cnVRXYXlhpV9D5V4y7mHDY5NVdO8K2GmT/ajMW28oM0wNeKCLezxna5/hrhvFGo3sV80O8xgH73rXT3zTvfo1pIFTvUuoaRa6lBtuSqyY4amBz/AIP1svN9jv2L7shWrpzb/Zldo33jGRWTpHhmHSpvPmkEhz8vtVyS5nXUvLjT9yw5oA5fVddvWvmjt38rZW14b11tSja3unImHAb1pda8Lw6gjT27eXOf1pnhjw3Lp07T3soJHcVKEbNwrwxBpH37K5G98Wzpft5EatHH8tdUlzLJfPb+VmLG3d7Yrnda8EyBnu9N43/eQ805CsbOga4NXgPzJFOP4D3q47yNAUuohgHPtWB4N0S6s7ppr2MouOtbx1CCSaS0lDYYYBpRGYuo+JraG6WJU8xF4IHQVs6ffQ3VmXtYVII5A61x+seHLmxeSeINNA5znuK0fBlpexh3wyx+9XcDpIpVubQxvDsCnpVW+1iztXWCZtibcHFWZZ4pUkhV1WU+leea/b3UWoN9qV9hPDY4pMaPQrI2DWbParvU87hTFS3urPy4mZBn5q57wG04eREJaDHeullSN4pUt/llHakJojnvLSJRaicIQMZBp9vbwQ27Mty0gfuK851FLhL6QXZdW3cc10ngm7mZ5IJSJEHqaEyToRG72x8qcvjj6VMJfJtxCXG8jrR5QjhlNp8rdSDXnuq31zNeyLJK6Mp4A4obA7uOCcI26YF25BJp8zXSWoZWDvnFYHg/U3nY292GkUDg966CdPs9tJIjbwOQp7UDJknmSDbnc5HPtUUEN0YiZ2UnOVGa4K6169e8keCQoFONorp/DerNqVs0V2cyr/EKYzZke6hizGct6LVhruRbRSceYB0PWqg862tnLsGC81xt/wCKL77WxtQoVT3GaBHXOs9zbs9xFkE5xUscxt7YFIQpHaqfh/VW1ezy52yqOfTNWgZ4LeRrrDgHIwO1AFiWWJV8zywXxnIqhM7XkO6SIsinpjrXOXfi8w3RFvBuVTjmuh0fVTqtr5sCqHQcrSTE0W4Z47aH5YyqHoKlb7PETc+QofGd3c1Ct1J9kZrmILtJzxXPzeMLaOcoYCyqcE9qGwSNu8dNQtt0ikLnrU8DW8FsFcHysY570yy1OK/s99rEpXr0qWV0mt90y7VXtVJpoLFSTRtMVxc+WAfvdKZeiK7t1ED+UEPWq1x4j04SG3dxt6VpobOfTf8AR13xkdVPNCaYWFshtiADl89zVlRhvQCqtl5YiAhztHc9atbjnmqRmwNFOopgJijFLRUiCijFLigBKKKKYwxSU+kIpgJRRRSAQVBej93U696hvP8AVU2BEn+qUVUvBtib6Vbj/wBWDVa6+aJql7FIq2ciXukzfZeGKsMfga80NncWt7MLiJsk9cfSvS9BlRY2RU2bTV0Q2V3IxkgViDjOKzZRgeBY5h5m4N5ZFdOEjVJBAACeuOtOthbwMIokK59BxSJFEtwdqsCeTVRQjzTV4Zm1aVbgttDcE11XgkyPvizuhC9627jTtO1CVvOTBXqRUttFY2TeTbDbnvTsA63gt4DI0cQV+5Fef64JZtWcSykoDwDXdQW6i7d/PyHP3M1BqegWWpy4jbY46kUCMvwheytM1qRmMDiughs4raeSSMAM/U1HpemW2kZRTukx1psX2prt2bHlHsaAOR8T3c0t81uzsqVpeFNRMUi2kuZUPSret+GxfyrLE/z9+al0Lw8+n3BlmkBwOBUq9xlyTS411P7ShYZHSsLxRqk8M32WFtueea6TzpzebQgMZ6msbxD4elvpxcQsN/pVu4in4b1RxMsF07SFq6GSxJvVuI5CEH8NUNA8PNZTia7ZQR0FaE9xOt9sWPMZ7iiLAw/FGsyQTG2gJVj3qLQNVlSZI7lyQ1XNf0CS8b7RBy/pVTRvD92t0slyu1R60r6gbl5ZTyXcUlvL8gbJzVfXNWfToiuPmK4GKu3k80M6pFHuB7iszxDpv2qFJC21u4NEmOK5jN0TWLg3WLiRiH7V0tzayThXilZR6VzEKQ2kyOPmK1qDxFGzhT8pFYe3RpKkW9RvDZQKOSelc9qM/mfMeSeav6of7QhBhfnrWRqEbwwKZDg9KwxE3KPum9CHKUJjkVSZsGpZWIHWq4Usa8uzb1O24yXnnvTQ2zB71JIu0g1DIOp7VpHQR1/h/XswCGb+HpW1Hrduz7JB9K8yhnaJwVJroLK4S8QAEBwK9OlUujiqwud59pRbUvDDuDdSBS29wjWzOQEAHORVXS0lg08GZgVpNRfzdPkEAyCO1dSZxtalS88QwrKI413AcGtGyuUuYd0GAw9K4REmjlKmJsn1rrPDdjNbwmeYlQexqrA0aNrI++QumMVmX3iCK2cxxDcR1rUkuRLE5h6gYrirm1lS6kZkOSc0wOt0fU1vBmP5XPUU6GS5/tAhk2qO/rWd4XsZFYzygovatf7UksjhDuK0AUtV1mKykZQu9z2pukaoL18AbH9KwNcjmGomR0IU+1XvDVrNJeeYUKovemBr3M1wl6iGLcpP36XUdQhs23Md0mOKsyXKGTy3I3DpXK+Jkle9DFTsHpQI2bDV47qcZHJ6ZqfVL+S3Ufui2TXNaTG01zGEB4PWuuneFAsMzDcR3pARm4jNqslyNiAZwazRr0Lz+UB+79TTPFTSPZqsQIUelc7EMIFClmNAHbyTkWpeFd6Y7U2yuEmtSXUp2OaTSQYNKjMwxnrmi+K/YZGhHBHamBWm1W0sRtTBOeoqzaXkV5F5iZJX1riPvM5lyTnpXS+E4HWCSR1IXtuoA07Z1muiSmGHeo7m7tbKRpZWG+rIeMh2hILjriuH1hmmvn8zf1pgdZa6ja6iwySxU9Kde3MSOkbxnBPArnfDEDtfLs3be9dXO0Lvh0DMnSgBLk25jTzFC4FVlvbac+WjjaOMVi+KLyQ7Fjyo7ism1eRZUMTHeT0oA7OdLeCAgLtVutOgjgW0KQjAY5zTliV7NFuD8xHes7WZvstgypncOhFAFuN7a2HkJIBmlW2iUmXzSWrh5JZGXzWlO7r1rrvC0jXlkfO6Yxk07gWrMQea7o+Se1JHbQxTNcSS4Y9BSR28dn5hXnvXK6jqMlxcOu/Cg9qLgdVMgvgpMnyDsKcyw7ol3Y29vWua8OXkz3pgUs6Ht6V01zZxCcTBiCvUUxDbmDzJg+7ai08MJohEkox3wea53xDqc0cxhhbC45rFsrue1vI2WVi0h6UAdyII4ISjSnJ7mjZ/ou2Nsgnk08RrcWy+cCHNUdUuvsFmVj5IoAsr5VquPMG805YY5GWSRyDXEXV9NNJ5ssuMdADXT+Gr431oY514XjdQBdhWKS7JEgyO1Pmt4hOZJJMKKigso7OaSdW3ZHeuY1rVpJrhoUJVQe1MDrZGiuFVEkO0elQ3RhVFjdto9a5rw5eTPfLCjFl75rrLi3jm++uSKAGyRKYFRW+93piyw2zCJZA0hrN17UJLSFUgHzdK5me4ljc3BlJk7CgDuPKRHMkjdetNs0gklkeOTdUeiGW/0lWuh97vTxbxafBIUOG96AJIo41cySyYA6Ammzp9sIw4Cg1x2pX9xNM437UB7VqeEbqaaSRGYugoA25bcPIiLNjFTTwZVF8zgdTTJ7ZPtCuCwH1rF17Unjl8qJsUAbhLKPLgfnH3qr29sIRJJJLuZu57VyUepT2kqOXZgx2kZrrpIFvrBWRijY5FADrKF1R2M28N0oigaNy88hZewzUErf2bp4y2WFc/eajcXPzCQqooA6i4WS4VVRyEHWkmh4jVJMEd+9ZHhXUXu2kgkywXo1aT2hF2JDKdg7UCL23/AKaUVV+1Q/8APQUUAVJ/Edg10YLgkqOMAcGtSOSzuLQSQwB414yD0rgNW0+402djcxl1PRx0roPARnMFwQG8rr83SuTmOk2547aYxS5CrH2xUVxe2V4/lyXKoq8YDU69MV9YzR2rASgY2155cq1pctFcjZIe5ouB6W8NnHCjbiUB+8KS5tkeZJkkPlqM4zWT4RuJbnTXS6Xeg6E1f1kMumObIliq9KdxD52ivTs+0rGqnnBqdoYYWQibngZPevMWndWZ/OdXByRmu68NXf8AaelD7THu2HANFwNZ4ZEuNyzAR45qOQveSKkUyqFPzc1T155INPZ7YEjHX0rg4dVuonE0U7Eg/OuaYHpwt2WbEUo561FHNdrqDJIf3S8jmq2kXceqaekq5RwBlqreI9Qk021L4JdhgNQBq3k108ii3wRnkZ6U0wSrMpZUZz39K4bT/EV5BcLJKxZG6r3FdvCftttHcQSkHrg00MsLdM07W8yAoKSaRs7bdML/ALNZet6oNOhLycSNwMd6xdJ8W3Md5suQAjdxSbEdOtky3HmvGNx+7ippGtb1vs1zbZx1JFIZ7gmOWJhJG36VW1jWYdLgaWTaXYfdPWhiSZYD2Wn/ALi0TYx9BUUaYvzNvOW7YrG0bxPaXVyI5ogshPBNdHJO8bJmIFX7gUIpor3mn6fqy+XOimVTkkUlrY2OlAxwKoZ++eaZeXlrpkhmlKguKistS0zUJgVIMgPAoTFYswxSC9aQTYj/ALtV9W8O2GrMDHJ5cw64q64jS5DSKVBHFRMYrMySu+0N3zQ2FhukaTaaOjIrB5T/ABGnww3JmcvIvlnoKitntL+XzFn3lf4QanWKKO4bMp6cKaLgZmq+DoLuTzrSURSNywzwasaJoSaRExdg0r9xVi3/ANFZ5ZpSyseB6U+KNJ5vNFzwP4c0XGQJNO9zJDLHviPGaxdU8Hzs5nsHBBPKE4rpkjUz5WTaR6U/LQOzM+4HpTJMzw9pL6VaMbjAduwNT2lzJcyPFLGdnTJqwkUkr72k4pEimEjMjqU+lAHL654Pm80zWg3BjkitXwtpE+lWcr3Hys3IArXtri4Td5nTHFML3MpOBmM0khNleGYahDNbuhB559a47VvDV9ayNshMkbHIxXcWUdwrNlQFPQ1PZ3UxeTzVAA4GaGgTMPwjZ3FrZs1wnljHyrWlPNHqNq8CErIMggVJNLcTXO1V+RfSmQp5EjMkGO5OKEmFzzjVNKudPncXMJKs3DAV2HgsSppskjZWNemRW9HPDfKy3ECle2aj3qFa3gi2Rj9aSjYdxIJobg5jPQ8/WrPf1rN02KCFpFjBDZya0R7VoiGPooooJFxRRS0CEpc0YoxQAUUuKMUxiUUuKMUANopcUEUAMFR3QzEamxzUdwP3RoArJ/qhVe5H7psVai/1VQXI+RhUvYpGXoD3D3comjUIp+UnvVfVvF9lpt0bZIxIwOXx2q9pE7/aJInjwp6GuU8S+Er1dUa7hjaRJT2qCztdD1m21RC0JAPZT1q5byZuWjZCMDqa5HwfpF7Beh5o2RV7V2Hnospix8/vVRYihf6zY2LeVIQrMecVbsruzu4zJbruI71wXi21lTWfMMTbW6elXfCDXIvgIAzJn5hRcDr4WtTenchEhqX9xZszlgC3cmnOIzIC6gP6iuG8XXNyt/5e5hFmmSdoix3EnnGXdg9BToow1zIwm4xwprj/AAjfTfbvKUs6Hrmu0EMf2gyR5DY5FAEUCNBMZ5ZQF9KWSN7i5EonwnpXG+J9YuP7RNor7EXqRVvwvqUz3QhkkMi9jQmM6aCF2u2zJ8vpUsSyQ3LSM/ynoKj8gi880SEY/hrkfFmtXUV+LeJ2QdcircgOtczXF2CuNg680BZ/to27fLFc34X1iR5xBcAvv/irpGtmW681HOz+7SixCxfajeOz4WMdKW9knlKrBwB1Nc94k15rec21vw3rTND1qVp1juGyGpX1A3289GyCDjisbVbxmlMZfNbV1blj5sUvAHIrmruM+e5I/Guetsb0CnO204qhcOFbI61clOVOay5yd5ryJyZ6Chcsw30sbA54q/fXTXdooJrBLYwCa17Ta0Aq6cri5bFBgApVutQ4KHJ6Vbuo/nz6VVlOetRNDI55VwB3qtM2Oe1P8vLEmmS/dOelSgK0pxyOhp9peG3mUg4qvK2OO1VXciuym7Gclc9T0XWEvLMRSv26VtJNDBAoRSQfavJNJ1J7aRRvPNegaLraSQYk5IFdqmcVSFjoAtsqGeWIdOBio4rszxPhGCdhis3+3IZJdsiYA4rW8/daF4VDDHStkzAZa+XFEXVDtqWGOC4XzJogD9KYtzixLyqEHpWRP4iTcEjHyjjIqwNhLtSXjSPai8VHYvbo7MkZ3DrSWcwubcyQAFsU6xkdYJPtEYTB60AP/c37ktECo9RSLMsTGG2TaO5rKudfht5WijTIHUir9jeJeW+YgATQA6JYZLjc4+Ze9Kxt7uYxMgK+pplvIxkdXi2hepqndaxa2j+Wgyx7imBooLSybZFCNx74qvOLee8UyZ3D1pdPv7e8+5hnHr1pvnL/AGksbxEH1NIRbnltQoidNxPbFQmysYl84xBT2ovJ7W3ZpZ2AYdBVe01G31AkA5C0AWLp0uYlViAh9Klh8i1tvLX5wfWql7PFC0aFOG6CrMrW8ccbS4UDmmBEmm2RImkhAzzUolj8hljwiCqy6tZyzeSGBB4FT3bQ29uWKZQ0AOs4raFWaHOT1yahksLS6lLNGM9zT7URzWxdRtjqtJqtjC5gVwMdTTAt2otbd2igQBgOtRRQxNcmUPlu4zUkDW3kvPGQwI+9UVgbeUO0PHqxNADbywtL59rLuYdcGlt9OsLFwcAuemacl1YWcrfvUDnrzTo47W8ZJt+4g54NABfKbh0VX2UtxaQzQGOdug61HMLee9QLIcp/CKmmhUTea7kKB92gDJh8LW6kyO/ydcGtNIkitClqAqrxkUs7G8UokmB7UyS3EUCxLL1707AJFEZbd1mbGeM1jv4USWVjFIcHnNbslsRCi+Z1709XVVEUb5YdTRYClpOlW2l5aNt0vc06OG4a5kkZvkPapBAIA7GTLP0ojikW3J83czfpTEZuq6DFeS+YkhSQ9RTdN8M29nOs9w/mMOgNadtA8AZp3yexNLLbSSuspl+Uc4oAbeebI6LbjAzzTbqxW5jMc7AGnxo3nHbNgAdKY6O8m6R9iD9aAMVvByvNvMuIs1sJYw2dkILQ/N61NKfPi2RyYUd6gnhCoirMQ1ADobdjAyXD4yOorDk8KNLO0kc/yk85ro/s4SAB5evc0CREVYkYE9zSAq6LpFvpqsRtaT1pUina7aUP+79Kk8pFLs0uSegotECI7Fyw9KAIb+xjvVKkjfWbD4SjWTzbqX5RztrThjETmWaXHoKdL/pRP7zCigCRyFtVt7MhQOlMa0e4tGS4cbj3qE+Urogl2npVmWLlVEmAOSaYHOnwpNI5zKdhNb2n2NvptsY4AN5HJqWSUOgjiYc9warvHsjx5xLk0XAZZpd+c/2nBjP3TWZrOhzXEu+Bua2/LkW1A8zLHpSwq0KfvHyTRcDnrDwyY5Flvn4ByBW3fPLGY47RQExzTp4pZ50beqoO2abGjPdH94CvYUXAr6jYyXtqBu2tWF/wjmoucZATPXNdOgnadhvBRe1OuJZXjMcLAHpSAq6PpsOl27bCHkI5+tLbfaLkOJVCZPFK0c0VtjeCzdaeY7hbVDHgOaYFRtHfcfm70VdCXGOX5opgXmu0nfybi3VkHcgGoftIhlMNtCFQ9SAAK3vKR+CgGKiNtGHIA6+lc/Kbc5z9rDBbXbuEcNJy3PFST22m6pKY5oFbZ1I4P51pzWp3dN1Z2oCSxhaVLdj3O1SSaloLjTc2doPsUC7PlIqtplvFbzSb5Wxn7hyaradrumz3WyaApP8A7akY/OtaTZ9qUtFww+8tIdyjf+G9I1eQOgKSL1ZTj+VTxxWthaNY2RC8H3OaZc3ttpaMobHmVDp9xp11PmOTdMf4TQMsaTA32IpduJF75rNvfB9ne3JltZtinlh2Na0CwrNLG4KFhjnpUJni02Ha0q/Oe7UmxIligtrKza0tD8yL29abFbHUrTy79QQOKj0+CzlleZbkuzDkDmrSQRPaSCKYhs8cdKEwZzN14Jl+27beVTbnn6V0q2g07SxHa/NJH79adHcCytfLM2ZG7nio7a1chne63bvmxxgVSYEVzpY13TjHdRiMkYx/dNclN4U1OC5EWzfHn5XHpXbTpOttutpg8i9BkYqVJ5o7Yb2VpWoYrkIVtMsI9z7jHw1ZPiHS216yWS1O105AHetZIbqRH8/ac9FzUsstxa2gaNVH+yKZSPNI9N1CO4WLyJPNDcHHSvStOElrp8X2nLMF+fNPFx/o/nNEvm7euKrwTXF1C4mjKpnj3pDuY3jDTpr6JLiy3Mq9UFcnaLKl7GIAyyqwytelpMLOHJjOCcYxQbaxjP2oQKr9c4pECwvm3h+2ABsdTXN+NYLt41kgYmDuFrdu3F/BlgyKD1xViCRI7cRTopiIwNw60wPN9JnktNQjNqzM4OMdc16QgW5hikmUrMw78YqIaXp1m/2xIlVuuPSkvSL2JXjcxgdCKaQXOe8XSSx/IXKhehrG0O9ntb1GWUurnGN2a71rezmtRHdZkyMZaqtp4b03TZjdGQvzlV29KTQ7l0RiZVmz5cg7djXJ+MdRuoLpYFYBeuTXRakXuNhtXWMA5xmn3Wl2eoWwS/ZWlA4IpMRx3hzV7tL1VlkZkc4AruBArTLLHIyv/dJrHsPCVtp94tzJcMyD7qkdK0L4zmdGtWGBwcmhAjE8V61cWUgt4mCM3f1qh4f8R3YuRDdtujc4GDXUarokWsWw89lE6jg8VkaL4OktLsPeSL5S/MuSOaLDOmRRt3xynp0rmfEXiF7CYRRLukIrZvpZIbtPsi7ozwap674cXV4xMg8ucDihgUfDniaW4uBBcDax4Bro1+0i4JB3wtx9K5TQfC19bagJLvaqJz1611FxdPbXKooYxMOcDpTTZMkYuueIotOm8mFQZO4FW/DviSLUMxMmyQ/rVDxN4Xk1OX7ZaZD45QjGaqeFPD99a6kHuo9iJ70XYHVLJMLgxSRrt6hwOuatJWdcamsOofZmVuemFyK0IzkZ9atCZJSikpwpkBilopcUgEopcUuKAG0UuKMUwExRilooAQikp5puKYCUyYZRhTyKa44NAFSL7hqK46Gpohw1QXHQ1L2KRnWJmN6V+Xbz9a1oXuVuD52DF2LCsKyguP7XMyt8igjbWX4q8W3FrffY7YAOOpbioRZ3TSySPtj27e+KrJ5iXm3yeT/FxXO+Edfa+fybt/3h6c1vP9ui1FY4lVrbBJctzVEstmKK4m2XECsq92UUwva2cmIIwn+6Kztd15NOiPmbSxPGKboGsRamG4USehpAWJdsl+rqzbj2puo6dZamywScOOpqYTpHqvkvCxkx97BxRqOoWWnBnmCq7U3oAzTdKsNGm+Tl26U+MyPfs4kAU5+Wm2N1Z348+NvMK9qfCbU3zAgh8ULUChrPh+21SZWR1WXvirWkaLaaOQ7uHkI4FLLLaafI0kjnc3SkjMF3Is5kLkdFFK2oXH7bh78vuURn+HvWf4g8OJqUqSROFlPatO3+ztes3mHcB9ynqsUE7zSSE56D0qgMzw/4cj0ubzriTc46Vo3FzIbrYgyh70b47p1k8zKjsDQFjN2AJOD2osSzI17w7/aMivAcP3qTQvDi2L77p9zdga2MLbTNI8vB6CmOv2plbzsAelFhsZcyyi6CIuY+9Y+pR/viq9/0raaKN7tQJtoH61S1OFRJlayq/Cb0Tmr+Lyo+DzWS4LGuhvowwxisS5iKycV5FSJ6EGVCmDzWrYlSmDWW4YE5q3p784NZ0tGORZuUzWbKvJ9q23TMfvWdcRbTn0raoiIlBsAe5qpMSCU9atz4DEjpUEu11yOtZosy7nK8VUlz1NadwgkQgdRWfLyuB2rqgSyON+hJ4ra0jUGhcB24/nXPPlamt5DwGNa7Gbimz0WALeIGhIya6nTx/Z1gryvvz2rzHR9Va3dQpytd9p2pLd2fID47V0UpHLOnY0dQ/wBM01/s/RhXGQWtzG7ReUSwPpXdJM8Nqnlwrz2FOZohCJGhxKfaulmDK2lD7BpYaYbWJ5p80/2q1Yw9xTLiSR4z5kQYelTxSNHaqYIQB6UkScFLb3K3TBoyzE9q67w7bS29rvnXaewrSBSOLzJIFaRuwpizS7GkePb6A1VgsLI/mxusf3sda4S9t7i3vnMqkhzXb2t1sgdzD0PvUkIjuT5s0C4PTNOwWOf8LW0pujKVKIO+K3jOj3DD5Sw796PtKCXyII2HqQOKihSP7UzeU2R1NSFjlvEvnfbMsW2E8YpNG+0T3qCFWCjqa61vs99KYpIcBO5FOjFvZ3CxWse0t1OKBDpo4y4EiqX7VzvjKd4oEjXPXnFbsiRSXx3lt6+g4pbuOzvh5EsQY+1K4HA2/mSyxiFWMhI6V6HFGkdmi3LKWK9GqpDY2OmFXjjCv2yM0++MM0ifaGPPTAqgINcmFrpjmNBnHGBXngnMhOcmRj0Fep3X2NYlgmy4YdxVCPRdLtmNw0IPORTAb4die10hWuFwGGTuqw7RrYSPbhSGyeKku54JbYiRWEPKhVFLYWsKW+yEExnswoA8xnuX+2StOx6103gY3M00jEN5I9a6E+FbGeYyvCMnmta106G2iMUMaopHanYVzPCQi48xACy1yPibWZTeNArFVFd9Bp8ETMdxJNU7nQtNuH8x4QzHvTsI8602/uI76Py2kZs4xk130kKXMUZmZlcAE4arNpoOn27iSKBQw71fNvH6frVcozj/ABNfyWduscJbce+a5iDULmKYSCVznqOa9Un06ymUeZCGPvVc6Ppy9LVBRYRj2ci6np4UZViOvpUWozPpVjGFDSYGPWujS3trdcxRhPpSSpFIuWUHPrQkM80utS1G5fcqyLn7oGa3PCt5eTK8V0h2r3NdWkEI6Qx7fpQqoudsaD6UcpPMZa2/kTSTbmZSOBXKa1f6hcztFEj7FPbiu/yq/wAIpriPIPljP0o5Q5jz3RLjUob5Q8cnlsed3NdpKiPsyjbqvjyyeEA/CnbhsPy0+ULnLa7e3ajy7eJiQK5zfqyOsixynJ5r0fcP7q0u4f3F/KhQDmMW033diPORo5MetJMJbKybYrM1bfmHtgUhlPQrmq5A5jgbl9TutzOkgX24q94X+3md0njfyx3Ndhvx/wAs1H4U3zTu4VRScRcxmtZBZfNVGP41j67cXrPtihkC+orqzLyKUvn+EUuUdzzy1k1GK+h/cylSecmuvuLTz4oywZW69a0c8/cFKztjtS5Q5jF1G5ktYVKxszY4rnLu+1OT94EZV9Ca7vezdcGnbhj7o/KjlDmOe0Oea7sz58RjZeOasQLJbCUtub0rYU+yigt/sinyhc4vUNUvg7LDCwX6UaNqd896Iri3ba38Vdidp6otNG0HIRQfYUuUOYzr+0eTy2V2CqeRVfVb+4tYAIEbpW4ZQeq9KaSj/ejH5U7Bc4b+2tU/un8qK7jy4P8AnmPyoosFzeowKKDUFDTyaGQMOeaKA/NZlGffaDp90RJLbxiRTkOF5oa1aNAq/Mo6bq0etIVzSaHzWPPPG2kXLsLmFHkjT76DtXOaWZzfxfZFbzQecV7C0ec5Cn2NU00y1hlMscCpIc/NtFZOmy1MpNNEscSX4USEYDetcX40gnhuFcF3gPQqeBXZajpb3bKz5IQ5GOKSV4IrfyLi23qeOeaGi0ef+Hb+aHVYhbneHOCvWvRSAzYQLHKecetUkstL0vF1HCFc8884qC4YXV9FciQogPbIqLAzlPEt7d/bjHIzxKPun1q54N1adLs211uljbpXUaha6ZfRiK7UGQ8giorDQdP0VxMG3N/DntQlqMvtGqRyeQcd8Vw2qa9ePfssTsqx9q6t3m/tBXhZfL7qRVfV/DNrqDebDIIpT/OtG7kpEPhjWmvQbe6ch+oNbkge3ik3tvTqDWZonh6PR5TLczB5TwKvJJM146AbojwKkZzFz4umS4IiQEKcc10eha1/bEBVHVJAMsprF17wdK7G504gMeqVd8M6BJpuZ7o7JH/hpe9cRrSzPFARcgAKc5Nc/ceLoorgp5XmIDjOeK3nkF+JrOVDtPG/FcVqPhbULCfEcZnhYkiqe4aHZ2OppqNgZIFUqP4RU7TQtarJcRgFKyfCGnz2Fq5uVEeTkLV2aZNRhnt0O1uQOKYFF/FGmSTeVIOM4ya1454HshLDEHhz2Neb3umXWnzstxAxXPynFdf4QiuoLBpJgfKPABPShMVjZmFtOqSGPYF5zVCbWNNmlMLzqMHBGadqpN/p0qWT4kxgBa8+mgmt5GjmVhKD1AqWwselstqsCsinyj3FLPDbTBHWQosYz161m+FDOmlk3QYxjpuqxq0azafKbI5OOxp7oQ+e5gvAkRuQirxjPNWGjtII0UysB2YnrXmAaZJ9oZhIDzkmvQ9FkEukRm6UtnjJpR1Y2XJYw8iSrMQg9D1plxMLs+VHOFI6kNVTWEufsZjsVYnoK5dNC1yOQyBWznP3+tXZiO1FusexTcYI7+tJKs4kXy7jEYPPvUGnRzSWSJfx7X6Zqj4mkuLGwJtTuA4pNDNW7ead/wBzIB75p5jlymJgH715zZ6vdRTB/tBYZ+7mu8tHS+sY5t5V8cmkpBJWLTyXcV0ojI2epqS7nuZCPs/zj+KsTxFqUunWuTliwwDXM6Z4pvoJ8StmJj2pcxJ3DQOswlZFdselW4mOBxiobdlngSXeQzDIqVT8tWmJllTT6iQ9KkzVEi0opBThQIAKXFKBS4oAZRTttGDTAbijFLRQAYpuKeaSmAmKY61MBQVoAzYv9Y6+9Q3IABq2Lebzm+XvUM1pO5b5e9JlIwrWWaLUTswUzz7VW8VeFBq5N3asBP6etaf9hXpvBKGxHnkVcOm3sdyJUkJj/u1NiuY5Pwr4U1Cw1FZ735FWusl1Ly7n7OAW3d8Us8d67kANgdaqLDffaeIsj1xQoiuc548065eWO6gjdwPrxVbwdaX0upK5ikjRerV3CrdeYEkiDoOcEZzTbm6mUiO2tljz1wAKOQCaS8hW58uQguBjjrXn/j1pRqCNljH6V20NpK1yJZYCWqzc6bHfII7m0BHqetDjcDhfAtzPLqO2IMqAc+ld6xgaViceZ3INQxafFpwK2NrsJHJqvFpcpvWuW3gntnihRaA4fxPdXEeqlJ2IjHQdq0/CN9Kb0JGGdD154rqNS8P2+poBcRfN3bNP0vRIdIO23h3EjqaOVhdEkqQPceaiBZB1561xXizVZk1H7Mj+Wp612o024kufO3bQf4ag1Pwjb6lIHmTa46kGnysLo5bwxfMb1Yo2aQHrXYyQRmYSg7WXtSaV4bi0mMi2QM57mopdMvJL4P5m1e60WYnJHMeKNTmW88hZMKal8Naqy3SwsTLu61v6p4Sh1Ih3by3Hel0jwnDpjsySbn7E0WYOSHy2qNeeejEbe1VbmbzZSnTFXn0u/wDte9JBsPamXGkyIxlH3j1qZxuXGVjJki3MaqT2gIJwKtk4kIJpGwVrknSOqMzmbyEhznoKhgJjYe9bOowZ5A61kumGweorgkuSR0xfMjYtmDJgmq91EWU8Uyzc7Rz0q4xDjpXR8UTNaM5+5Tbwe/FUWUrJ7Vs38Iy3sc1mTYziua1mbFR1IckdDWbMpV2HrWq5wprOuAfvVtBiKU4+UGmIcVNIMgiq/Rq6bklu2mwa39I1aS1kGG+X0rmEJzkVYjl5xml70dUTKNz1bTde82EkkEjoKRdbm+1Zm4XPFcFpGpNCSCcgV12mPb6kFVnAaumFS5yVIWOmuHmurQPasu484pslzJYaZvn5cdav2toI4I1jcYA5pdS0ZL+HY74U10I5jkrfxHPJMS2Qma6N5pbuw822OTjgGs4+C414E2QO4zW7Z6cLWBIg24KKdmFyjBcPHYE3g2leuKyZ/EyCcRoCYhXS32lJeWrRF9m+sFPBMSMQZ/50rMLmlaXUVxFmHBNLbTyGZwygCl0jQBYEkTbgavtZDLjcMmnYLmBqWvW9nJ5SAM3erelXsV/H5i7fM9KoT+C1nnMzXHX61f0bw3HpkxcTFge3NFmBJbTeZfvE8BXHfFQX2p2Glu7My7z271sy24bcAdp9ay4/DNi9wZ7rMrE8AmiwiPTNQg1RPMVNxHY1Kd7XSp9k6HhsVrW9pbWy7baFUx7VJkHtyKpICq+nrJIHdVLDpT/sKPxIAfbtVkN0oJ4p8orkYtbcDHloakVFQfKFA9jSbj2pc+5q7CE6U3JzQz0zeKLEgp+Y0jdaYX+enMaLDJ4wNlG0YpiH5KUGqJFxzTG6U7PNMJ4pDI2+7UZGalbpTAKpAIy4SkCYXNPPIxSn7uKBEDjihh8oqRl4pGHy0wGIMilbhDQvAoPK0rgQ4pwHvRj2pccdKZJCx+anr96mFTvqVU+agAlPFVwOalnPNR9qABOXqQ1HH9+nE0hhu5pSMimd6cW4osMReKdmmBqN1AC5GaXIpmRRkUWACeaCeKaetKelIAFLTSaTdSAdRTc0UAdAaKQ0VmWRvSKac4qFjg1JRYU0pNQo1S54oAMU1hmnZooAi24qOaNJBh0BqcikGKhq402ihJZQyYEgzjoKrXcDRAMkAZB2rXMYJJqI5TIbkUuUrmMG5a33rcyqq7R3OKoxa7p91MIpn+bdwD0rotT0q31W1aKTIz3HBrz3WfBV/prmW0VriMfdx95fxrKasWmdjJNbxspaH5M/LjpSS+VFcfaXlAixlR2qnoElw2kL9uiJQf3utV/FFrLPp26yztHZetK5ZrW95ZXs5JmDMOgFWla2+0YDbCRjpXlVjczWtwJLclXU8pivSLKVL21hkmXy5gM56UoyFYuRO9vM7tKSnQZ7Ujq13Msv2kBF7ZFcz40vbizVEjLeW3VhWFoWrz2t6u6Vnhc8hjTc7BY9IWICVvKlxkZwKZazTmRjcn5AflWhFjnVZ4gUbrtz2rlvFer3FvcCGLcmejU7isdLKbue4yI18rHc06GN49xVFUj9a5Lw/wCIrhbgQXT7kbjNdesbpMJIZCyOM49KL3Cw+3uRcEm6hVgOORULTPJKYIoWVPYcYrB8Q+ImsnNvbxgyZ5p3h/xI92/kSjY3rRdAbNnAlmJHSLPOTxUqraahGZbi1BIPXFMSWdZyJR+59fWsjVvEqWUphSPcO4WnJIDWNyjhrdI2CDjpTrA2ttESELAk7iaqaRq8WpQkRBInAzg9TVyKZlLpPDtH+71pCIbnSdKv3Fy0IyPUdamVYZ0+z2+VjUY47VnS6nGLlbOIZLNjjtXSWlotvCCEwT1961jEmUhtoixxrH1xVxeevaqhQxyA+pq0p/WtuUy5hTGr9QKrXWnW88RSVRsbqCM5q2KOvWk4oOaxxtx4HtFnMsUjKuc7NorQkgEcCQ2yN8vA+WugI555pMD+4Kn2aK52c5e6R/atp5N1H2wM+tc/D8PJ0ulY3GY89sV6KMZ6U7dS9khcxhTabcRwwx2qhvLAHPFW4dPkCfMMetaWaC3FUoWByKaWYX+Kplt09alHPWnDAp2I5iLyFFGxBUhamnmnYLiAJS4HpQBSiiwXE2+1JgelOyaXNOwrke0elLsFOzRuosFxvlrR5a0u40bjRYLibRRtFLk0ZNFguJRRRRYLhmjNGKMUWC4lGBRRRYLhRRRRYLhzRlqMmjJosFwz60hOaccGmkUWC4Zx0ozilxTStMBd1G80lFADt59aN1NxRipAXrRRRQAE9s01ueDTj600jPNFioyOR1NPLvHx0zUaE4yK0vEcIjlVgPvVmxKfwrmmtTqi9Bk0YdawdQiIfcK6RxgGsu/hyMjvXBWhc6aUjJs9yzAtyDWwpHGOKx1JSXFads4cYbippfysua6kV7CHGR+NYd3EUOa6hkDqQtY9/AVzkfSpqws7jhLQwpeVNUnBbg1qSxcVUaMHgVEWaWMuZcGqbMd+K0bxQoPrWc5xzXXBXJG+YQ2KlVwTiqoO5s04ZU5rawF9JSvQ1o6dqb28gZHKnNYkcmTip+AMg1k4uOwmk9z1nQvEokiVGPzD3rtLa4W4tlZNvNfP9jevCwKsRj3ruvC3ibA8uVsjtk1vTq20Zy1KV9Ueme1FVNKvEu4A4bPoaud67U01dHDKLTsxCKaetSEU3FIkbj3ox7078KPwqgEGcUU6imMjYGozkVKSaac0hke4ik3tmnGgCmFw8w0eYaXaaNppAHmGk8w0u00bTQAxnJpmSTUpSgJTERbeak20u3mnYoAQcUvJpQKdimSRnIpualK0xkoAZmmtihwRTcEikUPXBozimhSKcFJoADzSYp4WgimIYVpNtSAUu2gkhK80Y4qUiozQMiC/NSsp7U8dacOTQBTeM560eWcVcIHpSYHpTuIo+WRSYYVfwv8Ado2L6U7lGfhvSkKt6VoBV/u0FR/douKxn7G9KNrehq/x6UoA9BRcLGaQfRqTDf3TWmV9lpCo/uii4WM/Dehow3oavlR6CmFR6Ci4WKRJHagEelWmQelN8pT2ouBDxRU3lLRQBsUUg5pxrEsY3Iqu45qyahkFIY2M1MDVZTg1KppDJM0hakprUASA5oK5qPdUiNxSAQNg4oYZOaGTjNA6c1QDGGKA2eDzUmN1Rsm2pArXdoLqN48beOgrJhCWYxLE2B+NbwOGzUVxAsqHpWbjc1UrGG2maTNMt75OyTrjtS3ki3iFYgY1HGQKzvEGqXOkXEfmWzSW3dlzWjperRX9r5loi7e6jrWfLYu5MsFpJaiG9IdQMAkc1Ti8JaVbTfatx2nnBPFXJp4prcboljwec1TGt2DStDNMNg+XHap0YXLN60mENljAOMj0qPUdFt9YixO4WUDjHariz2gs8xL+77EUrCF4Y5IH2hep9aq6YrnPad4NmtL9Jpp90SHIBrevJJLeVDbLvU8GkmvI5TsSYAdOtSmHbApEh/Ki6QXMXXvDi6rKLuA7ZwM4NUtF8NX0Ooia4ULGPeukkjuEkQxSDafvEmnXc1zMoSCRCBx1osgI7m7NveJB5e5GGM1z3iHwzcSy/a7M7geWSulWJ1KiRld8evSpAZ47kI+3ywM5Bok0By3hjQ7xLjz5FMQHUGujM++U27KTjoafdzTs+LcAjvip7GyYuJZgAaqMbkydir4f0BbK7kup/mZjlc9q6I8/SmDoKcK6eWxi2RzpnBpU7CknfGBSp2NUQP706m96cKQCGm040lMY2inUnAoGJk0ZNIZAKaZBQIf+NBPvUfmMegpcse1AD91GRTQD3pwUd6BBupMmnbRRtoATmjBp22lpCGbaXaKfxRgUANxRiloxQAmKMUUUAJiinYoxSAQ02nmkIpgMop2KKYDaKKKACiiigoKKKKBBRRRQAlFFFABRRRSAKKKKYBRRRQBl69CHg3dxXPQyHOK6rUIzJEw9q5ho9khGOa56i1Omm9B7/dqjcJuQir3VcVXmHBrlqrQ6IPU5y6QpN1q1a84+brUOpfezikgl2heK5I6SudD1RsxYUAVDeRLIhyKIJA3Wp3CyJkV1zjzRMU7M5m8tmTJHSsqZWRs5rqLqNcFT3rDvbbBPvXnyjys6IS6GDehs5PSs24+UVvXMW5cY6cVj3kXJrroy0GyiGxzTi+RmkK9qAh2103EOjPNWA3FV0XFTKeKTESxuKuWlwY3BDEEVRUinoRms2gPRvCfiJo3jjlbavcetei2l/FOAVYEHoa8Bt7l4iCDxXWeG/EjwSqrtlfet6dS2jOWrSvqevd6SsrR9YivLcYYF/wCVaYOa6k7nE4tbjqKKKZmFFFFMdxhprGnMaYWoC405oBNLmkzTGLuNAJpKcKQwBNLzSingUARc0op5FJimITFLgUUUAJSg0mKMUyR2c0YpBxTutAEUi5qA/KatmopUyKRQ1XBFKtQcqakR6AJM0Gm5oDUgF6UZozQKBCmoyuTUlKBQMhK0g61MwqIigBaQ0UVQCUUUUAKKcBmm0A0BYUrTScU/OaaVzQOwlFFFAhKMD0ooqQGkCkxTyKQimAzC+tFLtopgXkqSokqUVkimJio3FTYpjiqYIpvwafGeKJVqNDg1AyekagHikNACZp6GozSoeaALS8imsKENSYzVEkKtg4px5pWTvTM9qQxsidxTEPGDU4PY1FKnpRYpMiuI4ZIylwivGeoIrEtPDEVndPdadIVjbkx7uM1tnn5TUUE32a5MTfdes5K5SZiXTfaopLXG2XBANefanpt9p8xW5hkJ3cN617FPCjHcAu7+9VKVCjf6RHHInYlQa55QZpe5zPgx7htNdZ0Jj5xn0rWv4ydPkNi2WwflFT+ezzFIotqe3FQ2sZt2diGHcrSsFjzd7i6ilYztLHKD3PWu/wDCt9Nd6ZvvEyq8ZPpVySy0vUxvltwCO+MVIssCI1taIFjAxwKLCsV/EHnLp8kunKzFf4R6d64CPWL+GfcJnbn5kJr0e2WO3DfeZf4twqG50DSb6WO6KBW6/L3pjWgmkXQ1TT1eVDG44BqDxVfTaTYFky4OBurRka38g29sQuBj5aILaO4t2tbnEynH3qfLcGYfgE3OpO8s9xujHPeu4KhQAKqaPplvpcPlWqBdx5q/IldEFYwk7keakSo6kStjMhueWFPjySBUVx98VKnQYpjJcAGgnApgJJ5pHbA5pAPGKa7hOpqImR+F4pVg7uc0ABlz90UgR261MAq9BS9aBEQiWniNKdxRkUCAKopQBTaOaAFOKTFFLSAMUuKWimAlFFFIAooooAWim0UxhRRRSAKKKKACiiigBKaadTTSASiiiqGFFFFABRRRQIKKKKAEpRQKWgBKKQ0Uhi0UlFMAooopCGyAMhFc7qUHlzEgcGuk2571n6lbiRCQOaznqjWm7M545BqGY1amXb26VSnbiuObOuKMrUoxgkVWgwQM1cvwRGazFJHSuP7R0rY2LcKMd6tKM8dKzLdmwvatGFuneu2OpzS0ZHcQLy1YuoxbjXRSgY6Vk6jtbKgVzVo2NabOYuI5A3HIqlc24deOtbUsbJnvVGfb3rCM7HS1c5+eAo3Sos9q2LyIMvHWsaVSrV2wlzIgM4NOzVaVytNWWt0rgXQeKcpqukoIpwk5rNxAtB6likZTuBxVMPnpUiPWbiKx1/hzXXtZVBfANep6Tq8NxCoLDOK8FimMZBHSt3SdemtGUhjitIVXDRmE6PMe4rLGwzkUodW4BrzS28XuNoZs5rRtvFSncWP610KvE5nQZ3RcbevFBZegNcafE8YiC7uTS/8ACTRrGCW5PvV+2j3I9jLsdcSPWmkrv61zcfiOJo8lqjj8SxNNjdR7aPcPYy7HTmkrE/thGTcG78VfS/iVG3H3qlNMh02i9jilAwKggm3oGHQ1Z/h/GqJEJ6U8Hio2PNPXpTAWiiimSLijFNzRmgBxoFJmimAtFFFAhpNJQ1IKQEUy5qEfKat4yKglTB4oKFUg07FRA4p4bikIdSimg5NPFACUtJRQMCabSmm0AOpMUUVQDTRTjTSKAFppFLS0ANHFOBpppKAHkU00AmjNACE0lKaTNAC5pKTNLSASilooAtrUi1GKetZopklNNLSGqYIhkXNVmGDVwiq8wxUDEU8UtRIeakNAAaFpKVaQE8ZqUGoUqZaZIp6VHjmpDTcVYxuaM0Yo21IiGWPPIqjexmSEsvEidK1MVXuU4OKmSKTILCYXVmv98dalfEi7D90dKzNPc218Y26SdKvyMVYgdO9ZmhSkjeK4+Vv3XrTZHkLsp5QjrVt2zHz09KpSNIkm1EJQ1k0UjndV8VW2lTeQi+Yy/fC1o+HPEFpqistttSQ9RjmsXxR4LnvZTfaf/rGOXQ1F4O8M32n6gLi83RLx+NAzshJvMsM0W1R39ayL/wASabp7/ZmbG0YwO1aj6lD9qNpKrbmHD1wPi7whfi+e7sQ08chJI6kfnRYDu9KvLG8gE1th/WtiwhTdv2Vwnw60DUILky3GYYf7jd69ICeWOK1pprciTJGAHIFNY7xkdqTzO3rUStsfB6GuhGDHk05WprCm9KYxJVy2aej9qiUkn2pw68UxEjP2HWkCHOWpyAYyetK2SRSAcAAOKBRjFKKCRKKKKBiUUUUCFxSYpc0maAFoooqgCiiikMWiiipEFFFFACUUUUDCiiigBTTe9ONNNAC02ikoAKQ0tIaAClpKWmMO9LSd6WgAxRijFGKAEooooASiiigBKKSipAWikoqgENHWimzOqQtUt2EEsnl96wtZ1lYEO3tUOrX7RPuSX2IrktU1DzWKk9TXHWrKOx1UqLerLt3rJkJKnNUf7WYghqy2mAJANMG5ua8+VXmO9QsaMuol1xVdZmY9Kqk7etOFyqCoUrsuxq28vTccVet5lzxxXPRXyl8GrsVwOqnNdUZmE4m4zkrxVOePd1FNt7oMQDVg/OeKmb5girGPcxH5hWVeW/ycDmukuIwGxisq7Xbu4rm5TdMw2XA2nrWXdRFdxI61rMwMxB61Ddw7l5Fb05WKaOeuFquwwK0rqLFZs/ymu+m7kAmcVIj+tMRhtpoOWq2gLMclWI2zVRABUyNis2gLQapUbgVULVLE1YyiMvRyFT1qzFdEd6zN5z1qVGNYyVh2NqO7LDrUxmLCsiKQAdatRTdqwlcLFtp224DGkgnZWzmogwNBIFTdjsaUWoSqw+Y4FXbfWHe5AkY7R71z4l5xU0Mh3citFNrqRKmmegafrQ3LuYLGP9qtq31WN/mLYXtXlyzMnIP4Vch1aVXHLBfSuiGKa3OeWHvsekx3gmuSAflFaEb5QEV59Y61sHX5jXUWOpB4l+btXbGvGRyypWNzOaWoYJRKgIqWulO5ztWCiiimIKKKKAFooopgDCmGpM0xqYhAaGXIpKUGgoruuKZyKtMoIqF1wagYiGpM1F0pQaAJM0uajzS5oEOoxTQacKAEpKdijFACUvakozQA3vRS4oxQA2ilIpuaAFNNoooAMUlLuozQAlFFFBItFFFMZaFPWoxT1rNFklKKb6U4VRI09ahlXNTsKYwyKQ0UWGDT1PFLMOajFSaEgNLTRS5pCJY2qZTVdKnU1RI/NLTaUGmAUUUUANoIB60GikBh6vH5Uizr1Q5q00gmhSZO45qbUrfzoW47Vk6NPh5LV+x4rB6M0RbdwEAAq7a7TGCVFZ8uQTkUttck5AU8VMjQ11CHqtBjiPWOqaSv/can+e391qUTPUme0tpGy0QzTlt0Bxt4qD7QQfu1JBON3JNXEnUnACngYpXbimyHnIpjHiuroSNY/NSS8ikNOAzUjI4ps/Kx5qUtuGB1qtPGQ25anhPyjPWmIcowuKeowtIOTTz6UyRUHFOA6UDpSjqKYC4pDT6aaCRtFOxRikA3FGKdikoASiiigBaKKKBhRmkooAKWkpwpCEpaKSgAooopDCiiigAzSUUlUAUlLSUAKaaacab3oAKcKSnAUDEFBpaa1SSLRSUUxhRiikJoEIaaWoJptAx2aUU0UuaBi0Uds1n6jq1tZR7nNKUlFXY0ruxdd1QFmOAPWsTXdct4bdkU5rldb8VzXTMkJIX2rn5ZZpzhnIB55rgqYnojup4fuX9R1Yy5wayZJWkOacyqgy5BqNnQ/cNcEnzHZGHKhV5PNNZyGp6DJzUVx1rOxY2afjrVNrrJxmm3Um1SKzTMQ2a2hTEaqSjOc1etJ+2a5+Ock9a0rOTOOa05bGbRvQylTkHitC3vNxAHWsiE5AAqZX8o5XrVJGbNeVjj1qheAbcmrNrMJI8N1qG6iI5bpWNRFRZgXUQVg461XVi5YZ4rVuURs/LWbKPLJUDrUROgzb6MDJrKliB5rbuE3jGKozRAAjFd1OVjJmI52PjtTgQec0+eLdkVW2leDXatUIspJU8T7mxVAMRU9u3z1LAvbvmAqxuCriqO798DT5JcuAKzcSi0hyamVuKqo2BT0bNZSiMtIeatK+BVCNqeJeawlEDSjk4p+7JqlHJU8b81k4lk4HNTIcVCGFPVqzaAm3HdT1Y5pi4qQYrOwyaJsMD3rWs9UkjcDOfY1ihvXpTlc+aCOgq41HExnT5j0fTdYiS3GX+c8mrlvqnnzHkbD3rzeK9kQ8HINa2makUdEIO3qa76WKOOdE9Bjn3sFWp6522viZBk54FaK3Wzbuf5mrvjUUkckoNGlmkqON96gipKszFopKTNUA6jFIvNPxTAYRSU81G3FABmmPS5obpUlEWeaQjNI3WlB4oActO20wcGpAeKAGFcUA4p/WjbQA3fRnNBSkIxQA6imZNG6gB9GaZvpQ1ADqaRTs000ANxSUuaKAEopcUYoJEooooGFFFFAFgVItRCpEqEUSCnCminCqJEPSm9qcaTtQwRXlXiq561bcZFV2XBqWaIYDxSimg/NinKakCRalU1CGqRDVEkwpRTVPFOFMB1FFFACUUUUADgbSfSub1O2a1v0uIxgNycV0fXNV7uFbiIqR9KzkhqVjPumBUY7rmsi1vHhnb61pahmFR7DFYIYlmb0NcdWXKdMPeOli1Rin3KlTUeOVrFt5cpU6nNOEhOJrDUUJ5SnNfQkcx/pWSDzSs3Fa3JsbEV3ER6VIrJJ91xWIG4oSRlPGatTIsbMiMOhzUZkK8Gs9L1x96pI7kSNg1opXE0X0+cZqTG0ZpIVwuKdLwuK0MhYjmlU5emRcUqfepgTA80oPIpq9KVaYEmaTNJmkoEOoptLQAUUUUhCUUUUAGaKSigYtFFLQAUtFJSEKabS0lABRRRSGFFFFABRSUVQC4oxSUUAFJ3paSgBaXNNooGFFFFIQUhNBNNJoAUtSGkozQAmKMUopaChtLlV+8ar3l3FaLulKrXE6/4gkkmdbdiEzWNSqoK5rCm2bHiLxMltGYYCC/I47Vwl5fXF25aVyR6VHcS+ZKZHOSaqzXKg4FeVUqubO6nSUCUyRJzt5qpcXg/hHNVbu6PQdKqK/mHrUKJ0IsvcM5qa25PNVIlyatwKQ1Eii2PkU4qGVtzCpwPl5qOVOVNZp6lGRe5DYNZrtg4rZ1CLdkjtWFJ8rnNdlIb2BnKng4NT2d9iTaTg1RaTOTVKSQpJkGup07mEmd9p1yGA3HNXy5z0wD0rjtMv8Moz9PeurinWe3A6NWcoWMmyxbS+XN1rYbE0K+tZ2g6Jea1IFiVlXPLn5a9G0bwrbWEQ+0ETP701h3JGUqygedTafczZ8mFmqNfC+rTnK2rV7JFbRRrtjiRVHYVIEA7LWkMC+5h9dseH3XhbV4c5tWNYt7pl9Gp3WrjHXivoooD1UGo5bS3mQpLAjKeuRWywTXUPriZ8vTw8lcYYVRliIPIr6L1b4faLfhmiiEEh/iUZrzPxf8AD+/0otNFH58I6MOT+QodOUNDeFeMzzsxnNOUbDV1IgWNVbgbWNI3FV8nNKpzJk1Ujk+fFTSNtTNVYoutIMcU5HwKzIpixqz520VnKI7l2NzmplIqjFLmrCtmsZRGXI3qeJ+aoqeKmhbmsZRLL4ep42zVHdUscmKwlEZoKakHSqscmRU6PmsWhoniGaf5Z7UkAqYdawYhI1qdJPL6UzHpQFNTzEGhFqLphtxrQtdTkmnVi30FYOMVLaSGOTcOoNdlGs46GE6aep6Hp9wTgu+1cfrWl5oxXGWeo7SgY8963bK9M2GYkr2GK9enU5kcc6djaByM0VHE+R0p+c10JnO1YcvFPzTO1ANBI4mom5pxNJQAzFKTxSE0uMigoiPJpCKcwwaSgBtSA0gWjHNADhTqYOKUGgB1GKM0UANK0hSn0UARFaTFSkUmKAI8kUhapCKaVoAZS0YpKCR2aKbmjNAhaKKKBhRRRQBPT1plOWs0aMlFPHSmCnjpVIlgaQ9KKD0piIzUE3Sp2qKQZFBRTJ+f8acp5pHXDfjSL1qCiYHinrUa9KlWgkkU04GmCnCmMkBpc00UtNEimkNL2ppoGFNNONNPNIVjH1/ctm0iruxXMwsSM+tdvcRLKjRuPlYYrj7+2NldMh+7ng1wYiJ10SzanjFXE6VnWjc1oxc8VFN6FyHZpc05YzSP8tbGYgNKKaKcKoQxuKtaXDvnDkcCqzitfS4tkOT1NVDcmRaAyaCN1POAMUBO9dRzkfQUKcU5hzTSMVQD1NOzTAOKcKAFpaKKAClpKKAFpM0ZozQIKM0lFADhRQKKQAKDSiigAooopAFFFFAgooooGJRRRRYBKKKKYBRRRQAUUUUANNFBooGJRmig0AGeKiOc1J2puOaQwUd6UjjNKo5zQ3r2qQsJWfqmrQWUfzOu6q+ta5DZW8gGGbpXnd5fyXkx8wnaOQK5auI5NjppUb6sta3rNxfXLEMQgPA9RWVLOq8k0y7uVQcVl3VzlK87mcz0IwUSa5uAXyDVOWXcc5qB5MpnFCHKZxVKJQSNketJCuM4705cDkipQvzLgda0HYdCu11z3q7FjdiqZ3Ek/wB2rMBBIYnGawmUXdu8U2RflxTo2wcU4ctWAynNEGA/Wsi+sCZCVHFbbkiRvSkdAV5Fb052KXY4y9tnQEqPrWVOea7S9gG1xiuX1G0KMSBxXqUaia1OaaI7GfadvpXf+Abc6zqcdqWwP4j7V5spMTZHX+dewfAq181p70j5l+VfyroVNSepw1J8qPWbCzhsIVgt1CBByfWrBbNMJJ60CuyMUkedObZKppc0wGlBrRGY7NOHNR5+epohlsUCE6UyVEmjKSKGU+tZ+maqb3U7q02bVgAIPrmtPioauWm1qjyP4j+B/sqPqWlR5Q5MiqvSvKLgfIcjmvq+eNJoHilUMjjBBr53+I2hf2HrMkQU+XIS4P15rjnGz0PUw9XnVmcSvElLMxPFO43cVHKwzxSR0OQ6HipGbJqurGpU5NDQlItxcCp0kxVZWAWnI2ayaNVItxyEmrEb4NUo35qwpJrJo0TLRl54qaNjVDdtbmrcLgrWE4lplxW4xU8EmDzVMHilVzmsHEs3IX4qdTWbaygjrV2N81yziIsqakXpVdTipA1Ykj3pI+DSFqF60XJLkEmGBrfsNR8sbs7W6AVy+4r0qWKdlIZjXXSrtaGM4XO4t9SG0Rq2526n0rWhkAG1csx6muE0u9VXyT8x711NnqCou1WB/vH0r1adZM4p07G2G+XmgdKoQ3fnsNn3R+tW1fPtXUmmc7jYeaKOtFMkYRRmnGmHrSGIRTDUh6Uw0AIrY4qTHeosc5qRWzTAWiiigApaSloAM0ZpDRQAtJRRQAUGiigBhFNNSGmkUCI6SnkU0igQUUlGaAHUUyigC1T1qOnrWaNGSinioxT1qkSxaDSmkpkjGFMYcVMRxTGHFA0Uphhqgz81WpxzVQj5qg0JkPFTKarpUy0EkoNKDTBThTGSA0oNMBpwNCJHUUUUxiUUUUCGutY3iCy8+3Mij5lrZzUcihgQehrKpDmRrGVmcZYybnC/xdMV0thZdGamW2kwRXbSgdecVrx4UcDFcsKfKaSncxtSm8iVUWm7RNHuXrVXVpd18w7Cp9MJKVYyPBU4NOAIqe6gb7wFVvmpiJYEMsoUVvQpsQKO1Z2lxgZkIrSVxWtOPUxmx6pzTyMCmB6C2a6DIa3WmkVJjIoApjGAcUop+KQigAoopDQIKKKKACilxRUgGKMUUtAAKKBRQAopaBS0AJRRRQAlFOooENooooGJRTsUYoAbRTsUUANxRijNGaYCGkpT0ppoKFppNBNIaACiiigBBTqTvUdzcJbpukOBUykoq7KSu7D5H2QszVzeveIkhg8qFst3NZ/iHXyzSRQswUjHFchcXOctKTurz62IdrROynRW7Jru6kuCWlY/Ssq6nwMLxSXNwWHHFUZJdw561wNOTuzsSSHTTb2xVSZ8vtxT5dwAZeaaELfOwrVRsUR+1PXgYpWj4BqRYvmBpgkNA+XpT0OSpPapRH8pAFEiYQAVNy7DCcOV/vVMFwyrmqnPmA1biILAtUSGaMXK8U4jJwtVo2bdx0NWIgVbnqaxkMbJGQRSOMACppM8Zpki9KlEmXeJkmse9t98Rrcux1rPkGUOa9Cg7GUjk7qBkJBH0Ne6/BrTzZ+HhN/z2ww/KvIp4FkkVcfecD8zXvfg23+xeHLSHpiMV7NF3R5eI0Og3Uoaq4anq1daOBk4anA1CDT1OaYiUdc1fhwdprPXqRV2zOQAaAOT8HDzNT1Kb0Yr+TGukJ5pkdjbac0htxjzDuf6nmlzUsbHV5j8b9O87TIbtV5QkMa9Kd8CuM+Kh3+FZvbH86yqLQ6MO/fPnckBTioFyW5qxKnltg1E2O1YI9JgABUisBUWTTC2KpolMt78ilV8VXjfNPLYrNopSLMcuDVyKQkVnRcmr6MqJWbRsmPkk5qzbPlazi/mNV+DCIKwkjVMth6fu4qqJMmpC/FYOJoXLeQg1p20mRWJE9aFpJmuacRGsGzTg2KrRviplOa5XEROOaeoxUaHFPzmoaJHjHehuRxTVUtT9u3rQIdHJ5QBHWrMV/LJIqOTt9RVJyHGBzT0PlcDrW8KjiRKCZ1umXUjKFUbVXvXQ28qFBvb5q4m3vCoESn0ya3rK4jVAxPToT0FerSqXW5xTp2OhjII44pwyKpWs3mAbjj+lXCw6V2xdzlkrA9MxUmMimkUxDKRhT8UmKAGGhaRqQGgCXNLTAacKYDsUUlFAAaSg0lADqKKKAEooooAKTGaWigBhFIRUhFJigRERTDUxWmFaAGUU7bRQBYFKKQUoqC2SLTxUY61IKYmPBpDSClIpkB2pG6Uvamt0oAgmHFU5Bg1ekGRVOcVEjVbDENTKagSpkqQJR0pwpi08VQhaUGkooEPBpwpgp2aYxaKTNLQA0imtTyKaRQBD3zU4b5D9KiIqvevMkL+UuWxWMxo5+8ffeSntmrenS7IzWTvfe3mcOTyKuQPhMVmjY1Be7jhjSSpkbl71TWIsQRV+D7u1qoB+ny4BQ/hWijcVjuDDLuHStC3lDqK2gZSRdVqcKjWpVFamIUooxSgUAFIRT8U00ANooNFMBKcKBSgVIBRRRSAUUUCigBaKKKYBRRRQAUUlFAC0UlFABRRRQA6im0UEi0UnNJmgoQ0hoJpDTAC3FRg804jimqOaCh1GKUU4DipAYBS4pcc0HpTJEd1jQuw+5zXC+I9Ya4mKq20KegrR8SavJCzRxt7YrjLmQu5Y9+a8vE4h7I76NK+rIbqb5yzGs26l3Gpbxyx4qk4JFcOrO+MbDZDwKhXDE7uKl9M1DKCxO2tIiA4AIpisTkCjaSMDrT4Y8NmtGwGHLjnqKswrkAmkeMMu5etSxrhRmobLQfdHNMbaRzTnwTUTnnAqShoAb61PEgzioACGzV6JF2/WlICWKMpgN0PSrGw7d3cU2Ab1w/bpVlF9e9c0pDGMAyDPWo5FxHzTnGGwaRkYjnpQmIy7oEA1QlXKGti6hJXpWZcxMFrspTM5Ix5+xDbSrZr1z4c62L/AEWOJ2zJCAv4V5PNETnIrT8G6m2j6qoLERSHBr18PUPOrwue5LJ71KslZdrcrJCJFIIYZqzHMpHWvTTueY1Yvh6mjOazVmGatwSZpiLy8HNTQvtNVUfNSoaBEkj7mOahkODkU5xnpVa6k2JmkwEeXFcB8WdUSDR1tz1kb9K6mW8X7xYBe5rxv4gaudW1XYjZhi4H9a56ktDtw0HzXOSkiEzkmo5INi9Kn2kSHHSnSnKYrm5j0jMkFQuKtSjFV3NaxdznkNQ4NPc5FMGKeSMUSRCZJA2KnaQ461BHT254rNo6ISLNqNzCtXaAgrNskIINaAPHNc8zoQoXFKc4oL00nNZGlyWHOavwMQKz4iRVuN+Kxmh3L8cpNW4pM1nRPVmB8muWSEX1kqdDVRDk1ZUjFYSQicPt6UjOWqIHJqZMYqAEVKRxjpTi3PFIVJqgHwTYPJ6dTWhb3xPy5+X+dY8oAHJxRDKFPJ47VvTqNMzlG52FjqEjN5cfIPWuisI3wGkbHpXH6XMiorjg10lndiXBLcCvWp1LnBVpm0tNPWo45t2No+Wpe1dKZzWG0UUVQhrDimLUhHFM70xC0qUAUqigB+aSikoGBpKDR3oAWiiigAooooAKKKKACiiigANNNONNNACUUUUASUoooFQUx4p4qMU8UxMkWnGmrSseKZAhpG6UZoPSgBhGap3C1exVadeTUyNIlIcGpVNQvw9PU8VAywhqQVCh6VMOlUIKKKKBDgaUGm0tAx1OFMFPFMBD1pDSmkoAjI5pjng1M44qCQ9azkhowNYs1D+fGPqKrWnz4rcudm0hhwwway7WILebR92srGy2L0MeMAdasqm0cdakjjCjirEcQNXEmUirLAZYunIplrFKD04FaqxADig4XgCtEjJsbGPlGanQcVEgqZelamYtFJRQApppp1NNACUmKdilxQAgpaKSkAUUUUgFFFAooAKKKKACiiimAUUUUAFFFFABRRRQAmaN1JikxQIXeD3xS4z71GYx2pPLbs2KBjnX0pmGHrUb/aY+Y9rj06VF9u8v/j5Qxn160yi1ux96lGKZFLHMuY2Vge3ekdJI/mX5gOooAlHNKMj7x4qLczrujHTqKdvEq5H3h1FIB+aztavBa2pwfnYce1XicLmuP8SXvnMUU8DisK0+WOhtSp8zuc/qdyZ5y5OeeayriTLZHardww3FfzqhK68+1eDOTk7nqRjZFWRutQt0qaR1PNQPIDxWkDUYai6Mal3joaj2/PmtUJoROGyaehwxPrTF+8QaVeOabFYlVguaN579KMbsGonJ3baloZIWBFRsQabuwOajLAng0kUWowCM1cgjwOe9UrRSzD0rWhT5cGs6gEsEfSpSnNNiyDins3zVzMY1kGeRn3puCG9R6VO2Cvy0ipgUgIJU3KeKzbiEknitg56VXnjwM1cJ2IZzs9uVB4rPeMbs9CP0robiIkGs6a3AOcV6FKrYxnC513gnXBcQLaXD4lXgZ711cdxjvXj6b4JlkibawPWu10LxNBOBBdnZL0DHvXr0a/c82rQ6o6w3WOlW9Pvd77c1kbldQyvvB6nNMsJjHfj+7mu2MrnHKNjtoDkVZFU7Vsop9RVtasgCea5/xDfrHMsKH5j1rau5BFCzngKCTXkfizxbEs8wtm8yVsqCP4ayqS5TWlDmkJ4z8UpZwtZ2z5kfhiP4a84knLMSeSefzqWTNxO0szlmb3qtNGA/DVxSnc9eFNR2Hp1pJpOwpFG0UxuTzUmhDMARVOQc1bnOBVNzk1rE55DGOKljXcKbszVy3i4FW2RGIRxYj3Y6UkSb5BmpbqQJHsHU1LpcBHzPWMnY3jEuQxbEpHbnAqV27CmBOcmuZu5uhMEChW5p7g7agAO6kMux81OoxVOIkVaDHFYzHcsxGrcPFUITVyI1zyRRcRqsI2apLmpUJrCSAuhhShz0qCLJqTcAayETKO9DT7eKiLnFMxuPNMAkZpOT0qNDsbJ6U+RgtVpm3fd604gaMd8wYAH6DtW9pl67Y2kvjsK4yNipGa3dNvNhG9/l7D/69dtOdtDGpTuegWM5wNzAeo9K04mEn3TkCuQ0u7Eny58uJOpJzmujsruOYDy2+UcZ9a9KEro8+dOxobaa3FKrZ6Ujc1uYCdqiPWph0qBz81MRKnSlHWkj6Uo60AOpKKSgYGkoooAWiiigBaKKKAEooooAKKSjNABRRRQAlFLRQBLRTc0E1mUOFPFRA09TVICRaU01DT+1UZiYoPSloPSgBO1V5RwasGoZBxUsuJmTDElPTpRcjDUyM1n1LRaToKmFQx9BUy9KaExwopQKCKZI2iiikMcKcDUYpwNMB3eigUUwEeq8nSrD1XfpUMaM69OAKq2qn7QrY4NTXYLy7R3q/a2gWFcjmoLLCAE8VZVdoqGGMp1qbvWsUZtjs03vQTSrVmY5BT6aKcKACilpKACm040lAAKWkozQAtJRmigAooooAUUUCikAUUUUAFFFFACUUuKKYBRRRQAlJSmkoASiiigA/Cj8KPxo/GgApGUMMMAR70tHFAFF9OQNvtMwN/sd/wA6BdS2zbbtC6D+NRV2gqHGHXcKY7kAKlvPtW3eqDvQZEdftMHXo61UubOW2fzbZ/3f93vmqkd59mV3kYbWOD6CplKyuUld2JdR1EwW74P3h+VcZez5YseSa0dVuPNmbDfuzWNc5yPTtXj4qpJ7Ho0oWRQuT87NWfIcgmtCUFiRWfcHYCMVxROxFK4fK7cc1WYOD15q053KTjmmHZgN/FXTEZAAzAe3WibcMEDANSbxnA60ssoZUBXvTbAjj7GpEK8gnrTWQ4JWk8ogBjQBJAxDHPSmt8zE96kUYXB70w9wKAECbutIsHzcUz5s1YtlYmkxlu2iUAA9avxBhwelRW8QwCetXUibGT0rknK4Ea4Q5qRXR/rSsgB4FEaqW9KxGAHPFPxj61IUXoOtMdWUcUANkGG4qKVcrmpl5HNRng4NJMkpSR5WqU8JJrYkj+Xiq0kQxnFdEJBYwbiEjNUJ/kreuYs54rEvU5Nd1KbZlKF7i2utX1qdsNw6r6V1HhjXbi91KGCX5/euHbINdX8L4PtPiBfROa9OhJtnFWppRue22i7UUegq2pqvCMCpQetemeScx8TdSk07w1P5TYeQYFfPwkkmLErk55bvXsPxkumkEVtGe/I+oryyGEJnPevOxFXWx6uFpq12UxG68jJpigs/zVtxxAISRWbOoExwK5lI7SIqNtQNVxoztqvKuRWqZLKM5zVY9atyrhsGovLHNbowkhIU3mrLSLGMUy1G0E1CwMspoYJEsML3U+7sK2EiKoFU9KpWv7iMVbifd0Nc02bwRKFFB68UxnAFJCS7ViWTkAimCPJqwI+KTZzxSuMRY6lC0KCOtLWUmMljHFSI201ChqQYqGUWlkzUisTVZDU8bVhJAW42YCpY9rHJ5NVo8noalQ4NYtElggdAKRgAPl600SnotKWBHoaVgInIHXk1XKktk8CpW4PqailDEc8CqSGRORv4GadG7B/vYqNyE701SW6DNaFG9YXWVCzSbU7j1rpdM1HKhYl2ovQ+tcPaBRJ+959q6PTbtQBHCMn37V2UqjOSrE7qwudy/Mfwq6sgLcjj1rA069WIfvpE3ela1vdrMcRj5fWvRjK5wShYuY54qCUfNUu/DYpkvBzWpiOjpQfmpkZpR96gol7UlL2pKBDTRQaKAAU4U0U4UALRTaKACg0UGgBhoFKaKAHUU2igBaKKKADNGabRWZQ4GnqaiFPWqQEyGpO1RJUwHFUZhQelLjigjigBpqN+lS44NRSdDUsqJn3QyagjPNWJ+9Vo/v1m9zRFyPtVhOlV4+1WUHFNAx4FBFOApCKZJEaKU9aSkAU4U2nCmA4UUUUwEk6VTmbCmrMrVl3cuCRWbKiMtnX7YC54rZ4PK1y3mNv+U10Wnkm1Uv1pRBlkdKKKK3RmLT1FNUVIBQSLSikooAXNJmikNIBc0lJS0wFoxRSZoAXFGKTNLmgAooooAKKKKACiiigAooooAKM0lFABRmkooAKKKKACiiigAooooASiiigBNp7Gk/eDoM07Io3cdaAsQtOGyoIB75rlNbl3iRIvvA1qavMBuKna46muanneMF3+ZT37/jXHVqW0OunTKDzbEMg5UcMncGolnSUHA7cVLcwF1+0wHnoR2NZwco3A28/Mv+FedUVzuirDplwcisq6bqGPStWb5gSpzWdcqDnK9K54myMqWcqBj1qB7jduOOBVuaFSMnvUawJ8ynuK6olEUMqMMnrVhFM2Ao6UyO2UAYHWrUIWBSD989KUmA1jtRRjnvRINylh0onOcEdR1pRzHgdDUgRq2RjtSY44pH+TiiNt2aAEUc1bs/vVWA5qxacNzSnsUa9su4Yq2oZV2jpVa3dfL461ZifI964pCFBypBHNRbCOe9TEZ5xzSHgc9akY6LBXnrUbkg08Ahd2KaGDdaAGkfLmom5NTsNuR2FRdQfapsAm/Iwaib5hgU5xgVGTtYCqTArzxZFZV3bZJ4rbkxVCT5nIrppTsyTnp4ME8V3fwb0/5ri5I6DaD9DXM3FuJOnWvUPh5p/2TRlIGN5JNe5g3zO55+Ldo2Osj5QVIpCcnoKYPlQfnVfVbgW1hNKTjC16knZXPJirux5t44mW71V93IU4rkLi2Qk+WK1r26824lkd8qWP3vrWTczhZOCD/u18/Vk3M9ulDliipKzJlTVPcMknrUl1M0kmBUHlEZcnitIo0GyyljgCqszFTT5GAk61DcgMM7q6IIhlWZsvmkU5qNzzSI2DXQjK5YHCEU2PCZNR7yTipEUucUMLk8bM445q/b5WLDDFQ2sKqAelWywYhVGa5pM2iMjTceRVqNAg4FQSkx9KYtwTwTWVjQvBgaUZqtHIPWplfd0qGhjyDTRkUFyKQHJqGhkqDNSgVCH2ipI3yealoZZjAxUqkA1WL46U5CTWTQF1GU9TT8g9DVVTUgyelZtCJml28Dk0sbMx54pilUHTJpTIxPyjmosBNKVUc9aqOxY8dKm2MwzLwKglcA4jFUkMjdQOvNND7enFI+fXFR859a1GWY8nlj0q9aXW1h820j071lhmxjtVqzCg5fmlqtUJpM6SxnZwoQ5Pc5ya62wukjhVVbc46nGAK4e0vILch1TntuPNbljfPPh2+SIdgOtdlGocVWB2FrLvyzEM1SyNuFZNndoqKsKMXbua0VOAu/lq9BSucM42JozS7vmpsdKB81UQSilFIKUUDEooooAKKKKAEoooFAC0lLSUAGKSnUhoASiiigkKKSigBBThTacKg0EqVKiqVKaAkSp16VClTL0pkCE8UA0NTRQArHg1C/SpCetMagaKN0KqJw9XboVR6PWb3NFsX4ugq1H0qrF0FWo+lCEyQUGlFIaokiYUypWqI9aBjlp1MU07PFIAJppbFGarzvigBlzLg1lXknfNTXU+OM1nysTzWTNIqxY0u3+0Xa5+6OtdIMZwBwOlZuhQ+XCZCOtaYHH8q0giJPUBThTQDT0HNamY8ClpaKQhM0uaSkoAXNL1ptKtAC0UGgGgApppaQ0AFKKSigAooooAKKKKAHUZptFADs0ZptFAC0lFFABRRRQAUUUUFCUUUUCFFIxpTTGNAxc00mkzSE0CHHtVW7uPJ+btU6+hrnfEl/5R8pTyawqz5UbU43dylqN2bi4IB4qtIh/D0qjBI3n5PIq68pK57eteW5OUj0UrFS4BgZGhG6IjDL6GsnU1YqVcY7oRxWxcDAWRThscisvUZg45i/Gib0KRSs2PlYkOKkkClTxkVQM5jfHUVaW53pwMCuU2KdxCCNuPeoFjAbPar3ll2LelMdAq4I4rWLAp7hlm7rxUnVNy9hzUTq4cjHyGnbio6fKaZQIyMDnqacOBgdqTCbQQKaJPnIHAoQDSA2SajXrwMVIw54NMOQeaq4EqrU9uo3/N0qvGw6DrVmNDwaiT0KNKDb2q0oOcrVG3bFXYTuPy1ySWoEw5XHRqawaM/N8xp8kbD5hzTMsxyxwaViSSN88P0psiYPy9KRWGcOPxqTbleDx60WAgkcgbSOKhJ+UkVPIpxgmoZML0pNFDQB1NQSnLcU9pMcetQzZ4UHk0IAbJBzVXbnNTgFMh6ryvtUla1jqJi20BluFUclmAr13RovIsYYgMYUZ/KvLfC4e41aJf9oV67aphBx0Ar6PL4Wjc8bGS96xaHSuZ+IN+lpoMyMcFsha6UV5d8aNTWJYrZT1OTXbWXus5aEbyPOJLqQ5/ebgTUZkOMljn61Se4RlwhIJphlZGGRury1S1PZi9C6SWHGSaQkkYZsVXF3Jt+RAKjeaeUfdquSwMfcbV5zVOWbPSkcSOeaQQHvWsSGMGCtN2HtVhbcmpvJCJzWiZHKU1U1NGwWkfAqPrTEXopyxwOlW1yBkdao2cTFs9qszyFEwK52tTS4yecg4LZNRwh3bIqFFeU5281pW8eEGeDQ9EVFksUZHXrU/KD3pIuDljRPMoGF61zmoKdx561ICB9aqhm61IrZ60rATdacrVDuNSxoWqXYLkyuKlD4HFQhMVImKyYEqOasxuAvzVTztHFIJD1NZ2EaG5SPlNSxnA7ZrL84ryKcLiRxxxU8oGjM/y8cmqu0nlmC1Xa4dR15qIPJIfm5p2KLDYHGc0xEJbrxSBOOafCjZ9qoZMsWB1p6vsIpBnFIQO5qWMuWxVpxv+7+ldBBdx7kjtuf5ZrmoAoGOvvWnp+xGBZtq9/enTlZmM43Oz0R1Cs8zbmFasU5mYELha5O21BSNsIwnc9/yre02RpAMNj3PH6V6dGdzhqwsbKle1PWoogfXNTjIrpOUdR1o7UCmAUGlNJQAUUUUAFFFFABRRRQAU006mmgAooooJExRS0UAFNzQTTc1BoPXrUy9KgXrU69KaAkSpl6VElSr0pmQGkxQTTc80AIR1pj1KelRy9qC0U7mqJ4ar1x3qg/8AWs5Gi2L0PKirkXSqdtygq6g4oQmPoNFFNEkb1EamYVEwpjGilzxTSaYzUgFd8VQupsZqW4k4NZ077+Kzky0iCcl2z2pkUZeUJ2NS7cDnpVzSYBJPuI4FSUzXgiEcCIOw5qUdqKK6I6Ixa1uPHSlHWmg0/tVEi5opKM0hC0UmaXNACig0maWgABpDSmkoAKKKQ0AFFFFABmjNFFABmiiigBaKKKAEooooAKKKKACiiigAooooKCiiigBGNMJpzUw0AJmjrQaiuZhDEWPXtSbsrjSu7DL+6jtLZnlODg4rzq5vmv7gyuehIFaPirVWv5ljt2xEODisL7u7+FRXkYird2PQo0mi5BPgndxUkt+qpzg1mF1YccmqVzvJ6kCuWLOiWhtNeLJHtB98HqKzrlpGB3fhUMNxsGZV9s1NCfOfrlT+lbctxJmW6GRiM4NKpeEBGbgnrVi+VI5NucZ71AIRcNgNwopOmWpliCXdlVYYFTt864GCO9ZgjMTHqFqxHPsUn1FZ8tmWMuCobb/DVZmG3jkVHcuzH0BqEOIgqseK2UNCi152wAY61C8nzMKryyByGU9KcGY8kZo5QLKttUZ71PsDrVZDvK8dKtdRnpUMBEiC85q3GeAKqpjPJqeIkN7VDKLaDsKtQEoflqpEw3Cr8EkakA1ztAW4pTtw1DRhjkc0qbXIPanyR7OVPFIkh2qDj9Ka3HApwUMc9PelG3GO/rQBWaTLYA6VHcLjDDoamdVAJWqvmkHD/dpMZHJGdhP5UyMZZS/UVY37c56dqhfHmKaSGMn4JzWeGBYqelX7p1Y/SqNyqrGXHWtqe4HT/D+wzdtMRwvIr0qLgVxngBM6aJe5Ndmv3K+qwseWCPn8XK8yUnCk18+fFXVVuvEroDvEOVK/Q17rqdz5FrI5ONqk/pXzX4vBudZnu9rL5jmrrS0sGGXUpLLG4BCYqQIj8lsVRRipxmntKH+UZrmsegmaSbYx1DCoZZv+efA9qhgTdw+QKmMSL9z9ahl3HQyRsPn60hjBb5RxUX2ds9asQI6dTUgNET54FP8AL4+erKNx0qKdht5oTBlG6jXHy1FBHlqJHLt1wKFmEa/Jya0RBooVijzkD2qo8wkY56VABLOck1Zht1Tlzk1PUCWA44XpVxSEXLGq6uiHgU1nMjY7VnJXNETSTZ+6aWFcnLVEqbeT0qUSrjA6VHKWSt14HFScAcVAsueBU8CEnJ6VDAkiTceRVxIwFquJFTpSNcGsWgJZDg4pY+OarCQsanjyalxGSMeeKQEDrRgA80AZPPSpsICN3NRs+w8GnSBs4TpUJj5yTTAC289TViFGHI4qJGVT93mpldmPPAoaGPLc4brUqFgOnFIAoHTJqRW2jpn2rNlCo+eCMfWhlVTlcsaVFUL8zZPvTd3lnj9agssRkYHGBUwcNwrVRMrfgaegPVTQB0Gnod4Jl2+nNdDY+YzqFlLDuTXKWMqpg4Jb3Nb1hquAFgiJPc12UJWOOrG52VrvCAZyBU+/PasjT7iWUDf8la0XIzXpI816MlHSiigc1QgFBpelJQAUUUUAJRRRQA6im0UAK1NoNJmgAooooJFopKKAI5DTAaVjQBUmhNHVhBUEYqwlNAPWn0xafQZjWpvelam0APHUU2SlWh6BoqXA4rOk71p3I+WsyXvWcjVbFy0+4KvJ0qjZf6sVfQUITH9qQ0vakNUIY1RMaleq0jVLAikbBqGSTIombNVJnwKm5SGzyc4zVYdc0O245pUGalloWQ8Vs6SoW0B9axJegrd07/jzQVS3Ey0tOJpvSjNbGQo61KpqMU7NAhxNANITxQDQAtFFFAhaKKKBBRRRQAUlLRQAlFFFABRRRQAUUUUAFFFFABRRRQAUUUUANooNFAxKKKKBi5ozTc0ZoAU802lZxGu5yFX1Nc3rfim3tUKWpE0mevQCsp1YxKjFy2NrUL2Cwt3muXVQOi7ua4PVdfutSkKoTHA3HHXFZuoalPqE5e4kLrnOM8VXa4AT09q86tiOZ2O+jQsrsmeQBiM1XmlGCNxqBpedwpBITzgVxS95nWlYnHypwMt6VXlO7qdvtUgc/eLYJqjqlzFHHgHJPetqNO7MpsS8uwrbVXIxznvUI1LydjfcUVh3d+z5wfzqlJczzAA/dWvUjQVjnczrne0vULCY+YeueMVUZZLdvMguFcJ9/LAD864+S5a3LsJWBPYVXk1S5aDygxVD1x3+tV7BGftju11BZ/lJA/3WyKYbjYzDPymuGTU5k8vZ0j7DitJdRaeMEnv0rGph+ptTrX0OhabaOucmq8pLSdcg0liHliVtuQRVlEwQNvNc/wAJ2EVvF84A5Bq00bBSAOKfbRMJMkcCrjR5TAWsZTGV7OA7dxNWhH8vqKcsZRBjvUqRYIPUHtXO5lEHkgLmnKnA28VOVIfDDiniHuBWbkMdBBuIJNWPLHm4JxUcakHIqfbuHHWobAsxowHDgipGcsuM5qtHGe5pX+XsR70CJ04OMcetJIip8waqxnIG0E5pY5Q3EvFAxjHJIJwPao3hVlwr/nU7RjkoQR71G7hEzj8qlgV9rDKNyB3qNkGAQcn1qWctIqtHwO4qI/IDj7veqSAqO5LYbt+tRz/wjsxAqdQPM/WpoLVbu6hi/wBsN+RrqoR99IipLlVz0LwlbC30yBMYyuTXRMdqCs/T4hGqIOijFaBGVxX1kFyxPmqkuaRzfjq9FnoFxIe/yj8a8PkmS5UxnmvU/iq7SWcFqrY3NuP4GvL7zT/LXenytXn16vvWPTwsPduZNzZ7c7BVaKJlfpg1q27ux2MM+9TT2mVyAM1l7RnS0ZZWU9BmnxxTMeVq6imMfMKd5hHQUudsdiNYGUZelVfeldwwy74FVXuIlOFbNKzYF5VGOKqXat2pBd/LxVae6JPBqoxZMpFaRTnNPhjU8mo2JJxVi3HY1t8JJIJFjXjrTTI7cngVMYQeQMmlFuXPP5VDaLSIo+TntUqZ3fJUqW3TtU6Wr9hisnNGiRWw5HzU+KIufQVd8jjLcVETk4TgVHPcBIolBq0AQnFRovHHWpY2KryKlgRiNm5pxi45qTzM9OlLyazuIhRecCpNxTvTjHxkVHtycd6OYBVmJbmpt5xUPlEHpQzbakZLvJ4PSmMeabv3DA61LDHu60ACDjpUkY5qUx7Fohj3tUNjFUYGacjUkvynFSQx/wAXapGOQF+c49qBbru3O2T6U8/INwOKgklI5zketZjJQF3c0pPPycVHGVc5apB85wlBRPCX4Cn8a3NMYxYVZfMbPzcVz3T7/wClaFhtznzZI/QDqa2hKzMpxudtZ3DEjdn6Cty1DsuWLBa5TR9zuDuZR6mustZGCAFsj1r1KbuebUiWhTgajB704HNamA6iiimAmaM07bSYoASiiigAopKM0ALSUZpM0CEooooAWikooEQnrT1FR96mSpNCVKmSoVqVKaAkWn0xafQZjGptOam0AOFK3Smr3p3agaK10PlNZknetS6HymsuTrWcjVF2y/1Yq+nSqFl9wVfTpQiWKelNPWnHpTGqiSOZsCqMslWLlutZ8z45qGWhsr8VSdyzU6aTJ4qMc1JQhFOiPNIetEf3qC0NlPzEV0Wnri2Qe1c6/MhrpLQYhQf7NVEmRL2oFOIpB1rUyFFLRRQIKcKbThQAtFFFAC0UlFAhaKSigBaKKSgAooooAKKKKACiiigAooooEBpDSmm0AFFFFABRRVW61KztVLT3CLj1IqZSUUVGLexZo21y+oeOdOt8rBmVh6Diua1Hxrf3GRC/kofSsZYiMTojQkz0a5ure1XdNKqj3rntU8Z2lvlbNDI/96vO7zVp5yTNMX/GqMl+W6LXLPEyfwm8ML3Ol1TxJe35O6Uop7A4rGNzgk53E9zWS88h9qEuD61zyc5bnUqSjsapnJ5JqCW6HTNU3nPSoWbvmpVM1SLxuugqZZvkzWUkmXArVggzGDUyjYGiRJfk+btzXOa27ysW+6OwrfkiwD+dW9L8Nyavc/P8sa9TXbhIc0tDhxFRU1eR54scj9crTngdE/1hr2c+BtN8goeWPfFYd78NzK5Fu4C/72K936vPseO8fSb3PHrxCZDl81XPHFepz/CS8kf93MB9GFRj4Q3f8d0PzFNYap2IeMpdzhLDTIJLG4uZLpVeNcrFjlz6VreHtJW8UORhf513Vl8JbeJAZrl3f6DFXG0BNG+SMcDvXDjITpQbsduErU6kkkzHisUhiCqPuiq8lv8AOQBWu3yk57iqxVjKDivnvat7nuJEEEQ2rtWrMcLMGJ4p6xbeQcGiKY4ZW5xWTkMhRHVueQKkCtngU9cyDJGBU8SHI2mouMiSJn5PUVLHxwwxUhXuDimhWJyOaQxhO1uOlSMzbcimMOcPxRuGMA5pWAWOWQn2qSUSOODkVDHL/wA9FGKswvAeoYirJIViZDk5apfMhIwy4NK8kbdA4+lNKoy/I+G96BkXyjkFs0jBsdKeC0f313D1FRyOjHKsR7UCK8ZZCVbp607JAPGVNR7izMD07UN5gUCLn1FXEYxlVjxWt4Vg8zUxIRkIDWDJJJbz7Smd3eux8CW+63knk6k4Fd+ChzVDkxUuWB2diNybz3qyeD9aZbJiFVHZaLlvLt2f+6K+inLlieFDc8x8cztc60wH3YxgCuI1aeRSQF+Wuk1t3n1CSUH72ayWhWQ7ZBmvAnO82z3aMbQSObMpjbIGKct4yncGz7Gte5sYCpCDNZVzp4TJGa3hJMpjHuzJyRTPtPbFVXDJ0ppBYcnBroUUJsllYP8AebioisS8jk1GUYHrmkKNVaGbkK0mOKhPXNSbMmneXkUyBiKxOa07SNFXL9aqQoQc4rQt4945rOci4hKQPu1NCMjnrUi224jPSrHkKoASuZzN0iJY8mrMbFPvc03yiuMVIIWNYylYZHO4kXgYquY/bFXHUIvTmo2GRlhSUgIgu0UoO4c0p5OKdHGB1NVzCCOPB56VZSFT0NRBCTx0q1BBx8xrKTENMaqOOaZtQHpzV0QLjIOaaYR3FQpAVGUbee9VmgO7jnNaJVMfKM02OJpD93FPnKK8NuqAFuSauRQhee1SxWu3lqmERPArNzGUpQWbHanIm0cCrhgWMc80wxsfujilzAVvLAOSM+1SeZ8vyrgVMLcDlnpsnlxjIG40JgQbWmHz8IKN0eNsShgPzpjF5XwQVX2p7t5K7U2j371Yxg5ySNuKfGylDjg1V85N/wC8b6U5Zj1K8dqVhlxB3JzVqFxuHbFZqS7unFWYTsIOc0LclnXaRO6oCsfy+paugsrzcQud7f3RxXC293gcvn2FbWmXRkIEC/8AAjxXfSqWOOpG53EG88vj/cqccdqytPfylBkk+b0HNaiHPNdydzkcbDqKKKogM0hamk00mgB2aM03NGaAFzRSZpM0CHUUmaXNABRRRQIKKKKAIh1qRajHWpVFQWSrUy9KiWpR0qgHr0p9MXpTqCRr9KiqV+lRUAOWnr0pi09elAEN19w1lN/rK1br7hrKb/W1nLc0RfthhRVyPpVOD7oq0vApoljyeKhc08niq8j4zSJsV7p8Gs25fHAPWrF4+CTms9yT1qDRCUUCigsDTovvVHz2rQt7Nmh3fxUCZVtrdri6/wBkGuijXaAB24qvZwiCPGPmPWrSitIqxLdxfelAzzSH0pyVZmwxSE4p9NYZoEJmjNGKMUDHUU3NGaAHUUmaM0CFopM0ZoAdRSZoFAC0tJmjNACUUUUAFFGaKACiio7ieO3iaSZwqik2luNK7sSfSml1X77Ba5PVfGUcO+O2G4/3q4/UvE15dOxaVvw4rmqYhR0R0ww99Wel3mu6faMVknUkdhWHqHjiCLItl3H3rzebUHZiWYmoHm38965JYiTOmOGR1Go+MtRuchZNie1c/c3k1wxaaR2z6tVHzGJ68Uu/NYSnJ7s3jRSJS4HQUxph/FUW5qMgj5qaVzWyQjujE4prOFApCF521C/OK1SsMc0/OKiMm1s0xmCtimMMnNUogWPPGM03zCec1CcYwKIlYnFVygT2/Mgya3IJCyBAax4IyrDIrbtYMIGC1zVRsuQQNM6LkEnt7V6Do9qtraJGFGSMmuK05WUo+0bzxmu30+7WWJVyN6jBr1solDms9z53OeflVtiw/UYFOzgUAZ70pFfXaM+QEoooouMKxfFG3yU9a15pkgiaSQ4ArkNbvftcpYE7R0FeFm2IgqfItz28poSlU5zIk6kZzUQzuBAyB3p1w3IAGM96YmQChODXxh9oieRyUBIzS2yKxOE4buaYkbOMdMcVbit2A2fdI5zU2GyMRgNs6Ad6mjTbxUhtnKYPfvT4olUddxNJoSK7ZHUAimxtluBgVNKpBxjioyncCiw7jXRWPJzULgA8CrAU90wKa4A+7RYCpJJyBjrS7zHwpwKJo3J3KM/SmbCnLDJq7EEiXDqTnke1K0gblfl+tQF0Y57jsKRCxOV4Hoadhksn2iUcbNvqKqp50cuJELKfSrJu5VABxt9hU5ZJIc4JP5UxFR5Cr4wfxpc7gG+6RULSKGYb9v15qvL5qrlX3D2qgLksisRvX2zXoXhazWPSoto5xuNeZ27EunnV7Do0SDT4DG2V29q9fLkuY8/HSfKi/EMflWL4ruvsukznOCw4rarh/iVcr9kS2V/vE16GJlyxbPOox5pI4dJjKS79O1MdXZS6KN3aoYY2U5OcCobqa4jYvGv0FfPv3pHvR2FhQs7GXhhTJbdZVIzgmnW80rrvdeacwk5YL1qk7MbRh3liUJAqibdgCTW/PHJL0FVmtSfvCumNaxm0Y4iO3pSCIsMYrUMIDbcUpgCc4rVVLmbRkm3IpVgY1qrEG6rSmID+Gn7QqxUht+OavQJtHFLFAzHgVfgs2wM1zzq3KSIo48jipPL21OYvLHPNNBwfSsOa5ohixFjmrAiJXFCMAKkD+lQ2BC1sMZzmoJI+MYq4eBTQg6npRcLFAQHOe1OKD0q07L0AqEA7ulVzBYdCmfap9pAwWAFRKX/hWpUUHmTNQ5BYljIAwDmm8liKep4wq8VJDEGOTwai47FWONi+AK0IINi5Ip8MSqeBzVjYzLUOQ7Fc7ScYzTwQvQU4oAeV5pWAxwOai47EEjY4IBFMDAH29KnaPuaiZSPSmmFiOQg9AKhIUmpGHNNGQckYq0FhjlI0JOQPWsyabzHO0ErWjdKzJ/e9FqOG0ZfmYDPpWiZJVjgDKGK/nUj2/Acnp2FSTlwMEj6Cq+4gfMWz7GtAHhsdFxUySgdGGfpVJ5yvRAPxp8Ll+nFKwmX7aTbNuYr+PSt7TrxoseSQPWuZj75Vq0bCTY4ZuFqoOzM5K53Wj3DmQssckjN/HjgV0cMh4y2W71yOjX80qhIYtq9N24Cukt5MHaSrN3xXpU5XOGpGxo7qTdUQYdqXNdJzgxpuaCaSmSLmgGmE0oNAD80Cm5pwoGOFLSCjNACmkJpM0hNAC7qKbRQAq1KgqJamjrMomXrUgpi9aeOtUA5aWkXpSmgka3So6e3SmUAOSpP4aZHTx0FAEM/3TWWOZ607n7hrNj5nrOW5oi/EOBUxPFMjHy0McU0QNkfFUbibBqa4fFZd3Ic0mUkRXEpZ/ao/rSHk5pe1QWgooFFAyexh86cLjjvW6UCKFHaqWkQ7E8wjrV2Q/NVIhjk5pw602PrS9HrQQ4dacKaOtOFBA6iiimAhphp5phoASiiigAooooEFFFFAC0UlFAC0tJmigB1KKbTJ7iK3UtNIEHqaTaW40myUd/lqC5ure2G6WQL7VzeseLo0zFaMu7+9XGanr80xIZ9x9zXNPEJOyOiFG6udtq3i+CAMsHzEd64fWvE91eEh3O3+6Kw7i5eUkkn61XJPUfN9a45VmzrhRSJXvDIeO9Kp9ahWMnacYqyqqv3uaybvubxViGVfTgVEBuOBzVlgCMAUxkCDjg1JqiNYyO4pGHvTlAzyaaEBkxk1QDQvXml9Min+XsOc/nSO24EKOnr0piIdvzH5lqOaRc4ZfypzSKq/dLN3KdKrbWPz7t2Oo7itVqBHMNpAB6+tGzdxu/KpNok79fWpfs+3B3flV8wyILgDAyfWp1HIwPmqXyNqAg59quWtiMCQHJ9KynUsAunWjSuNw4rdVPs6AAVBbRqqDAwasysvk4L4rhlK4yZJsqMnn1pPtr2km+JyWqjNdBYgqn8arefuOA2TRTlODvFk1KcKitJHWad4n3ELcJn3WtiLWbJursPqK8+Bx7UrS4HBNexSzWrBWlqeTVyilUd1oeif2tZ/89RUUuvWsfQhq4JJt38Rp2Qe9aSzmo1ZI51ktNG1q2ttdsVBxH6Csh5SwODTHONvy5+lRxo1w+yH72eleVOpUxEtT1aVCGHjoC7s/wCNOjfBZnXrwM1sQ+F7ySPc7hG64qhfafPaSLHKD7HsaJ4WpBczQ4YmnN8qY+2G5gFYfSr6h/lORx1FQ28KhlbbgntVll2AlhisVE1bJUlQoVAwaDGqqWAwar2TxtMcn8Ktznbx2NDiJMqMc+tRSZHtVh2UDoRUchBHOMVNi7kJDFeGyKjCODy2KtDaR8oxTXj3fxVNh3IMgHkDPrTXVH53Yb9KV4ChBZsn0pW2HkAg+lVckqvGu4/KAfUVDtJYhBg+tWXLAn5QopiyBev6U7lFeaE7QC5FMVZI+jE/WrixAHcikE/3qiuDJnDMpPoKokprG4nLSxgrUsjqVxGgU+lRzmQjAzu9qjgDrw/X1NMQvlF/mdR8tdd4Y1LVLC3EuxpLc9FPaufgTfIiBuXbb8teoaZp8UVhDCwXGMmvSwCkm5Hn4xqyRmjxrap/r4Cv97CmuH8UauNWvjLhVTOE59K2fH9rHFIsUCqvGTXEiX59vy/L3rfGVlL3UTh6S+IklcouB1NDANEAaidtz7jyKcckV5a3PRQ5I1VeOtCyMCQy1G6upDbqakh3kueKCmPeRV4CYNMdHKZG0VI7Iw5OTUblgvUEVRmUWjG/5iM0SR5HJyKcyM7ZXpTzHgVpERGluW+5+tWILNQ/LFif4RSxcDFXbbZEudrM3tSk7giSCyVRljinO0Uf3j+dV57h36blFVwxbqN31rEsklYF8quRTQpkPCYFSQDHJp6+Y74AwKOawxnlhBzz7VYgRfvdKWONUOW5pWI6nhazcmwGzru+7zUZjAXGeaerYbCcg1IYgPmPWlcoqrblqeINvWrAGeegp4QEcVNwKoUH2qRYgw5OKkEW2nKgU7mGaGwBI8LhBQqFTyc1JuLD5RgUsUXzZzU3GOiUqc9anLgDOcU3PvTSOckZFSxi8typJpSjAZYU9ARyuAKVyX6mhAQEcc9Khkx0AzVh0LcgcU0rj0qkFykVfvjFJuZuMcetWHUk5xgUw8dfyqkK4xY+4AJpkp3HC549KflW4ZSKeiqoyOfammSZ8seeQWB+lVZI5B82Avua1p5Aq4Vcis6dN56ED3reLApOhkPUVct0CAVGFWMZqN7pR0rblEW2bHRhUsUoJABLNWVHdBnIA3NV61llXkBc1LjYlnVaWk7BWuJVVW7Ick/Wuq057WBeGO70HNcFYTz/AMbj+tdJpblsHI684rrpM5KsbnXRzqfanNKp6GsuCVM/cLe9WwQa7UzkcbE++nB6gzQGqzMmJpQajBp60APBpwNMzS5oGOzS5qPNOBoAdmkNJRmgBaKTNFAD1qWOokqeOsyiZaUdaRKetUSKKWgUtBIw0lONJQAqCnHpSLQ3SgpFa4PBqjCP9Iq5OflNVU4kzWctzRF4NhOahlk44pXbKcVSnk2DmkKwy5mwCSazpHLtk06eQyN7VGBmpbKSFooopFBTkXc4HrTas6fHvuF9qYGzbrst1X0FKeac3HFItaRRkOQc048mkXpRWgDlpwpopwpEju1NpaKAENNIqTFJigRHigU8ikxQAlFFFACUUUUAFFFZ+vazaaHp8l1ePgj7i92PtQBZvLy2sIzLezJCg65PP5VxGs/FOwtnMOl25uWz945ArzrxR4jvNeu3lupCY8/JH2UVimZ9nLUDSuenjxpfXiGWS8UKedigcfjWLqPiSe6B2SHJ4rj4jwGBIb+dWWbYBtbc392sZq5rHQ2VneZTuJyvOajYFxnqTTIZCYwB361MuQPauCpCx2U3YaqYTa/4Ck8rKdMVKpbfyv40+Jd7H5qwN0yALhcA5xQBlhhsn0p/lMZCBwB1pFjYOcL9DUykWJ5bDqOM09omYNuHSplG0rv6+lOD5d89cVKZomUmhOzIAphQMmMc1NJgrk5H0pkiF48eYAPatLjIpeg/QfSmb1X/AIEKkaJ+BGc8VWlRxjHyn+VOOogOE2t74qKTZ5m5G+9TghlGCM54+nvTobZV3K5zjoa2tYBgt2wCjYJ6ZqaKPGfNOcVNt2Io6571IsKj5WYsT3FZTkMI4w6gofl96vxlVwo4NNso9uVYfL6VYMOcFM7fWuacgJd22PjrVeZiV5NPdNqnIyW6U0QtsG7PNY2AqTbuw4qESlfmKjNXJgsQCYJzVO43HGB8tbRWoEjXIZQc80olBAyc1RKbicnGDxVyPyxEdv3/AHrTlAkjYsMLwc1YVGKNluaijQImT8xxnilEucZBFSBGfPTbz3rd8F23n6t5h5ABNZKOqqy/e+tdN4Hi/wBKdvu8dK78uSdZJnn45uNF2Ovcf99Vh+KIY/IDP8re1b3esvWkEpjG7vzX1GNhFUnZHyOCnL261OZj+z7AxZ1A9jT3+zSjahc59c1rtaxrjgFaje3R3yoCgelfJOKPsFMp2diE+ZQasSpyAavRRhE4qCdMnNYyiaJlB0JOODUMkPPzVbZct0pAgJ+Y4rPlLuVcOB8qcUgUk8nbVhsKcAk02VGK5C5qXEdytNEAd3mbqrMdmSvSrgGE6YNVmXe/I4qGhlfc7jkcVGSAwyKmdtj7UHFRuFZuTimgEeUt8oPH1pFC4xGCznqTUMxWNvlIJqeGZvLyV25qwIJJUhch/vetVhKPM3feSpriJLiUkbuOtJCqLGVK5UUAS2s32e7juUXcqnPWvUU1aKO0WW4Vh8md34V5ppkC3WowQhdqsRla7rxpJ9l8MlBtXICj+Vevg5csXc4MUrtHDeKdaGoaqXgGYz8o+lZMESvI5cYqrArRxlpeq9KmhlZ36/w1xVXzSbOqnG0RsylZdsQ4HegyEDDdfWq0szbiTkCpopNyZIG33rM0BizttLDFAVcEdaZ5kQJCmnRFcE7uKAEeDcMg1C7FRgmp2mUfd5qGVVk68UyRITu+XkZp7gDjsO1SxpHHHuLDIpUQP87NjPaqYEG3fg1MkbKAeRUoiRBu6YqGW4aRwFGAKlsY5YnkPzk4qwsaoOBmm27nmpWBwcVm2UIjIrfNirO9NowMVQZQPmYUgmbIC81LQFljtYkjJqKTdJ1PFObhMyNj2qPeX4Tj3ppATRbY8ZNSbi5J7VWiRg3JzV6OL5QTUyQxIwWAHSpipjGe1KGAXBFRyu7DCjiswF35XnFARmHzHimxxHqxAqVVA/izTAI128A7qmjTPXikARRnOKaXaThAcetSMkcrH0G6nLvcZHA9KWFAnT5jUp4PofSkUR4G3npTQAPpSuSDx19KawBHzHB9KCRrsxOF6UFTt609CBxiklUJyzcVRJXchTiogWd9qLk08zKTnZTAXZsqmwetBRKlv95p2xQfJUfKaaoduHORUUybVOFXPr3oERzSKThen0qnPuLZP4YqwyuQBn60bQCCsfPvW0GSZU6O2Tk59Kqm0kmIz8graeM5MjECq7EOTjp3reMgK9pZpGxKckdasFdxyGAx1xVZ95YpAfqafChHB59TVSZJdtJlSTAy1bWn3kiNhBtWsRVCANHx71ZhdpGGDgepojNpilqdjaXw3AM2fpWzBcKwG0/nXJ6fNbwYBfcx61u2U8bcJyDXo053OGrA1w49aepz2qvEyDFWkORwK3OYeMU4EUwE/wB2nAn0pgOpRSYo5oAdRTRTqACiiigAooooAkjFWEHFQxCrC9KzKHrUiVGKenSqJY5acRSKKcelBJGaBQ1KKAFFNk6GnCo5jxQCKk7cYqBOtPnPNRKcDNZPU2WxJK4Vay7qYyNtFPvLgngVUB/Ok2UkGO1OFIBS0hhRRRQAHrWnpMeMvWbjOK27FNluKEJk7n5qF6mmE85pw61tEzHrS00nBpRVCY8UoptLSEOzRmmiigB+aWmA0oNAh1JilBooAZikxTyKQ0ANooooAUYVWduFXqa8H+I3iN9a1uQBiLe2O1U9+hNe0eIpHj0C/aI4cRHB/Cvm68IMpkY5Ync31oAiEjOflXimsGY4Tc31qNZMPuSp453+6+1VbgsO1VYtFu2idXR3xgcVclg/fqYyCetYJndd4DFlB4q7HeMUyc528UnAFM2kmAQ7xtbqDV5LYyKj+YNpPX0rBsLrKjvxyDXSWEBeMlHV0AztPYmuKrA6YSJhAzELjI9abJGkA+U81Ozv5QyQrdhTnt1Kh5Pu/wAVcElY7ImZ5wjlHmNkNVhd0bgg5RulEkMGVLrlc8VOYuRgfL2rNmhCdpIbPzFsAU0o7lgi8r1NTYTcuB909am5jj81jhm4I9qkoo7RsOexpTEihgOrCp5EEgdhxg9KjKZ+Y8DFAEckYhjzG2+q7Reeu77tW0QFyD09Ki+ZJCCuFqx8xTxs4YfiOlJsjznzPqPftV9UBz6elVTGHl3IR6ba0uO5JEol4VcFf73epoUCoWKHfnoKWNQw2Ftr0sgKYWJ8t3rGQXLUZ8wDjaO9PhfYxVfmApkO8x8gKp6mrFpEGc4HA71gwuPjhaQ9AM9M0sn3BkgFeKnuEaNkVCc1FcMDGSV5B5qQuUrkfLlsGqgQEZVT75rWMQkwZFwMcVBJHGBtHFaxYXMS6jyRtHvSoVUZbnNXprXe6lTtoMChtjr0Gc1pzCuRxglCV4HarIjBVSByOtQAkYjXoTVqEbO+41IXGpGpmww610vhxltbjaThT3rDVPNYY4NTwNKs2zPNb4er7KopHLiaXtabid+CDnBrPv8A52H3flrOtLicAAvmrZydpPFe7Xx6q0+VHh4fAOjUuxgbPAUGpUiGMjANCICeBipDtHAyTXjnrkUisKgbO7mrLtntVWXO6oZaZHKOelRNj+LirHUZPNI6ggdKlo0uV8KOVFRyOx4AzVmVNoGKrtvBqWhplaX94cAgVWnDAYj5NW9mGJ28UkgUDKjms5RLKEceQcj5qQJ1XYD7068lYEBB9agJO3qaiwweCMFsj5vSojJHHHydwHrUXmTIjKuCx7momUKBuBLHrVATpKA+UGFNHKhj8oWqTSOkgC52+mKlCu8ZZj+FAHQ+AbVLvWzIHyI8GtT4n3REUNoi5HU/nUnw001YbaS624Y5H5Gud8eXkt3rkqo3yJxXqwXJSucEvfqnLOkshyD8vpUjxNhdvy1NC0YDbm2t6VH5qs3JriO0gnQofn5zSeUSow3HpUkhBzwWpuSFGBQA9IE4LLUVwiqcIpxVhpsoMgD3qAsMEls0gK7IQM7qaJCThqbLk5wada7WOG61dgJVX5gX3EdqsqUALHr2pUyAABkUy4ZgDwM0gHFy3LfdFPh2MM9M1VGW25OBV6CIfKOuelZsCeJFVCw5pzRApkcA06XESYX8ah84hSMZBqGURthQQBupEGOVTmpYEBy3NOdh0UYNK4FSYMT84pBkqADxU/ks2SzZFQ52vt6CqTAnt2BbLniriyBiAh4qtBDuAORiraRxxNkmkxj125ORUbtk4UUxpWdsAYFKiHPFZgSGFiMg0ixjseacGYDBOB6Umfm4GKQhyqM4OTVuJVA6fhUS9BkVN5iKvGc1Ix4dR91fmpjv68NUT3GDxTJA0gzupgP3jOM8+tOBVjgjJ9aiRY1GGPNNkufLGIxk0xFhhsHH51UkQu3zPkUqGaQ5fgelWAFxjbQSVhGi9DmpguV7Cn+Xntik8sD1NAXIWZR0Oaiclm4XNTyqoHApgYBc4pjCOAnJ+X8arXM/lDB2k+1TSSSMuFNV5PLRsty1WiSm7STITt2rUAhL8JnPtV4Bp5AMYT09akcpFkRjB7+1aoRS+xJFHl5MMeqiqjPsO1eKmupgmWDbjVECW4JJGwetapATyXSQDLPn/ZFLFNLNg7iqVW+ynzMbNxH8RqwscpXG4KorSyBGnYzMjYiG5vU10Ol+bcDDNtP+zXKQllGE4PrW9p9wsUH+t2v704TsTKFzsbCIw4y2V9+TWnFMn3UYM3p6Vxdpeyu4VZGCjv610mlbY03fMWbqa64TucVSKRsqCcU4j0qJHOBjpTt/pW5zjqMUgalzVAGKWkzSbqAFpCaM0lABRRRQBcQVKKYnSpFrMocOlSRjimDpUkY4qiWPAxQaXtTTxQSI1Np/WmnigBCarzNUrGqszcYpPYcSvIMtVW7n2LtXrUlzMI1xnms923nLdaybNkrDc55NFFFIYtFFFAwoooNAiSJdzgelbsfEC8YFYlhma4VIucda35lCIF9qqJDI+1KOlNHIpQa1JHHpSqcimk8UqHAoAdml3U3NFAiQGlzUYoBoAfmjNNzRmgB4NLmmA04GgB2aQ0oFLigCM0hp5FMIoAivoPtVhcQ/30K1826xF/p17buMSQyMPqM4FfTCfLXg/wAXtJbRvFTXMYxFcAEj35JoA4VyVc801mOCM9amvoQm11PyvzVUkJ1NarUljkYrkZ+WmSXpX5EqKRx5fXmiwg82T5+lNiRq6IXaff8ANyPwFdtpEX7qTyN0bYHzdmrndKsQHj3NtVhgD1rsYrZoYka2lXy1++uDz7CuWornVBWH/u5UVz8xHXHSiT5xnv2x296kUwtEQieXj7wpoZQdpXb7dzXmTi0ztiyAQRxRku2W7GlbKRh3OR6CpHRShyM+g9KYCVUADcPesGbDWYGHdGg6frTYFM0zKVG3aPzpz7t64b5e69qB50ZyNpz/AHamxQpChNjt82ecUxwHZcfKq8YqV0j2by25+pAqCUo6fK21qBjcNy64HsaVyJlIAPXr70vlmSMgHj1pv7xMIgzxTJGSIVAAb5vaolVYJFcp0B/On/MrHcPmJ6VFMzAqxBJBxigB4zvWU8k9afHKCXaRAmeFNEqu21V+QHqanaDc6hhuQAcevvRYY5YlnAiVixU59q1IA2fLYgkCqtvCqRNLEDk8batacjK5kkGCegNTyhcuK4jR5AdxAwCaqhFlG6QYY8496nRFldvmwF6ipEwVZSmcHGafIRcqTRtIRtPygYz71F9jzI8r5AUAAetXlgJRox3billGRtUH0NVyE3KLooA2rj6UyVUwqsuWbjNX/KRFJKnGaf5MbSqyjI70uQfMYbxYRlOflPy1agtdwRsZyOavywxGXa/Q9Kk8sRxYXgCjkDmKRgMTKQMc1PBEA+7q1TxlTGM880WMDSTFugp8ouYv2lvtbPWrYXJ+Zs+1OtImAPHFSPAwUlRXoU8JUcea2hwzxVNS5b6jMY5BpCpzmmF+ME803fx1rB6G0fe1FckHpUL8053z3qB2bsaxNUgJC8HpTWlVThRmoWkONpPNIHwM9TSLsPkm7Y5qN5MjLZpSQeQvzU4BV5Y8+lAFfc7DaB1qNlbOAeR2qeWQAFqgV2ZeFxnvUsZWuQucBfrUDLhTj7npVmYnOKhfGfmPy+grNlEGDKNqjHvVZoWW4+bj3qzLKQvyDaO1QPJuj3dZB2oGMli2nNV97SyLEi7lzUvznkt+FS6JZPca9DHF93eCR7VpTjzSsRN2Vz1DRoksfDqEfIduT+IryjUbp5b6Zyc7mPzV6h4wuBZ+Gyi/I5XaK8mZiZDnbyTXo1nyxUTjoe82yFkViT1NM27jtXg1YZQTgcCgRD+DmuI7SMRsg2yHr6UhKBdi/NmnuGiYMwz7GhwWIKpj6UAQzELFs2daqTRyKVIPy1dcuzAEcUj7G+UnpQBn7SW9qmgT58gipJYQB8pqqEcNlSasDQMmBtHLVJaxJMcMct/Ko40EkeRxJTrcmNj2f+dQBLIsSEqAParVtKqW+SBu7VRiBkn+ZauyooXpzUMCKSXcc5GaZ5mV5HNMEKq28n8KdGHZ84+WpGSW7N1P3aslYwu5jmoWkEcRJAqrG8kz/u+lSMsXEu1cIvFVVDSSjj8auxQMzfvD8velZIw/ynimBIrKkfUZ9KYWbGW24oDBeFX8TULhpWwXGPapYEwkH3Rg1ZiDIMnGPSobaBY1yBk1IBIOTipAkbc3zcAUKATyeKa0rucfKBTljlfgYxSAVpAvTmnxBnGXGB609Ylj+9j6mnieNPujJ96VhjTGuOB+dQSPt4UBvapJZN/8WPpTEVVOcH6mmIakTOcsNoq1HFEgyVDVFuBGcE+wp6fP0Uj60APeQE/KgFO/hyzACoXh/wBvFROQvys+6gkmMwzgEGl345GKgRMfMAAKcHGcAZNACuwPQDNQkA/e4FStgHIQ0SFSvTFMCvv2qVH3KozSICcHLdquypu6/dqGWC3RdxOa0RJBGZGHp/KmOh6K2SfSpkkDEKi49qsJGoXOzmtQM1NPjMnmSkkjstSuvmYVR5aj061daTYpUR8mq4YdBlj/ACoArMVhycZz61SnmmkkVQoArSkRRkydKqz3Uarthi59TVxBABJGASo59KntQJHxKefQVl/bXL/MDWpZ3KbRhMyHtVqIM6XSIA8isQdg7Doa6mzkUkKi4/pXNaKzzKrOdsa9ccYrprW5jI2W2CO5xz+ddVPQ5Kiuaa9B3ox+FNiOQM8U9uPeus5WA5pQKatPJoEIeaMUUuaokSiigUDCinUUAXF6VKnSo1HFSoOKzKHJUqCokFTLVEsVjimdaVuaTpQSHSkY0vWmSHFAEEr7apXM4RSx69qluZQgLMeKxriYzP7VnJ3NIx6jJXMjkmm0tLWbNBKKKKCRaKKKYBVS7u23eXEvJ4zUssm35e5pbGES3CqRuzQM2vDdkYITMw+Zq0bk5GakiAihVR0xUcwrRIhkKdKGGKVRxTiMirENHIpRSgYGKdtoAZig1JigrQIjyaBmnhaMUAMpeadikIoAAacDTKUGgCQGnA1GDThQA/NJQBTttADMVyHxY0BdZ8LySRJuubQF4x3OcCuxIprIsqtHIMqwwRQB8nRXIiVre5U7c4B7qRVG7uIi/wApzXonjTwf/ZniGZSn7iXLxnHHPJrm7/R7eGIlI+tNMTRz0Fs1w2cYX1rbjg3vHBCv+rI+b1zUtvZB2jQDHAyfSug0jTEVgjFV8vn5+57VbkVFF7T7SRbb5UVZIjlGJ7Vfja8EmZSPL/uLjrT4o1wySsW7k9lqVP8AkJ7RG3lbBl/wrkm7s6YixrK+Xx8xI46cU+a0Vm2yH952pr3QaQMFZQvCj1/+tUyRfaXZy22QDcD6e1c01c3iyIwA/Ifl245psypFjd9ae7n/AFR/1neh9quN/wAyt1FcjWpsmUJZ0kc/KSgHpTo3IwY0JXHep5ZIQQoUYzjiopnaL5VAKt7UrFpkLDzT94x+veknTPysc8cHHWpNqqRvbt0NMZjHhZPmjzn6VNiiOIssJDHHsacm/wCV07DFPcgxbWGPc1XUlfusRzjHrSEI6+dvYPgiguCoJ+9x1p8e1QWkXOB271Kqh23iLI64oAark/K44HBq/Zbd75AZY1FQCNSRIo3IT0q9ZRkliV2hugqkhMjQyScxLtQnJFXlC+UHY4OOM0+EbFZQueDmkhQTRkkdBwKpIzbK6fLbna+GdupqzECXDEk9AaV7cNtU4GGOBUrR+Uqsx3EenStUjO5aCJEVLHPPQVVztdxn7zZAPanO7uPMHCDqO9PfdPEoUDdjg+lVyiuQbo1by5GIXPpSRIBnyst82fwqbCI/kyEHHrVixEYLMi4PSjkFzFSa2E4BJ2kdKh8so4j3E56itQwmSXcw6dMU4Wy+YxxlsdKOQOYz4YPmPFXYhswAKm+z7c0giBYc1cI+8iJv3WaVv/qVqUn5SDTIRiEUrHgmvraUY+xR8bWlJ1nqZ86KWwPl5qvINjdc064bMpyajbbjOa+TxP8AEZ9jhf4aGNItQO4Y8cU8kfwjNRtuP8OK5TqGMoz15oK4HNLwOvWmuxbg0rFCoQT06UjfM2Q3NG1dvcUwdcLQASr8uR1qJjIF54qRjIThhxUMquvJb8KlgQypu5B5qq6kAlTzVt2CDOOTVd8E9eKhjK7ZWIZ5JquwIBxx61IzF5eOB2oKlWIPNSBEuc4rqvAOlrJqct2GyF4ArmnRmT5M7jwK9I8DWK2GjJJIi5I3E+td2Fp3lc58RKysYfxJvl8+G0U/d+Y/lXCsEZeE79a2/E85vNWuJMZwdo/A1kCKTZ85xTxErysKjG0SNE+bkZFPcrnCjYfWlVCO/wCFQycthmyPSuc6CG4Z3faWzSgkDBNBRQ+aa5Tr3pDHFTnrUMsZXleaUuSOKakh3YbmmBCXJqSDAbLg1YjijZWYgDFNlCYAXPNUApBxmPgmmqCibn5anBiECp+dKy/IOdx9KkBkDv5uTwvrV6RWdCVIrMdmkwqAg56VcVWVBzzjpSYCKrKfm5qVplVcYxUTT4OG4p4TzV+UZqRkRInbANWYo0iHBwaijgKtk8UjkgkmkIlFxjOTzSRI8gLD8qrRIZHPpWlblYUxQBGsLH0FTxW8aHJOaaxBGS2PpTXm2L8qk/WoZRbMiqMIPxqKRzjJNRCTcvPHtQy7l9KQCB+eKlSZl71Ub5TwasW+1h8xpASMJpzjgJUkaxw/dGaRSRwBxUyxoRhgRQIYJEPpn3ozu4Y4FDxoP4cAd6hkm2dMEU7CLkTKh+UZ+tPeYYySAazftm4bWG2mF9/Qn8aALc9w3RcHNRLjq5GabEoxyuTU6QgHLjbRYCLDk5zhaeZ44R03H2qR1A6YK0LEp+7jPvRYCD7Szf6tSPqKYwkf774+gqyxji5cBj6UwyqxyibfxrSMQIGVvurHz6nihoF/5b/N6LVl5dqbnmVVX3qss8Tybt2/0qmhClQi5VMD0oFwyjG3g96Sa4LH5ULew6VBmZwWfCD0FCEPec7scfSoHnwecD2pWCLlmOfp1qu88fcA/wA60QDpLhpEwEVV9TWbcpMzZGcD0q06lwCF4HQmnG3m2F1kK/XpVRAzxG0ZBkYKh/OtPTrqKNvki3Y6MaqiBXGJAXb1HSpElFt8ojz9au4G0uqXEhy64C9AO9b+marcgplNqnoo5rkra6Z2DbOnbtXR6VflcBlTcO47VrCRhNHX2VzNMB5ihDV0Edzk1kWN4zD5QpPrWnE2eS2TXZE5JIlpRSDmnYqzMQ0maWlxVEhk0ZNFLQMKKKKANBRUqjimIKlXpWY2xQMU/PFNoqiBRQ1KOlMY80AGaq3E2KlmfaKzp5MmpZSM/Upi8m0GoFAAonOZiab1OayZsKaKKKACiij6UCFJxx3qrfXawrtXmQ9qdeXKwJxzIegqnBAWbzJQWZqBEsJZsO/U1v8Ah+0+YzuOD0qpp2nPOdzDCCugjUQqqRrwBTSG9CY7c1HcdDSrkk8USjKmtSCtGc1MFqGPg1OrUxDcYapGHFMbrUo5WgBgWjFPpDQIQUbaTNSLzQBHtoIqXFNIoAi20hGKlxTGFADcinA03bSgEUASAmnA1EDinBhQA40Cg80CgDlvibYG78OPIFXfG64cDkAmvJ1sjcsoPzIvWvf7iKO5t5IJlDo6kEGvLdb8PvoV4/lZaBzhT6UmVE5200kLLwd27rj07VrwW8UYkXZu2kYf1NS2ce2fzV2/dAqdrd8FMdPmz71m20baFb7P/ozSbW8wHLJnrVlE8pI3zlccila2M8BZ32yA4AXvTJswx429hhazmxocU84+ajL6dOlPDrH8qbWk78YqkhmS42RK2yTkt02ntVspIjKZFXd/eXmudo2jqVruN2bzIm5HLDvWEup3X2545IDsXgE10F0s0MoyP3ZPPrUd3HG37xFy2OKho1RVRhOR5gx8uOOMVn6jLdxOqWX3X+XcwzW0iefGu/hu/rTPs8kWdwV4+3tWb0LTMGP+0ICFm2s30q5A5LNvjZcctnkGrk6ZZju3dwT1rC1O61D7SIrVVaptdlpl+TcX+Zt0f+z2zSSkIFUfnVG3jv3G6V9u3+BeatxpNt5nba3VWUUWsMkfc8I524PBqxFM8EbZRu1QJbTggJO3mfe2kcY7VoRk4VJ12yf3V6HHvU2E3YS2BMokuEZO/t+VaOdj/uW3LgUfM8O35d3celSBJVA+RW44q4ohst2o6EnG4c5px+RWC56VHbLNIrbgBjpmrUQBVfM7itLGTGIN6Lnr/Kp4YmDhSRtPRjTwkQX5h16e9NfarEyDCKOBVpEsR4SDjque3eooo5NzLHx9alilaSPaij2pW3KQoAyetUkZtiC0jk5l4cd6kX7qiNOF+8afG20gS/MDVmNVMfyrx3FXYVxgXcoMYwaeF6dn9akaAxphWppOAFP507BcdkbQpqPyuCe9O2ksBTyM59KQfEJFKF4c8UlzOoHyVHIUHTk1WkDZrp+uTjDlOT6lCVTmInO5iTUThjUh69aRhxwa8xtt3Z6ULRVkQuCOhxQrZ6tTW5PzUBV7VJpcWRaYdvepBwOailOelOwuYV8MuBSACNaYhFK5J4FFg5hHmHYVXmYucmnMCDyKiYgtg1DQ7kLcsBSOgwcdanMYHSgKoBJqbDuUEgyS3TFKUyd2ORVrALCh1DE8bQKdhpkNrbtdX8USnHzDivRdZmGleHygOCF2Cue8GWAuNQ84puC96l+IGoBpUtV6L1+tehSXs6dziqPnnY4xmZpmLA/Mc025DeWDipDICOOMVFLIoGW6V58nzSudcVZFb3FViAWJzirjzIUwo59ah2oUzJj8KEUVGkYH5RmmxfNL0FWWSPAI49qdFAC27GKQEbxc8DGar+Swlq3JIoBweabGFcg7/rTuBGqlSfNHy0+5ji8gFW4NWSI88njFUr2RUQDHBovqMIkIi6ZpyAplm49BSQExKuQSMZqVpPN5AxjtRfUCNY8PuHeiUtGeTmgEqck8DtTJnEhAWmAxUZ5AT0q0sgjG1TTIztjx0xTdoVtx6mpAnE25cHrUDSkkjGabw7EFtoqPEYfajndRYCxDIF68GnLJuY5bJpgt26k5qysSKoIX5qLAOTkbX4qaNQy4Y8VHLjZzUQmKDaDmpsItbQi56ioJZj07VC00pOAOKkhww3OMUrANRTIcqCasLlBgLk+9OS4VT8uBSyyLKMjg0WGSoWx2zSmQryBuaq8HkqeXO73qX5CeHosBG903RgajJ8ztUjyIDtVc1JDGpOTxRYRFDAvcfnUnlwIe+aneLH8PFNKYHygH61ICBgTnhV9ac08QGNxYUgRWHI/KmrEhPzcCnYB32knhFGKafMb/AGfpTzJFGMIBn3qrLfANhAS/tTAUwt3DH6mm4lb5Y/3Y9TzSwmWdsy8fU1MURfQH2qkwKz2qBf3rMx9RwKbtiiA2uv8Au4qSWWPaR+8b8KicxiMEfJ7kc1VwFkmbZiNFB/vVFHGXG+ZyT6CnphyAilh3NTyS21sMgncew5oSEQtGByVLCqk3lJJzHj6097yWZyqhVH+1xVe4dNuN6l/Qc1rGNyRZbgLyisB2zyKhaSSX5pX3eijims8mQhUKvtQQc4JJPYYq2hhwGDKSH9KlM8cfMo3v6VGLSQsGdQoPvzSTQY4iJB/vGhICSfWSwwFCfQc1paPrEMSiOBN0kn97nFYCWz79x2n1Jre0YWdrg7Q0h/IVpHciR2WjzSMoyMM3U4wK6K2Xp92ub01ZCodp1VT91VI6VuW5XHC/8CzXXA5KiL+eacDUKninA1qYEgp1NFOqiRKKSjNAx1FNzRQBrKKkHSmqKkA4qBMSl7UhpCeKYg3YqJ3oY1XkY1JVhk8vUVRkOIyTU78tiqd6+0bRWZokVDyaKBRSLCiiigkM1DPNsXAGWPQCnu391eajjhOdzcmgCKKHLB5PndvXtWxp2nGRt7/cpdM04ytvkHy1vwxKihVGAKaVxXGxxCNQAMIOgoP3/lFPfpTF61qibjvu9O9Jd/JH7mpY14LHtVa5bzHPpTAqDhganDdKhccfShGyM0ATtUkbdqhU5FCNhqYFmjFR76ejZpEjWGKVWpXpg60ATKaU0xadQAw001IRTG60AJRzRxRQAYowKTmigBx4oBzTc460vXpQA8EY4rO1uxS9tHVhzir3I6Upxjmgadjy+fT3trto8HGflPYURicbt755H5V2WtWKEl0Xd3zXOyDyrpd4/d4P51m0aJlKBGEpmZ/l6BaZqICN5hbpzU9wm4K68fNwKSeNJTslGGx0rJo0TIDeJPJ8nyx9D9arnUIpLowAsrR8A+9Os7cQtMAN/PSq8tgv2hJ/uMPmx/jWUjWLNGWdVXYWBb1qCO/tUfyy6hl7etSzW6s4wcnIOR3qN9NtmYM4/eEEcVgaCZDybx8uRWZc6jNbO29GaLPJ9K0BDCjMgk+bG0Z54qSK2R/9cmeKhotFPMU8ZlQ5Ucj0YUyG2RN02PmIyKmS28tpFjOFU5RfUVK0i+VuVMsvUVlZplIpyoYlEu7/AHqoy3lrOzRCVVYHOa2JYVksx/tDmsOTQU3k7JOueD2qoq+42aVuQw6gtj71X44WI3SAZVchhWba6daoVQmX5uAN5rTt9OiLFEaUHbjBc1pyozJYcmOF13b3GS3atCJB5g/e/Lt6e9ZtjY3cBxFOoXOApHP51c89YfkuV8s5+91/lVpCbJYp8vtZvmzjaetTyjbMu37uOlEcAlAbK7l5DgdakcfqMD61VibgIi8bZJGeh9KaHCwsk53seA1SO7CE5bB/u+tUvNZcvKdqZxtNaJEMmj2RyLncSemKniKsXCjlOpNQW867DtBYk8Gpo9k5IKlH9PWqSM2TW9wHB3IM+tTtM27jjFRQRlJFj2DB71ZaNicJtxWlhCq7lSd2RQ3zKCKQrhMDgVCuTkK1IQ2W5CHqc0sE3mgEHI71m6zdbU8qFgZj1HpRpbtFbqhO5zSsNOxqysu3iqspJ/iqfa7R8rVaYhTgisqkGuhcasHK1yNm2njmmluOabIcnimsDiuY3tYOT0pyLtPNNXNPBoEKVDVGyVMopyqpPNMCqEUUwLluKnlA3cU0gLQBBIhzzUYiVj0qw7Lnioyc8AUWGiGUADAqEKxzmrG3actSlQwyKmxRCMDlvwphiZ2z0ycCp2VVGeuKm0qB72/jjxxmqhHmkkZyly6nV+HIF0zSGnfg7TXBa1dteX8lwTncciu48VXYstJW1jOGYBdtcHJD61119Fyoyoq75mUpQcc8E1XMbbSG+YVdkABIIzTHQCLA6mvPaOwpxRBlIBxTGhw3IIqyo8tvalkYBSw5NTcCrJGqcnk1E1w7DbjFPuA8i7y23Pam29tk72bikA6G3VmyxIFPaJEOYzQQ6LheRTS7LzkUAQyxEtnccVHOdq5ZcgdBU6PncoGfWoXxjPU9hTjuMs2wLJ7EflT1VUJLCqouCkHy9+tSWsxlUqRmhrUCO6Uv9z86rxqwbjnFXDw2D0qKQbG3DvTASM5bb1zU80SqoOckdqiGAwKjmoJ7jJKk1SQD5CT2pIo1eQEkAioA/GAc1YtIycnBqrCLYYg4zkCpnlBjHGMUyBPm5HFOnQg/JzU2GVpJC/3TgCkDgHIIqB9yn5j+FORNy/dxTsSW4pMNll4NWMIw54FVYnKqFYjFWl8vaN3IosBWmQ5/dEUiQyvw7FT6ippVGcRAYqSJcr/EDU2AiW0Y8MSxHepBEQcP2qYOB8rbifWpEDEYyrD9aLARoi544qfesQ5waaFYA7VBqPyyx+dcfWpaGTeesnQnNIYd/LPSCIAcClWPP32wKmwDhsVeCKYZUHUUm5YvvDI9arSymRuF4pgSbI5m5wKlKQxj5FXd61SIbOc7amTOPmOfegBzyIMknJ9KiR3djuGF+lSsygcjNQytI3Eabfwp2AHcDhePcjimEROP3nzH2PFRuiqf3u9z6CnbSVwEEY9O9UkAST7FKxqRVCUzMSRHsPqTUs7FGwxqrJIc4Ctn1JrRREK0aBd1xLuz/CKjXy94FtHnPWhUklJ2oxNSr5kKfMyp7Y5reOhJMlu6kFsL7Hk1KNiEnYWb1zxVI3C8YLO/rmrFupZTv4JqGhD2uOeVU1BLODny13mppIiq5jTd70195j5Cj8MUJARJGzfLIdjGtC0ltbMfOdzdyKySrg5BwB/ETVZ5meXIJCDqwFaRJZ3FlrcUrKkEKJjpxXU6fvkQO2Rn8q830SaCNGbecr0c9PyrstLvzdCJYmZh3bPH5V0RZzzR1ETdj2qaqltgL1/EmrOfet0zmZIDTgajBpwNUIWikzRuoAWim76KYG6Fp1JmkzUgBamMabJKq1XlkZunAoGkSSyKveqrzE/dGKDjvUMknpUMuwkr7FLHrWZI5kck1JdT7m29qhqChaKKDxSBhTTmkDZNSKuaBDVX8zWhp9oZnGRwKitLZpZAAK6K1gWGMKBzTSJbHRRLGgVRgCnjihuKUDIzWiViCGU44oiUtUbEtNjtVjIjXHrVAJO+2PAqr15p7kluaYaAIpBmo1GDVjbVeXINAyZOKVx3psPzCpDzxQBGDT1amlab0oEThqM1EDTs0ASg08VXDVKrUASGmEUuaQ0AJQaKDQAhpKU0lABRikzS5oAWg0maUGgCKWIOhyODXM6pYYZtw+ldWSPwqjqlv58RIHzCoauUmcekYKZfgKcio3Ia6WYc44NWr2Bow6twGrPj3Iu0ckHIrNmiFAEm6QHa0Z5A70xFR1d3G3jNJbAxS7XP3zTNU3KG8ngDg1m0bJlngbMjINVvmhlw5yCDjNSWxa4hXd97Awap6pDOzqQc+WDx7Vlyl3LRhiMJfb82fvVWSVkdVd19smltCzQkluoztpNQ09rm2Lo35dRU8pXMOnfeny/Ls5BXvVJ4pZfnTaq/xc96hs7meyZYrwExtwsg7fWtJCi7lC8MN3uc1DiPnI7dZXjCscAVMSy9gxFVVlZiV9KmtFLvyDUqNhcxNFCwdZNvzdRWhbBjJll4POe4pYh9wkfU9qmuLtI42G3DnirsLmI9qyM20srZ/OiTaG2SrmMjketNgt2lUMjsC3apHiZVO/kj1rRIhsrS281nIXt2aW2PVP7v0qxBiTbMkhIPY+vvUCyTQkgsWVuqjsKhlZrdvPt+FP3kP8xV2Jua+9G/1/3v9mq0kgLlMfe+6aqw3fnpuK7vQjpU8bKxBPWq5QuXIlTyCj/exyafBEQAQ/zZ/MVXd1wuOo6jvU1sMuCOKpCLczsGGFwaajyAMAvXrUjnIAU5YdaCQeC20mqEKzBo8fxVTv5wi+Ta/NKy8/7P/wBem3M7ktFbtlh1b0p8dskEa7eWfqx6k1IjEurSSGPzeWbqxP8AF7Vf0q0eSZJd3yAdKnvF3W7j0GataKubYV04empTVzjxc3Gm7GiIxtAArN1eMJhxWqvyisvWCSQterjqUY0TxsDUnKvvoZQUnnNPwSKRUxxUm3jg18s0fW3GjntUiqKWNMDJpTwaVgGkkU05qQnNNNIZE+QKhZmJqyy5phAHWpKK5460qjinvtbpTBg8UAhWUEVGcKtOZtvBqNyCKARE75HpXT+CbIENduOMcVzsKCWRI1GSxxXcfJpOgucbCEOPrXVho68xz1n0OV8WXn2vU2wflj4FYj7jUt05aUyN1JNVsv1b7q1lVldm0FZEbDkg1E5wRmlaTe3FRTZeTA7Vzs3ImzLPtXillQJwM1NBGiEvIcYqOaRXYsJAKzAoXQBBFPtCUh2vyO1Q3e6TIHT1p8IZQqseMVQE8m4cqcCoSymQoepqwDv/AN0dahMW6RpBwAeKQCbQjAA8d6hYmVy+M4OKsNA+eeQ3OaWKAbG2n8KSYylJCVU7jgdRTLeQwuB2IrRmCtEMjpWVcownQx9K0QGhGiyLuB+bvSSxl1wOgqO2JWQ4PWp2YqCR070ySgxIyQfu1XZgASw5NTSSAu6qOtUZSSQCa0jECxbkNnFaFtxjdxWXajklTV5ZMACm4k3LnmtvKoRile42gL3qi7NyUcZpjPKAPMYVHKVcnYqz5YHNOYAkBWYe1Q28m5sMvNX0AXBwBQBGsMhxsBP1qyYGCBmIz6U6J+etRXYYchzipuBGJ9kgAALVN9qOdoXBNVVTPLAMPbrU8TDH3GUe4oAWSbPyl2J+lSRluNkgPtRIEEQyvB71GHRSMKMetAFxZZBnYjGkklc/60AfjSRXAdOH6elKhyjb9rfWkwI5JmAyhOKja9fZjANTeZAvD/pUYa13njP0pWGVzPM3PCip458rgpz60kkaSHMTL9DTWV1GB8tKwEqRM77mfA9KdIwHEfWo4wduT+dKZFQcjPvRYB6I/wDHKFHoKeXiX+MnHtVR5IidzEilW4h/hO/607CJpLteiqx/Cmm5DDmI49xTXuI1GcAVD9tgJ2h+feqAlkKSLgRgHsajWyiY5lYY70efGTgHNQv5zPmKHev1pq4iWS2gXKxyOfbtUAtYRkvGCf8AeqwtndSDOFQemaa0Bj+8Du9ua0TZIkNpbsOBsP51KYYUQ75cY9RVV3IBKlqiUvIcsuQP7xpagWklJysKbwO5qvLKzPskXd7UglmU7Yxj/dpssc5+Zsg1WoEcptyrfaG3kdF9KqGRZCEhj8wD+EjAH41O0CsDuQ7jTxbN5YQNtU9h1qoyEOgKABZ5BGOyp82K6jSr6KJUWPd9QOTXMRWUVvyzfN2z1rV07UUgI2KJH7bTwK0jImSO60+580AeWf8AgQIrTQnH8Irl9P1VzhpmUs38C1uW19JP8q28gX++eldkdUcc42Zoqc04nFV/O205Zt1UZkuaTNNzRmmA6im7qKAOjJ79BUDyZOFOKWTJ78VG3IwBSGMkxjJ5NQMzHjpT2cL7moJJPXisyojXkxxVa5fy0LZ60/OTzVW9bJC+lSxlcfMcmnimrxS5xQWOztprfPwKQtnjvUsUeOTSIGxRkVctbZpWwBRbwGWQAVv2tssEY45qlElyCztVgQcfNVgUCitEjO4jDJpjtsU1ITUM3JFMYQqApduppsh3HPpTZX6KKbuwcUAKeWoK0qjJ+lPkGEoAhIqGZeKnQ5pkq5oGQQvtOKtbeM1VKbWzVmF8jFAClc0xlqcClKcUCKpGKSpmSmlKAIwakVqjINFAE6tT6gQ1MvSgBDQaDQaAENJSmkoASikozQAtLikzRmgAxQRnrRmjdSAy9UsFmQkCuSmingcoR64Nd86bwRWfeaak4PHapaLTOJDK7RlemTmpnCOjKx5PNWLvS3tmOzqvOKpTggNu4JHX0qGjRMZYElNmeFJz+FWJJI1VpZOh4/A1Qti0dy23lWFTzR+ZEwbuOBUOJXMR2zrDO8LrxJ8yN6j0pl9fNayRDbmEnDH0pFRpIBHn97DwtKgWeErJyBwR70uUdy1JBDLA2FyjDcDWf81ttX70Z791FPt5HiJtJCwZPut/eWrZVWX5vxFS43KuRW8YySVA3dGq3FCvnbejLyNo4quiPDjDN5IP5Vpwurwn5Fz/AAEcip5QuMMchG4NtA7Yp84jaEeZyx6HFCyNnEhwD7daSViflB3J3OOlOwrkckMkSgqMlOARxxTBfo+EkbaV65qeTekQ2N5oxwTWVePG+FkTa3Q4qrAaMs8YTghvRx/hWLqN0GkZGfcD/CKcjRIrIF2qa5/WdQsrZsBwzL1HvTUbktmtb36WpyJSy/xp/wDXqQeILIndFKRt6qa8/v8AW5JHH2Utn+6Kbp+n3OqyLs/d4PzVrykHfR+Jlmu1SIbxnn2rsNJbz7UuTgVzHhzwykRR2T5ick+tdcnk2sZSNck8YqSh6MV3M3AP8VRyg3DDyRtQfxetMRHmlLzHCjgIOlWI5AF8tcYXsKAI0Xy/uih3746Usw77sH0qEvnhzSAZdSBbd/U1e0UYswe9ZdwNzhc8GtbTHCjZ2rqwcl7TVnBjov2TsXhk1lasf3oFahYL/FWLfP5s59BXoY+pF07I83Lqb9rqV2GaVF7k03aB3p2eOK+bZ9OPPsaQEGm5wKbzmpAezAVGZOaCD3puMmpLH+YKaRuoCUvSpKIzFtqPIU1MzdjVd8BqCSOVwTTD0p7oG5FNjTzG2ikWbXhLTzc3nmsPlTkVd8b3oYpaIeByfyrZ0qBNL0fzGGGCljXn2pXjXV1LKTncxx9K73+7p+pyJc8yGQFgM1C7YBBoZ3AwagZjnmvNbO1IjH+tHvUuwZLjtVWZyHGKswyYTB71BRWu2DJwaoCNpWwvAFXZ48yFh92oUbaCoHWkBHNj5VXt1obJHTjtT44CwLngmrJixGMc4FFyiCLg4zwetTxhQSh6E1G6bVHqafGQr89qm4D5cKyj0qOQAHjjNNmmDNwPxqosjCYBjkE0JiJhHtB3NxVe7C4GBtA71ekXaR3BGazr9wU+U9a3iBXtp1aMk9QavSXCtEigduawIiRK3PGa1bcoFCseSK0cREF0QJA6jb61TnXJyPwrQvAhjx1z0qnLiCHON2etaRIG2jFEbd0qfzAxBU8VW25iDxnKmiJz5e3bVMkmcgHrThHuAOaiWMsanQEDFZjLEGIR8yndUrS8cZJqFSzL93JqeNQUz0alYokSQlOCQakTzJB83SqLMVbcWxUq30ajD7m+lQ0BfjhjU5Zs1JJMijAH6VnpfD/lkmAe7VOkkrYyMg9xSGPacMduOPSl2KVxt5pY/L8zDpk09w20lfu+lAEMUZTIA/KnNCxU4zUiyAL1H0qN7rZ/Fx6UARGIbfvfMOxoQwsuNuGod0kG85B9qjZlxk/LQA/7OCPkBz6k1YigAX962PxqFHyvBzQ7sF+YDHqaYiyYiw+SZcVC0dwfl3qV+gqq8pAwTke1NF5t4VSPqKAJZLQn/lrj6imCKNTjO76VIrLKMtIMntTljKjAAOadgGqydMYFORbVuSMtTcAHDgLS+UJO21fVaLATL5CDhck+1K1ztGIwBUAQxD91IWHfdS5DkZUZ9RS1AZM87D5pTj0FVHgjb5iZM/71XkKbzzuHpUqiFxgRDd7mi7JM5LdiP3asB7mpPs02MvKqD3rRAVflK4HtTHMOcOjMPei7Aoqsq/d2uPXFKd3V0Yn61caRAuIwU9qqtchDgoS3qaq7AFBKEHA9qAwOf3Qx/vU0fM2WwoPfNII4S20bnB64pgQkQLL+8U7vXdmpYpPmAjUf985qzBa24J/dj8anRkiYBYwR7GjmASxnuUmXy1z74zXR263NwmZcD2ztrMt3AClMR+wrXs1WVf3jK3uDmu2nM56iNS0i8tAFf8/mrQjkPA+U/QVUt1CRgoMD34qxuJweK6TkJyaYTSbs0maAFzRSUVVgN8txUEkp6Ch32jFVpJQuayYwkcIMnrVV5CWzTXkMjZNIBnrUGhMgGCx7VnyvvlJFXLh/Lh29zVFRgY9aQx+McimvknC0OTtCL1qSNCqgHrRYLiwwg8nrVhELMFApqoTgL1NbOl2Wwb5BVpXMmybTrRYkDMOau9aT6dKM1aRDYhooopiFXk1VmOJDVpeDVKc5kNBQwnLVIBxUaDBp4OaAJYxg0Sn5aA2Ka/zCgBkZxTsZpBxTlOaCivOMdKZESDViQetMAFAEqNUucioFqVelBAdTQRQvWnd6AIWFRsKssoqNkoGV84NSJJQ8eKjxigCyGzQaiRqkHNAC0UUUAIaaaeRTSKBobikxTqKAYh6UgFKaVRQITpSbsUppNmaRZSltUmnZsZGO9ZOpaemHIQYx6VuOUjl+ZsDFUb+6hKFUOeKQzkp7ErJFInAyQaW4glWXcOcVcZ/MgI9HP86aZN4AXk9KloEZ80QSRZcYz1qIbIpiAPlatORUmiMb8Ec1V8pJMMv8FSXcr3lsblFdP9ZCdwPcjrirFsonhB/iHWhY92WDVWdGs5PORm2Nww9PepGXtyIrLINykYNMt5RZMI5D+6b7p9KijdZVO5s7ulG4iLypl3IT19KRRckOee2KhtJG2kN74NY897NZSiOUg27naG9Kjk8QQ2vyjlfp0pAak7yWoZy5Cddp7Vzup+IIIjnBcn0rO1TxBJeOyAkIeAR3rPhtDOu3nP8AtVYDL3X7yR22lQv61iC3n1KZn2tvz+FdUdEibLKOAOc1b0jSgbkErsjAq0xMpaD4ZCMGufvr/C3vXY6Fp1pBI2SB/sr1q9DBCis49Bx9KsxKVjV2RRzxSciLFm3Z9xjQeWDwM9auRqtuSFG9upY+9QsMxb9uWAzupYJQ8WcEEnBz7VIyUIdue5qKA4dj3oaY+bwflxUQlAkxSbAe75bJqORxtLd6Y8vUVA7sTgdKyZSHqGaQP+FTo8kbDBqFT8oH409icg0RbWqYNJqzCW9l+0bSeDTCWJ60rRh239xS7cUSqSno2KFOMNYoAppSMUqU7YSazsajQtIwqbHFRsM1LKGKN1LsApwX0oJx1qChjCmnFJI5zxTC3rUlA/NQOmTVgrxTGFAiq4xWx4TsPtV75jjKJWXIufu/e7V3Ph61FhpisRhiu5m/Wt6MLyuZVZWiUvG195FkLeM4aT+XSuCIVduWrb8R3wu7+Qk5UHC/SufuGGeKjFVbysiqEdLsLiT+6arM7d6XDZodeOa47nQMBUnLc04yqx29AKidgDiMZNFoJJGJkXGKRQ8Bicvwo6Uxuf4cVZRkCNu5xVbeJGOwHAoAl8poYQCetNEu4bAPxokeWUYK8U1yY06daQx4QMRnjHem3LxIdo6+tQlpH4BwKYSSx3Y4o5WAh+f7tMeFgA5HSpiEUja3WnT8RAZqkrAQTS7Fz13Cs2+k8q33DqelaCurxlW4YdKydRlRoSo55rpgrsUigt6hY7U+Y06S92Jj+KqJbY+VFBKuN+fmrs5EYcxKb2XB5wB2p6XhuFCN+tVEO5iCKk2+UwbtRyIOY04H2Rsm3g9qkt1+bpiq0NwpxViOULWbTDmRa24+bctOiRmPP4VCjZ++W3elWY5VA+6w/A1PK30BSQYkQ4ABFSjJGGbaaRCD8wWQn/cNSIDnPkTMPZD/AIUvZyHzIcln5qBiQfWnLajft2KQP9mp4o7hyfKt5cHp8h/wq1FYX0i/Javn3BpeykLnRRe22LhYwRUka+XHwrfStaHSdQaPabM59aZPo2rxr+6s91T7KfYfOigQ8igDCkd6I1cMSSX9hWhDomtyjmx2/wDAqli8Ma3zi0UfVhTVGfYOePcytseM7HXnnNQuiufmXFdCnhHXX6xJH6fOKni8Caq/+umVfyq/YTJ9tE4+bMXReKlheO5g6LuWu3h+H0mQZL3B7/LmpG+HSj7l+B/wCn9XkL28TgfvcDaGpsiEDYd0m70ruJ/hxMw+W/B9tuKoz/DrUl+4+9f72cULDyQe3ice8DQ/MgLf7PpTfNlPWOuqfwDrX8LA/QiqkvgzX4n5g3gf7Y5pOjIftYmGRHtDYI9eOlKVcEMd5Q9CtaD6TqMGRNYuoH935qYsTxxkPFKpP8LIal05IamijLFIVypYg+vUURRTKygMSPftV/IGMnbn1pWBj6Mrio17D5iszPGcTDYP73apEUAb4mD/AF6VFMZiOoZP7rVV8ty2YCwP90/0pDLwdSTmIKaY07ocBMfWqhZpCFBYOOh9asbpwo6SHuPSnygPS4kk4wf+A1N5MhXOH/E1AkjgZ2/pip1mmZcAD8WosIjeCRjncRTfszt96UVKRdNz8pH+8KVVmbgxAn/eosFyHyolUJu3H9Kljtm/g2gewpqQT7d0iiP60ocgFS4J9qGguyZQkPMrqfYVFLqFsoIWJyfY0wwo/wAznPtUqQxBflAX8M1NiriWt87EbIiF/wBqte1vZkYbYlKd9g6fWsfZu4G76gVp2dnujG9zW1N2ZM1dG1bzzSgBpVf/AGU7fWtOBXwN7VQtFgi2+UW3fxHFXlkjL/fruizhkkiyrbTy2RTt5J46VE7qq5JGKI3DcrnFbIzJs+xopM/WimBpSyhVJY/QVQkdmOSeabNMXfNNyWrnbLSHoeanhUuc9qLS3aUnHSpLhDaxEg80iildvvfaO1RucKKd1G6kbDkCkhMIlIbcatBc4NNUcAVd060ad8n7taJGbZPplmWcOw4rYGF6dBSBBFGFXtTc8VZLHE0lIDThQIWg0UUAKtUbj/XVeHWqN1xJmgpDR1pU9qRBupU+VqAHnjrRn5eKJeelNXhcGgBRjFAODxSFeKF4oAH5poFK5zSAUAAPNSA0zbTgKBjwacTTFpSaAFzSUtIaBBgGo3jzTxmlNAFVlIp6MRT3BqFsg0AWAaUVCr09WoAkJpppCaQUDQuKQinCloBkeKUcUppKAEzVa8vFgjPrVhvkRjXOX0rSTMM8UwI7m6eaQljxULkEUjA5pcDHNFhcxXjXYrA+tQxtsk2+9WWFQyR/NuFS0NMkkgEi5XrWdcRyQA7ehrQSVoyAakcRzHaalo0TMA3slqg+XINJJeiVgpGd3WtKXT45tyZ6Hiqy6YAz44OOKzaLTMn+1BaB1KhtnWqU3iP5iqruBPT0q3rOnbZgOgk61kxachmLqMMrcD1pWHcqalqEs0bKCcdQKqQRu7qJTgEd6syWz/bGLnAXnBrWjtEniDHbuA4xQBm29ogKtjgnpW1a6cjqHAxtNRWlmVYeZ1B6Vq26Og9AxpXENeJBEAnC9Me9XbSyZFUO27cOKY0aphSOM5rWto12LIeGXkCnzDF8qOM+Wy5JqxtVyAeEHSmgrLJnowFMnVjgRtkKeaLiLLne2zoMVAzeW6uPu9GFNMhIJ7L0pZPniJ9aBiu4MmAeDzUb8yA+tQxNhwG6gYp4Pz89qzbGPYcVHtYEYpX9u9CbhmpGOAOKljHADVCu7OanC8ZpDQ3B+bFKmSgOPanqvp3ogBBdPTmjluFxB1xU6DikWLvSnIptANcc0mzvTutLnjFZMaI+gqJxk1KRmo2GKg0RA2BUbc06U4NRk5qSiUOAlRM4pDmo1yXxQI1PD1ib6+UsP3acmug8U6iLDT/LQ4dhgAVL4bshZ6fvbhn5b6VyfiW+N7qLOT+7TgLXY/3dK/VnM/fmYUpdiWbqaqTqd/FXZG3k46CqpVmy1eXLV3O6KshsW09TzSOAzYJO2phFx1+ak2gnbmpsMiji+Y7RwO9Ru7DParbDyouDVNmTcSTz6UxkaKWzltoNToyxRkAAA96qOVVsls57U5riKNAG+YHtQBYZ1A+91qGSRRwTmqkt8C/TCVELgM3H3apQYyy9wAMKuajeTcMkYqF51X7vNNUtLz0FWosC5AnmEH0p14+1elRWzrEpy1Q3twhjPzUKN2TzFW7n8tyP9k1jTyF25NWgbm+nC2ltJM33eBXSaP8ADXWtTKy3AWzjP/PQZ/lXdTpNamMqi6nETsqAUltBLdPttg0rHsOSK9p0z4S6PBg6hO8r+iuQPyIrqtM8M6NpcYFpp8YYfxMoJ/PFdaic0qq6HiWkfD/XdQwyW5hB7ygrXY6b8ImKA6pesnqIsEfrXqKkIuMYHotDNkcZrTlRi6jOOs/hp4et1AkiM5Hd8c/lWlF4K8Owfd0q3/I/41t7qC1FkTzszU8LaAvP9l2/5H/GpU0DRU+5plv+Rq2Xo301FMnnZXj0bSo23Jp8Cn2Bq0tpZr923jH4U3f70m+nyonmZMqxJ9xFH4U7zcdMVWMg9aTePWnyofMWfNpPNPrVUyD1pDIKLIOZvqWvN96TzPeqZc0m807INe5d8wetJ5g9ap7mpMtRoFi75g9aPNAqn81GG9aegWLnnijzxiqXPrQc+tBJc+0IaUMG6VQAweKkV2HSjlQXLTnHcfnUEsFvKMSRo34UokbvT/vCk4IpSZk3mgaPdf62xj+oWsu68DWEq/6NK0R/uhRgV1LLxTRx0rN04lqpI8/vfAd/HkwTRyL2GcGsa68O30CHz7STzE+6yjIr1gOR3pfMBHKg/WsnQizRVmjxSYLCf3yNG4/vjBzUips/ebutet3Vhp92CJ7WJs98DNVU0DSk/wCXf5ffFZvD22NFXXU82EiPxsyPUU77PEf9XHIT7CvUU0/T14W0iH/ARU0dvaxcpaxD/gApfV/MPbrseUHT7tvljs5z6fu+KP7D1uX7lpIn+1tOa9c8xB0UD6cU0zD1H50/q5Pt7Hkv/CM69jLxuyimyaPqERG+3lHuFr1p7njg03zVlwCin61Tw6BV2eRPZXCEgpKPqKiKvAu5z0r194osHMMRP+0KiksbOZQJLSA/RRUfVi1XPJo7xcf69l9hVq1vS2QzsvcF+M16HceG9IuFw1qIz6pgf0rPn8Eaa33ZZfoz0Kg0X7dHMWt/OX2q77T/AHeRWzbwyyAO7bVPcdatQeCbKJ8i4mX2WQgVbTw3aRt/r7j/AL+HFbKLRzylFkVtBbRnktI3qRVwAA8LgexqWHSYY+Ekf6k5qb+zsD5ZC1WZlaip/sL/AN79aKY7FXjNaOm2DTsGIwnc03SdNNziRgQgroPlijCRjAFZJFNkTLHa2+1RzXOX83mzYI6VrajNiMkNWKFByzGkwGNwMfpT4EyeetMY5NX9OtGnYADjuaaQNj7K1a4kAA+X1rft40t4wqgUyGJYI9qihmOasyHu2aYOTQT70i7fWmIkAFOxTQV7Gjd70AOHJoPWm55pRyaBjh1qnej5s1cUVDeL8vFAIqRHAqQDJzUKelTIcUDFYYNIeTTm5FIooAeq/LUbrg1IDxSMMigCButOSh/vU9RQAu2jbQc0c0DCiiigkWkopaBCUUhNGaBgaYwp9IRQMgI5pVbFPK81Gy0ASbs0ZxUYOKcDmgCQNRTKMmgB9FNzRmgCrqdx5cJAPWueJJJY960dYfdJj0rNPTFNEtjSaQ0pFJiqJGkU1qkNNIoHchZaYwIqwV4phWpHzFcSMpzTxOCwJpWjyCKgYBVOaho0UhNRiiuos9CtY0lkwCOnpWo5ypC96fD8vB/D6VDRomZEdiHfdKvWrC2axN8i8VqsY2XaVqP91jGKixdzOEBaTdirMSgkZ7VODFnaKa0ahvlNDiIZs+dmf1GBVlnZn9O2KcLSR0+7J68Unyg7e/fNZ2sMljV96mpQflA781V+0CPANKZ1Tmi47EvIBB6GnB9qBSaoy3XHFMEruQc1DmVyluTG8N3p4wQzDrVQFnGO9SwEg7T1pXCxImeKlApFWnYpgKF4qdF+So4xkU8HHFUokjwBnFNUYl3f3uKXnGafsyPpVJASDpTXpy9KaxzUtDQ0CmMcGnHimNzWbLQE1E705jUT1kykQTHmmZ4p0tR1mWOP3K0PD1gby9XcMonzNVFPn+T+JuK7bRbMWFgCwxIw3NXRQhzO7MasrIh8RX4sNP2ocOwwB7VwEzltxPVjmtPxHfm81BiD8i8AfSsguDSrz5nZFUqdldjWUIDzUK4I64p00hU9M1GDuHIxXGzpHA4ySaauFyzGonl52/wio5GMvK/cFQMknkaQYB+lVxGBuLcmrPyJDu9KbFFJc/JBE0rnsozVJN7CbS3KUqgr834Vn3b7B96uwsPBWrah/rcW6e7YNbVh8M7BCDe3c1wf4lOCK66eHle7MHXSPJC/m8IXb/cGf5VctNN1K5TbbWs7+5Qj+le4WHhbQ9Ox9n06Hj+IjmteNUiGIlCfQV2Qw/cxliDxfSvAev3GHeBEHu4roLX4b3rf8fl4I/8AZXBr0ksT3NMfl1rVYdIyeIl0OOtfhxpyY+0zPN+la1r4N0W2Axb7sepNbZ60Zq1Tguhk6s31ILaysrXiG3jT6gVa+nFRbqaXNXZdCeZvclIHekJHrUBc0ZNMCQvio2lNBppA9KAE82jfUZHtTS2KCbEhemGSm5zS7c0BYTzDRvNLgUuBQFhuTRTsUYoHYTApdopeKUUBYTbS7acBTsH0oAjIpNpqTax7UbG9KYiIhqAGqXy2pwiPrQBWYEUbs1bVE/iFKYY2+7VXJKqilpJkZDxTAzd6u5JMRTlbFQljSbjQMtZzRszUCManRuKhlojIxTGNTPVdxQA00Z9aQmm7uaAJeKCaZvAFNaWkA5kJqvJE/UVKHNBc0AVMyDqKcJMVZ+VuopjQqelIYwSntS+c1MZGWm78dRQBOJj3pRIM1DuBo78UgLG8EU7IxVU5FAlI4oAs8dqQMy9DUSyg9aeGB707ASeYaKZxRRZDuzoIkWCIRqMYFQTNhT61K7d/TrVC9m2nNYSNEZ16+9wo6CqUh5KipZ3wW9TTI034z1NZlkljatO4AHFdJaxLBGEUc96gsLcW0IJHzGrK9c1pEybFOaTaTTuaMGrJGNFnvSCMdzUmaBQIZsHrTgnvSkUmKAHqKXHNJ2oVuaBihqSYbk5p4XJpJB8hoEjNkGyX2qSPmidcrupLU8Ggseh+bFOI5puMNmn/AMOaBAw44qPJHWp05WmSCgCFiM1IhqJ1JNKuRQBKTSU3NLQAUUUUAFGaKKACikpM0AOzSUmaWgoQ000402gQhWgClNJmgYtFFFAhKKKD0oAwdTObg1TPWrV+c3B+tVX61SM5DaKKKZI09aQ9KU9aSgQ2jFOopjGEVDLHuHFWCKaRUtFplIQ47U1lwRV4rkVFJHzU2NOYrGmHrU7JUbLUNFJkQX589qtaRatd6ikY+7nmq3QV1fgyyUJJdOOTwKqKuwkzU1B7fT9OwyL8qlRx3xXnay+ZcO3Qnmuh8b3++4Fso+71+tcsT5Ue/vWdWNth09y68ZYZphUk4otJt6DNWQmWzXIzcreX7VNFHgVKI+amROKXKHMRxx4+tSCPnPengYHvT1Ax71okTcaM07FGOaWrsTcVDg04Dn60lODYIpgSKvNPBx+NDnCgimk8fSi4xQ2aYfvU3OKUnis2y0PYjbUBfBpJHNQM3NYSkWkTMailfApheo5W4qGy1EUsDTajBqS0hlubpIYxkscVMdXYpuyNjwvpxuZzcSj90h4962PFWoixsQgOJH4/Cr9tBHpun4bARFyfrXnviDUX1K8Zs/KDgfSu2TVKnbqzkjH2k/JFKWQOSe5qBjmjay9elI0kada8pttnclYdjHzHv61DLKR93bTGmmuH8qBWb6DNbGj+FNQvH/eqI4/72efyrSFKUhOUUr3Oecksd+38KtWVpc3vyW1s0m704Fd/p3g7T7Rw0q+e/qeK34baCBdsKKg9AK6o4Vvc5pYhLY4zSfBYG2TVWZj18pOPzrrLLT7O0QLBAkZ9SBmrVNI5zXdCjGHQ5pVZSHZx0o3VHmjNa2MrkhwetGabmjNUSOzSUmaKoAooooAaRRtoJpaChpUU04FSFSab5eaAIyaTk9qnWId6cEAoArMpPaomjY9BWhtHpRtHpSC5nCF/SnrC/pV7HtRk0Bcqi3NKLY1Z5pcGgLlcW1O+zCpsUYoC5D5C0oiWpMUYFADQiinYUdqSloEJ+FIfpSigg0xjfwppzT8UjCgCIk96bv2mnPxUTkYpXJHgiQ81MLRGGaohyp4q7azZGDTuKw1rZRTGhAq63NRMuaYFXYBSjipjHTSlAxnWmOvFTAU2TpTApScVFuqWbrUB60APDUjMKQGkdhSAUUZqLPNOFAD99AkxTeKQsKQyTfnrSFFao91LvoARocdKZlkPNSGQimlw3UUgGGUHrRvWmuinpTANtAEwIp6tioA1SLTAfvoptFMDoZ325Wsi/lDEeoq/eShQzGsWQmSTf2rlk9TaI3aZDuNaum2YGJJB9BUWm2nnPuYfKK20QAADpSSFJ9BjcrzSJUpTPAqHOx8GtUjMkFO7U0HNOHSmA00UGigBTSUpppoAf2oHAoHSmsSBQBIrU7IIqtvI7U9JeOlADJU/dtVO2kAOO4rRJDJjHWscBo7thjigZo/e+anf8siKgickYqxHyKAGwnjFEjZpB8spFDDGTQAw0DFDU3PNBQ6lFNBpRQSFFFFABRRQaAG0UUUFBRRRQAUUUUABpppaKBiUUUUCAd6D0NA70h6GgRz97/x8H61WfrVnUOLg/Wqx5NUiJDaKcaSmIYetNNPPWmmggKKKKYwooooKEprU6mtSGNZQaheLFWDTSCadrjuQwWxmnWNR96u4tlXS9OVTxtXJ+tYvhiz867LsOE/nVzxbdBIBAp+ZutOMbK5LldnF6pKbi8kk9TVG5B24x2q/5fzEGopYwe3SsJq5tBmfDKYmAPQ1u2jBogetYd1FjkCrGn3RjARjXPKJumbOOaeKjhcOuRU1KwhKUUtFUAUCiigQtPWo80uSKALAbio2bmo95xTd2TUhYc70xpMCmSGopG4rORqhXlNQtLTWYVEzVzSNES78VFJLUUktQl8mszRFpZM12fhXTPs8X2uVfnb7ue1YHhbSzfXYkcfuo+TXUeIdXh0iwZVK+YRhFrso07e8zmq1PsoyPGmtZH2SFuP4iK4t5lJJBxjtUkcF/rNywhR3LnlugFdVovgqKJFk1CTzX67V4zU1ISqyKhKMInK2VreajIEtomIPGccCujsPA5Uh76ckf3Vrr7W2htU8uGJUA6YFSn3rWnhYrcznXb2KFho1jYKBBbIh/vKOavlgMbQRS0012QpqOxzym2LnPJpeKbRnFWZD8UhFJmgmgY0ilVM0MSKaJDQA8xmoyAOtP3setG3PWmFhgYU4ZPSnBFFL06Uh2E2mjaaXmjmmITbQBT8GjBpgJjijFLilAoC4lFGOaMUBcKKMUYoEFFGKMUhC0UnNHNAxaKMUYoENNFBooGJS0mKXFACCnUgFKBTEFNNOIpMUx3IZFqBxVthntUbR5pWAokc1LAxBpJEwTxTV4NIDTjbcgpcZqC3OOPWrK0CGFajIqYimEUwIyKjcVORUbiqGZ8/eqzdatXHU1VbrUlAKR6BSNSER09ab3pwqgHUhopDRYQhpKcaSiwCEcU008mm4oC4lGKXFITQFxtOWmmnLSGPopKKYFzVJCdqA8d6jtITNIEA4qOYmSU989K2tNthFErkcnpXNubvYsxQiKMKoxipF4o+tKBmtErGIh4OahuU43jrU9NYbuvSkBDEc4qYcCqyHa5+tWV5FMBDSEUvelxxQA3tSEd6X2qKR8HbQBMHG2k3ZFR8Ypy9KAFPTpTM47VIM4pj0ASRnI6VTugNxYDmrcLjj3qpMcyOKCiOB+1WI27VTX5WqwrjBNADrj5XVx0pw5XPrQw8yAj0qOFtwI/u0CHNTCeacxphPNBQ4GlBpgNKDQIfmjNNzRmgB2aM03NGaAFooooAKKKKBiUUUUAFFFFABTTTqaaADtTe9O7U0daCTI1aPEm7FUMVtarFuizWLntVIGhDSUppKZIh6009KU9aaaCQooopiCiiig0EooooAMUh4pans4PPuFj+9uNNK4m7HS+G4fJsRI3Vua5rXZ/tN+57A4H4V1d6wstKOONqY/GuJdyzOzdSSauWisQtyuV+emyJUgOXpz1iWUJoQapSW5Bytasi5qJo89qiSNIyHaVJhdh7CtGsmIeVJmtKFw61i0apkppuaCabmpAduoBppppfFAyXIpGYYqBpKjeU4qWwROZBTDKKpvMagac+tS2aJGj5oPeo3dT6Vm/aDUb3ZHes2y0i9K1V3k21Skumbbj5mq1a6bqt86rDauAf4yOKz5W9ht2IpZsU/S4ZdQvUhiUsSeSOwro9P8DPLg39wQPSOus0vRrHS0xaxANjlj1NbU8PzO7M5VbLQm0qwj06xSJFy2PmPqazbrw7b31+bu/kM3PyoegrbLVH1r0HFJWRw3bdxkEEFvGEt4wqj0FPx6U75R05pCw71KVh3Yg60d6bkUZ5pjuOwabilMgAqNpRTEx+RTXlVBuf8zWdquqWumW5mndQOy+tefa34rutQZ0gYxQ9lHWmI7y/8SWFoSHmBYf3eaw7jx7bq58uMvj1yK8/Ylzlzub1NJVcom7HcP8QGP3bZfzNR/wDCfy/8+6fma4qinyiudr/wsCb/AJ9k/M0f8LBm/wCfZPzNcXgUYFPlFzHa/wDCwpv+fVPzNH/Cwpv+fVPzNcV+VH5Ucoc52v8AwsKb/n2T8zR/wsKb/n1T8zXFUUcocx23/CxJv+fVPzNH/CxJv+fWP8zXEY9qMe1HKK52/wDwsSb/AJ9U/M0f8LEm/wCfVPzNcRj2ox7UcoXO3/4WHN/z6x/maP8AhYc//PrH+ZriMe1Lj2o5Qudt/wALDuP+fWP8zR/wsO4/59Y/zNcTRQogdt/wsO4/59Y/zNH/AAsO4/59Y/zNcTRT5QO2/wCFhz/8+kf5mj/hYc//AD6R/ma4mijlA7b/AIWHcf8APrH+Zo/4WHcf8+sf5muJoo5QO2/4WHP/AM+sf5mj/hYc/wDz6x/ma4nBowaOUDtv+Fhz/wDPpH+Zo/4WHP8A8+kf5muIxRijlC52/wDwsSf/AJ9I/wAzR/wsSf8A59I/zNcTijFFgudt/wALEn/59I/zNH/CxJ/+fSP8zXE4oxRYLnb/APCw5/8An0j/ADNIfiHP/wA+kf5muJNNzRYOY7N/H8x/5dU/M1H/AMJ7Ln/j1T8zXIUZosHMdrH8QJh0tE/76NPHxEn/AOfVP++jXD5oosFzuv8AhY03e1T/AL6NTR/EVeN9qPzNcAMUUWHc9QtfHWnTAecDGT7Gte21W0vVBgmQ57bhmvF+KlguZ7dt0MjKR6NSsNM9enbk1XauR0LxaDtg1D6B/wDGuuR1kQOhDKRkEVJdxBQaUUGkIZilpcUYqgCkNOxSGi4hDSUGkouApFJS5oxQFhKaafimGgLBilFFKKBhRRRQBc0uAzT5I4Wt5QFGKhsrcW8AH8R61NXOkatjqKKKsyCiiigZXuECOpp49RVPUZisiipbebK0AWR05oLZGBURfJpydaBATtUmq0fzyZNS3JwKbbrxmgofj56kpGGFBpQfloBjgcCmPTgM02Q8UCQicGqcpy7fWrkYzVOUYlagoaq805VNRksDxTldgKALEJ7VHJ+5nz2aiNtp+tSXKeZFuHUUAwfkVEwpYX3IPUcU7FA0RUZpxWmlaADdSb6QqaaVNAh3minBxUJWk2+9AyyHFKHqryO9G9hQBczSZqsJWpRKaALGaWoBJTvMoAkzS1GHFLvFAD6aab5go3igB4XikxzTgflpO1BBFcqHjIrnp18uUg10RGTWRqsBD7hTQ2UD0pppx6U01QgNNNONNoJCikozQAtFNzRmgANFITRmmUOzWz4bg3S+cRwtYQJyR612Wh2/lWAJ4Lc1USZFHxbc4jSFT1OTXMHpWl4jn82/b0BrMPSnJ3YIRRyaHoXrQ9ZDInHNJin4zSNxQyivKhzU0Emxaa/NRnPas2irlsTA0jSVSLkVBJckVk0WmaglFMeQVmC7JpTcGs5M0LjzAGq8s+elVTKz5A5+nWrdno2pXoHkxYU92OKyd2UkluV2kyOtREM54Vm+ldVYeCG4a9uSPVEANdDYaNp9iB5MKFh/E3WrUH1B1EtjhNO0LUL84jgZV9WrdtPBEXBvZtzf3VyK63cB90Lj0pGfLZraNFGTrMo2eiadZKPKtwzDu3NXzhRlUCj0UYppenwxl/3r/dXtWsacV0M3UbJYlwAx6npRK2DtB570kj9dnU/pUBST15rZqyMnK5KSPWmlhUYjfuaeI/WoGJvHakLZ7VKIx6UoQelAEHzHtRtY1Y20uKdguVxEe9VdTvLfTbN7i4bheg9a0a81+Ier/aboWcTfJH97HrQkBz+uatPq10WdiIgflXsKoYxSYxS4rSxIUUUVQhG6UL0obpQvSgkWiiigQUUUUALSUtNNAC0UlLQMWkopKAFpabS0AFFFFMAooopDEooopgLRTaKVwHUU2ii4Ds0ZptFFwFzRmiigQZozRRQAUlLSUAFJS0lABRRRQAooNAoNACc0mKdRUjI8c10/hLXXt5RaXL7om+7ntXN4pBxj1zmgaZ67wQGU5BorJ8H339o6eFc5kjwDW/8AZqksrinham8kCl8k0gK5FIVqz5XtTTEfSgCvto2VP5Zo8s0AV9vtSYNTGIik2MO1AEO00mPapirelMKtQAymmnGmmmAtFFFMDq6MU3NGayAdRRRQAtFFAoEVNTg8yIsByozWfZy8bT1rbYBkIPeufmQ292cfdzQUaadjVhegqlFJu6VZjfIxQMbccsKlj4WmhNzZqXbxxQIHGYqYnIxUn/LMioITyaBsmHFMccVIBkZpjelAgjHFU5uLg5q9H2qndjFwfpQUMJXFKCppm3K03OKAJxgkVIr4BFVVbBqSN8mgBkg8ifd/A/Spc5ptwnnQlf4hUFrKSDG/3l4+tAFqkIpM0hagY7ApNopu6jfQICF9KQqvpR5ijqaPNj9aBibV9KML6UblPQ0hQnpQAuFppUUhjem4YUAOIpDQMnrT1TNAEXOaMmrBQCm7RQBDzTgDUmKOKAAMStKW4po4P1ozQITdzUF8nmRH1qxikK7sg00NnOOMEg1GatahH5cp96qiqIENJRRQISkzQaSgQZozSUlADjTaCaQmmMmtkMk6KO5xXcSMLawO7+Ff6VyGgxGXUIx2BzXT6/IE0989+KpCZxlzIZpix71Ae9OVuW9hUQbP41LGODUbqjzRmpAcTTSc0vUVGTigAIpvQ05Tmmnk0WKI3XJODyaqSx8n2q8crz1qMQvPJ5UKbnaoki0zOYBfqa2dH8PXmo7Wf91F6nuK6LQPDcNrtmulV5uoz0FdD8q8DgegrLkuPnMvTvDthZAFYxJIO7VqAKowOPYVG0g/hFIJGbgcVSikS5NkhPr0pjMP4eTSKpJ5qZUUcr1rQggCSH2qRYcfeNT4zRt3HFVygIkQboOB1qR5BHHgfgKJJPJTJHy1ApaQ72HHatLKJmOVTnNPNIHpGapbuwHUUzdRuoGPozTN1JuoAkpKZuoDc0AR38wt7OWUnG1Sa8U1Cc3N9LITncxNes+LJ/L0O4bOMgr+Yrx7PzZqhi9eaKKKZAUUUUAFFFFABRRRTEFFFFACmmmlzSUAIKWikzQAtJSmkoAKWkpRQAtFNzS0ALRRRQMaaKDRTAKKKKQBRRRSAKKKKACijNGaYgoozRmgBaSlpKACkpaSgAooooAWim5ozQA6im5ozQA6im5ozQB0/wAPrvydVERPyOCPxr0o8V4/4amaHWID/tj+detF8qD61DNEKx+ang1CW+apFapKJOaQ5oJppNAC5ozTeaOaAFx7UfKKTn1pKAH/AC+lNKoe1IKeBxQBEYYz/DTGtVPTipjnNJQBX+wj+/RVj8aKANc4FIDUZJoVsdagZLS9aZvBpQaAH0UUUECN92qeo2weHeBz3q73pJsMhHrQNGDbSFSQe1Xom4471QuVMUxUVNZy8YqTRGlG1Sg8VVRqmDUxWJUODioG+WQ1IrZOainODmgETBuBSY5NRocgU/NAMeoxiqeoD94DVrPIqvej7poEQ44phUmpARSnFBRAVI5oBKnNSFgOtMZ0JoAkilJNVrwNFJ5q1IJEwcGnb0kj2tQAsMgkjDjvRIccVRhc285Q/cNXfv8AIpgNV8daUvnpSsoHWhUB6UANIU96BCpoZMUA7aAAxlelPRyOtOWQd6G2mgBVnH1pfMQ9Vqs6kfcFM+f+LikBc2q33OaYQ0Z5qssjRnKmrEd2rjEox70wFLZHNICKV4t4yhyKiOUOGoAl3U3PNN3g0m6gCTGaXbUIk5qQScUAOpM00vSGQUgKepw7l3CshlNb0jB0INY842uRiqRJXxRinGiqEMNIRSmgUCGMtRtxU7dKgcUANzSZpKQnimB0HhFN9yzelXPGUuy2jTPvTPBybYnc/SqnjSXdcJGOwzVrYl7mArfKaiJp6/dNRtWTKDdRuptFMB+7AppOabnNITigB1JlRUthZXV8/wC5iO3+8eldFY+HIYcPcnzH9Owqb2Gc5aWtzeyiOJCFz94112laXDYR9N0h6sauxQxxrhECj2p5FJspMPmI64pArZ5OacBnrQq88UiRQnFKsfNOANPUUDECU4LigmlU1aJFAz06U7ARdx7d6VVx161VnkMz+Wv3B1NbLTUhsNzXEu88Rr0X1qT6cUigKNq9BS1Ldx2DNJSUVIxc0maTNBoASjNNNLTELmikpD0pgYHjl9uhuPU15X2Feo+Pf+QG31FeXDpVIVxT1pKKKQgooooAKKKKACikopiFopKKAF4ozSUUALmjikooAWiiigAooooAKKKKACiiigBKKKKBhRRRTAKKKKACiiigAooopAFFFFAgooooAKKKKACkoooAKKSigBaKKKAEooooAtaQSNTt/wDroP516+p/dx/QV5BpZH9oW/8A10H869fjI8iP6CoZogAp4pm6jfTAkLU0mmbqM0APBp+eKhzS7qAH5pc1GDRmkA8mlDYFR5pjNigCUvSbqjXmnikMdRTaKLDNfrTXFANB5rMY0U7JFAGKXNAC76PMppBpNhoAkEoJ5p24HvUBXFKFPrQBR1iD5g4qhHKEYVumNZVKyVWk0yMnK0mUhsMgkxg1ZQ8VWS28mpkOKQ2SbsCkm5jzSL8xNPIBXFMlEdu2V5qaqZby3Iqyj5UGgGTAdKgvvuA+lWFbIFQX3MOaBFNG4pxYZqEnA4qLec0FE75am+WNvNQmVwKQTnvQMn8kY4oMWOlMW4A60v2letAEV1EXiOB8wptncMF8t/vCrayptyeapXqjPmRcEVIi2XJ6igTMvQVVtrjfwxqZzjkGqAf5x7imtIDUBlJ4pVLGlcBzTsvQULdnvSqM/eFDW6tQA5Ltc0r3Ct0FVntyvSmqCOtAyxvBqNitAYGkIzRcBY7prc5GSPSr0NxBdLzw1Zjws3I6VCVeJty8UD5TVuIXj+ZeVqv5wBw3BpttqbJ8swyPerbx292uUIRjRcViq0oLcMDQJcGop9PlibKnIqs/mo3zA0XEXvPzR5hPaqazEVItx7UATljiqV0pPOKmFyD2okkVlqkJlDtTTT26n60w0yRhozSmkqhCE0wipMU00AV2HNNNSMKbjmmB2XhmPZp2f7xNYXiht2psPQV0mhLt01K5jX23anJV9CeplY+WmMKmI4pjCsyiE8UVag0+4useVGdvqa27Dw9HFh7g729O1AGFY6fPetiNCo9TXQWPhyCPDXJ8xq2IIViUBFCgelSEetA7DIYkiQLEgVR6U/FLRUjGEUUGikAtKKSnCgBy08dKYtPHSqAAOx71JGu3r97tTVGTk9BSTPgY/iPStYoyGXEpJ8tPvHqfSmKoVcChFxknlj1p1KUrgkCinEUKKUioGMxSYp+KMUxjMUmKfijFAEeKTFSbaXFAyLFLjin4oxQBzPj3/kBt/vCvLR0r1bx6n/Eib/eFeVDpWiMxKKdRTJExRinYoxSGNooooGFFLRQISilooAbRS4oxQAlFLijFADaKXFGKAEopcUYoASiiigAooooAWiiigBKKKKYwooooAKKKKkAooopgJmjNO20baAG5ozTttG2gQ3NGadto20ANopcUYoAbRS0UAJRS0UAJRRRQBZ0z/j/t/wDroP5163Ef3SfQV5Jpv/H/AG//AF0H869YjP7pPoKhlRH5ooooKFzRkUU3NADsijNNzRQA+immgUgHZFMalJpKAHKcUu6kI4pBVAO3UU2igDX3UoNQiXNPDKe9c5qSg0uRUWR2NLmgCXIoyKj3UoNMQ+jikoz60AOGPajntmk+XtS5NAhpPqAaQqp/hwaf17UuPfFAakITBpcVJikxQMqTwOzZWkVJFHNWjntRjPWgBIXwOajvZFKYqcBaZJHG45FAGZn0IpQ6fxCrEmnxOOGKmq0mlzL/AKp91AxWaFhxxUZgV+jCoHguoeqZ+hzUD3MqfeRh9RUlFh4SP4qjMZA61CLt2p63DGkApD4wM0oSY0/zvapElNMRSeKSE78VbtpxMuD1qQsJBtNUZYWtmLr0oGXmiHamZ2+1NtbkSDDHmpJY8jIpCsN+8c7qcHA43VWbcvaojvBzigdi8JabI2arrI1O3GgA3YNOElN60hoAlWdh/DSPKG+8Kiwf71A9zmgYPHG464quS8J+RqsEAdqUBD1WgCW01UqAs3Iq+ptbteSB7Vjy2iNyrY9qg2zRN+7yKBWNWfSmGWhO4elUngZDhlIqS01ZoSFmya1o7q2u05Az60xWMFk9qFjJ71tT6er8x1RktJIz0qhFCZMVXar8y5X3HWqUgwTQBHRSUmaokdmmGlzSGmIjf2oXlgDS9+aSP5pgBVCO80raNOi2/wCeK47WDu1CX+9mu0sRt0+Jfas1dPiW5eVkDMxzk1c9kT1OcttLursDauxfU1t6fodta4ac+a/v0rSCgDgU7HFY3KGhQoxGABTgvqaTmnAGlcYUtJRTADSUtJQA2ig0UDCnCm04UyRwHpT0Ulvao1z2q0uFT+dXFENjZHCrg/hVfHO49ac58xs9h0pCKqbGkFAooFYFjhThTRThVCEFLiilpgNxS7adSigCPBpQtPNIcU7gJsFGwUhYCjeBRcDnPiAMaE3++K8oHSvV/H7btCb/AHxXlA6VpEzYUUUUwFopKKQhDQKDQKBi0UUUCCiiigAooooAMijJowKMGgAooooASiiigBKKKKACiiigAooooAKKKKYwooooAKKKKQBRRmigBc0ZpuaM0AOzRmm5ozQA7NGaSk5oAdSUlKKAFxSYp2aM0CGYoxTs0lADcUY5p3FGKAJtO/4/7f8A66CvWo/9Sn0FeTaamdRt/wDroP517BDBmFPoKhlRIcGjBqVoW9KYY2FIoYSaSnkEdqTFIYgFKAaUAU4YoAZRS4FGKBicUmKXFLg0wCiiikIKKKKYE3me9L5lVs0oY1maFkSmpFn96qBqNwoA0FmFSLKDWYHx0NKJiKQjU3g0ZrNW5apFufU0AXwacGqpHODUokU96ALG6jNQB+eDUitQA+jFN3UbqAFooooAKMUUUAGKKKKAFU0yW3jl+8in8KcOaXmgDPn0eB/ufKfaqU2jzJyhDCtzBo5pDucw8E8R+YGnASkcDFdG8av95Qagms0YfL8tTYLmH5jr1H40ougRiQZFWri0lQ/d3L6iqreSnXg0aoorXC4O+3OPWprK+DfJLTxHG44OAarXVptG+Lg+lAy+wBGV+Zahf26VTt7toztbge9XlmimHBxQBXckdKj3vmrDgDrUe9KkYgmI60GXIpG2mm5UUBYUN709STUJOD0qVDxmgQ8K1P28U0SjpTWlPY0AO2sKNzCmiY04SZ7UARvAJe2KiEUsJzGTxVnzPSjzdvSncCS11aVDtmBHvWpFewTLyQc1jO8bjDKKrNHsbdExFVcVjoJrJLj7nyg1jahaNbHDDNLbapNAcSZIrQ+3216m2XAai4rHPMKbVq9hMLFgMoehqGGKSf8A1UbNVJkkW7t3pyW9zL/q4XZfXFbem6KseJbn5j2X0rYjVQMAKB7U7iscxb6HPMQZf3a/Xmtmz0u3tVG2IO3qetXqcOtVcLFtFCxgf7NVnI5q22PKH0qm2OauexmtxtFAoFYmg6iiigkKSlpKoYUUlLQA00lONFUMbS0VJDHvfP8ACKaV2S3YfCn8RolYH5R+NLNJ5fA/CoBnOTWlrGZIBjpSmmo3rTjWbLQzHNKBRilFQMKcDTaQmmBJupN1Rk0A0wJd1IWpgNFADixppyaOaXBp2AbiggYp22jAosBznjz/AJADf74ryodK9V8fD/iQN/vivKh90VcSGFFFFUIKKKKQgNAoNAoGFFFFAgooooAmsoUubuOCR1jWQ4LntXbad4J0ueWOP+142kYZCo4NcjotlDf3qwz3K2yn+Ns/0rvPC3hmxs9ZguItWjndc4XLenvQBl6xpPhjSkntzNM9yoIHTriksbG1f4e3E/lqJAzfvMc44q/4m8Madda1cSy6tBEzHJBU8VrafoFmvg26sU1COSFySZVBwOlAHJaj4SWXSFvtFm+0rtBdepB/CuUiTMwST5QDzXoOmaRb6SGW18QQ7WBDIwYj8q5XxNpVvpsqNbXqXXmckopGPzoA6XTfBejahYNcR6m22JQ0uCOKrv4b8Mn/AJjJ491qL4Y3S/bbjT5j8t3HtHp1zXL6vaPYanPBIMMrH8jQB1n/AAjfhn/oMH/voVR8Z+F7bQra3mtblp1mPfHTGax/D1idR1e2tUGcuMn2rc+JF8s+rR2UR+S2RV/EDFAGV4a0uz1O4Zb66W2QDOScV0P/AAiOg/8AQcj/AO+xXD5I70Qh5ZljiyzMeB70Ad7a+B9JvJ1htdYWSRugVgaLvwPpFnMYbnWEjkHUFxWt4S8PSaDpU1/J82oSR5SM/wAA6g4+lebalLeXN1Nc3HmM7MSW5xQB1zeEtAx/yG4v++xWV4S0Kz1TXZrWdyYI8/OmOVGa5vc5HU11/wALE367Ku7buTH6GmM0k8NeHLy2vvsM8zS26secdhWR4D0Fb7VDdXqgWNucsX+6cV1/hvQrfTZNVaW+iljkDFggIIGOeamuX0FfCmIy62m8qzRvgk455oA5/XPC9pqeqNJaahaRKeFRWrnfFfht/D00ccsquzjIwfeuh0m98JafeLcQ/aWZfu7pCR+WKZr+peF9WmluZ2uPNOdmZTgH6YoAxfDS+H/szf2wz+aScYA/rW5Y2ngu6uEhjebzJDgZAqp4F0vT7mHUL7UYWktrdcoA3ofpV2DXvCcE6yR6XNmM8fvB/hQBl6tpWj6T4re1uyy2a56AZzVrHgn+9N+QpIpbXxb44LmJxbNlmBPbIq5e3/hC0upYDpszGJtu4SDn9KAM3xromlWGm2t7pe5ln/vY9fauQFdb4y8Q2Gq6dbWem28kKQ/3znv9K5KgB1FFFIkSiiigYCnCm04UAJijFLRQAmKMUtFAFjS/+Qjb/wDXQfzr2a2/1Cf7orxnS/8AkI2/++P517Nbf6hP90VDNIkmBSFQe1LRSKIzGp7U0wCpuaMmkIrm3ppgqzmjIoAptCaaYWq51oxQBS8tqNp71cKimlBQBV2mkwasmMU0x0AQbaKn8uigCkDTs1GDS5qDQcTTc0hNJQBJmlzUYp4pALS0lGaAJFYipFkqvmnA4oAtq/vUqy4qiHNPV6BF8TAilD+9Ud5zUm/igC6r8U8MCKpo/wAtORzQBbxRUAc1IGzQA/NFJuFGRQAtFFFACig0Cg0AJRRRQAdqqXWn29wDvTa3rVujrQBz1xotxHn7PKWA7HiqTQ30XDwsfoc111FKxSlY4x7a5f8A5YNk+uaBZX4+5D+tdnRmiw+Y5URXx/1lsaX7HcN/yyIrqd/uaTLHocVNg5jl/wCzbwnhOPrUg0e9P/LMfnXS5b+8aMn1pqNw5jnP7Gvf7qf99U7+xb3H8H/fYroc0tHKHMcxLo9/H821G/4FVGSR4W2zxsh+nFdruxUNzBDcrtlRWHuKOQHI5FblD2qRJ4+9ad3oEZy1s5U+h6VkXdtNan99bnH98DipsCZMZUP3aTzF71RWdG+7Ti1IotmRc8DNBmXHAqhJKoPcn0FXLLTbm9w21oo/U96dhg8yH5cfM3pToNMurhgYhtX1PFbllpkFqAdu9vU1eHTjCimS2jLtdHVcNctvb0rTiijjGI4wv4UucUu41Rm2IabinGmmmIUdaVfv00daF+/VIRbX7lV2+8asL9yq7feNaT2IW4lFFFYmg6im5ozVCFopM0tMAopRS4pkjcUYp1IaYDQNxxirIAiTg9KZbqAS7d+lQ3EhZtinp1rRIljCxkkLnoOlLTBxxTqHqC1HripMioOaMmpGTUUwNTt1Kw7i0mKM0oNFguJiilpKLBcUUYoFLRYLhijFGaM0WC4UHpRQelVYm5zvj/8A5ADf7wrygfdFer+P/wDkAN/vCvKB90URBhRRRVCCiiikIKKKKACiiigAooooAkt4Zp5RHAhdz0C8muz8DeHdWt9ainmjKRBT944PT0Nclp9/NplytzbNtde9dX4Q8TatqPiWCK5upGXn5d3HSgC/4g8Htc6teT3WoxwxOd6r5gz09M03wtCG8Oa3p8cjSBVO0+vIrn/FUN9qXim7gt0kly/CrzjgV2HgLRP+EeYjU7hI5LxdqQE/jyKAMTw/oNvpmmz6rr4O3lY4mJye3SuMvLhbieRol2RsflX0ro/Hl7f3+uCzusxx7wEjHTBqj4q0JdDa2RZNxlj3EenOKAMzTLxrC/huoiQ8bZrtPHGmx6vpkOu6Uu/dxKB1z06VxWn2NzfzCO1geVj2UZr0rwtajwnp7Nr9yixSEYgY8/lQBl+GbFfDHh6XWL8BbqYbYVPXpXDXdzJdXMs0oO6RskmvSfGGlz+JreK80W5Wa2jT5YF5I/CvNL63urKYxXcLxMD/ABrjNAEtnZXF7OkNrGZHfoBXeadpWneDLH7frDRy3pHyRZBw34VyvhvxFLoIme2jjaVxgM3VMjHFZeqahc6jcG4vZWkcnPJ4FAHf+Ctbutc1jU7q6Y7fKG1ewHNZOi+JbOISaVrFsHtmkxv7jn2qT4V/67Uv+uI/rXHXf/H3L/v/ANaBnYa54OzCb7QpRcWzfNtBBK/gOab8LkYa/MpBDCM9RjBwawdF1+/0eXNpOwQ9UJ4NdJ8NJJJtbv7xuoQsW7c5pga/h7SdQ05NblugVjdXx82f4apwqG8DwB+Va5PU/wCzUvhXVbvUYdaFzcvKFV9qk5/hpl8n2PwnpkMh2vLNu249qAJvE+tWPh67htRpMMn7pG3ZxyVBqt4omtb/AMEw6hFZpBI7r930Oad4qfSG8QBdb3bfITG3H90etNuZbLxHYjSdIBjtrZC5f3HPb60AM+G9432C4sPKhbcNzLLJt35PStFr+2tdSjtbvQYo/MbZvViRzWBonhGUxm8fUYbSNXKqzHByK6M3mkTyW1k+ovezow2NuBHBoAhj8rS/HksVlbQLuVuHfaO3ema5qEOmyyS3ugQspP31csPzAqv4m0ebW/GVyLW4S3EROWc4HarVzPpdhpn2LWNVa9xxsRwf50AVtd+wX/gk6jbWaW7llA29+a8/rvdWMS/DtTFwkku5VbrjdXA0AFGaSigQtAoopAOooooAKKKKACiig0AWdK/5CVv/AL6/zr2aAf6On+6K8Y0r/kJW/wD10X+de0wD/R0/3RQMWinHrRWZY3BoNOzTSM0ARk0ooK4pRxQUBpM0tJiiwC5pCaKTFFgCmmnU01IBRRRQBlilpoNLmpLA0tJmlFACinCmZpQaQD6aaM0ooABSijpSZzQA4U9aYtPAoACeaeWO2msKO1AEkbfLUsbD1qJPu0qrQBYDU4NUAzTwSaBEu+lElRAU7b70ASq/qakD+lUw/PNSK/pQBZ3UbqhDmlDUAS5ozUe6jNAD80ZpuaM0AOzRmm5pRQA6iiigApM0E0maYDqbmjdTS1ADwc0ucVEJAKXzFNAiTIo4puRRkUxD8U11Rxh1DD3FBamF6kooXuhWd1llVon9jgfpWLd+H7yJwIGDrXUFy3TmnKp+lJopSsY2maFHBiS5+eTrj0rYVQq4AwKkAApCM0rEttkYHNGKk20YpkkeKXFPxSYpiIzTTUhFJjmgoagLNg1bWJcVVXJkFW14PNawiZyJUVcYpjxJmlQ5zSMvzda2lEiJVkGH4ph61JIPnph61zyNRrUgNK1IKRYtKDTaWmSPBpQaZS5qiR59e9Ko3NimA8fWpo12Lk9apIBJ2EaH17VVAwoY/ePWkZzNKSfur0pSTuqmQFOFNFOFIAooooGJSikpaYhwozTc0tADs0UgpwoAKM0uKQ0ALmjvSCnCgAoPSig9KQHO+P8A/kAN/vCvKB90V6v4/wD+QA3+8K8oH3RTQBRRRTAU0004000hBSiminUAFFFFABRRRQAsezzF837ueRXeadrfhXS9tzaWshuUTb80vGcVwPXrRQB0sXjO7tJ7yW3hjDXT7/mUEjjHWsWfVr6a9F5LOzyj5s5OAfpVQ0maAPQYPFWhapFBdaxb5u7ccYbGSOlZFxrmnat4me71aFvswBCKrYxXJ0p560AdzeeOYLKM22gWCQL/AAu4Uk/jjNcdqOo3WpTmW9naRj/CScflVc03uaALula1faTMJbS4Zf8AZ5K/l0rr7bx1ZajF5WvackueC6Kq/wBK4LNJwaALurSWs1/M1kjRwZ+UM2apnnrSAelLQB1Hw/1W00q4vGvZPLSSPaD781zVwyvcSOhyrMSD7U2kxQMK6vw3r9npWhXEW1hczfKzbv4c/wCFcmaTimB6Hpfibw5pFoyWVtK0kvEm6XPXg1i+LvESanfWzWXyW9sBtU+tcuq4PSlNAHev4p0HUlSXVrCR7lUC7lfAwBj0pkvirSLCxmi0SxeKScFWdpM8Y+lcLTh0oA1dIvI2v0TVZp/sZOWCuR9a6u31bwfpE4u7GKWa4UEIGfPP4ivP+vWlxQBpatrEuoalcXYkaMTPnCNj+Vb+nyeEXsYzf+a1x/F+8J/pXGnrSUAdZ4t8R299ZQ6fpcbR2kP97k+vWuVFJSigB9FFFABRRRQAtNNONNNACUUUUxDhRQKKkCxpX/IRtv8Arqv869pg/wBQn+6K8X0r/kI23/XVf517TB/qE/3RQMfRRRUlCYpKWigQ002nkU0ikUhuaM0uKMUrjEopcUYouA2mmnGkNSISiiigZjhqXNKENOEZqTSw3NKKeIzTxFQFiGlFWRBxThBQFisoNSBDU4hxTwlA7FfZ60oQVY8o0eUakREEFOCVKsfNSCM1QFcrx0oVM1M60sUeaQEYjp6rUxTFN24oAYEpwWnAUoIoAbt5pxXignmnHpQBCUBo2EdKlCY5pT0oAh3EdaUPQwzSBRQBIDSg1HnFG40ATClyKh3mjdQBNuFJmosmgE0xE26kL1GM0uDQA7dmlGTTKX5qBDsUZFRksKaXx1oGTAIfeho0PtUSSL9KkBB96BCiLHRqRkYdDS59Kcqk85oAi+c0FSOtTEgCoJHJPFSxiLkHin7mpgo3mhASBzShzUfJoINUInBzTqqbmHejzSO9AFz600+1QrLnrUqkHpQITFGKdijigRGPvirXc1WP3xU5+8a2pESHp1NK9Nj605+ldDJRXk/1g+lRtT5f9Yv0pp6CuSRaYwikxTjSVJdxKKKKYC0UUUxEkahmAHQUl85SMBfvNxU0ICoT3qoSZZ2f+EdK1RDFVdi4/OkxzT+opMcVLGNpaAKKYgooooABS0YooEFKKYaM0APoFM3U4GgB4p1IDTqAG4op1FABQelFB6UAc54//wCQA3+8K8oH3RXq/wAQf+QA3+8K8nX7opoBaKKKYBSUtJQAUUUCkIkhi8+VYxnJqebTpopCiAuMc4q1odv80ly6/IgOCfpUcV/eF5fIVWyfSgCoLO6zjyX4PpS/Y7gg5hYCr7X2qAY2L/3zRY6leNfJDKqle/AoAzTazDrGw9PeozkfWtDVL2UX3QDyzxxUl15F7aecpVJV6j1oAqwabdXMPmovy08aLe9dlWLmeSPRLdoyQ3FZn9oXPeRvzoAstpF4o3FKqRW800rIilmHYCtPQrqWa5bcxKqp/lVJp5Ib2TyPvE0AP/sy+dOIW+X2qNtMvFG4wv78Vs2892dKkZv9bzj5abpE9zLDN9p+6qn+H2oAwktZ5z+6jLfhUh067Ucwv/3zWjortHBcuOOCRUmjXVzcvJLO67Y19KAMUxtH1Hzf3at/2XMbH7QQ3PRasQeTd3rzyuFVf4fWtOB7hplYKv2dvlHTpQBzZtblYixgbAq2dJmNktwobJ/hrZ+zzm9O508n04qTN0LwAKv2cfSgDmhZXO3mE1DJG0ZwV+atzVpry2kLBh5bViktLJk5LNTGT2di93HIyn7vOar4xx6Vs3BGnaYkfSScZ/pWIh96ALRsv9B+0bv4qr1qyf8AIBU/7R4/GsrIoAKcPbrTa09K0/zWFxN8sSc896AK0unvDa/aHb738NUwa0dWvDcy7U4jXgCkfTdlp58z7W/hWgChT0Xe6xr/ABUn9av6Lbeddr/sc0AR3lmbQqGbccA4+tOayZLJbiRsegq1JG2oaieyJwTVz7TDK/2ZY94QfyoA57FJj3rZkv7RSf8ARhVa7vLaWIrFAFb1oAz6KBRQAtFFFIAooooAs6X/AMhG3/66r/OvaYP9RH/uivFtK/5CNv8A9dV/nXtMH+oj/wB0UAPooooAKKKSkMU00inUYpAhmKSnkU0ikVcSlpKKQxpooNFIBKKKKBlQQ+1PEPtVwRineXUF3KQi9qeIqteXShKAuQCLinCOpwKXFAXIPLoEdTHAppcUBcaE9qXavpQWPrTTk96AHHb2FNz7UmD6078akBKBx0oooAMmiiigAoowaMGmAtOpuKWgBSwppJoIpM0AJzRxT+tNK0ANxSYNSACl20ARhTTwgpelG6gBQlLtFANFMQuBQAKbThxQApAxUbEjpTmNRsTQIQkmk2g9aATmlFAyNutKj4pzLURGKCi3AVbrT5Hx0qirkcCpVY96BND2Y1GetOY5pMGpYhpJpymk2kmnhaEA0mkyaftpcCqEM25o8nNPxRkigBmzFIFKfMCakrI13xBaaVG29t0nZAamUlFXZtTpTqvlgrm0kufv/LT/ADYv+ekf515PqnjW/uiVg2wp7daxZtW1Cb793J+Brklioo9qlkdWau9D27zId+7zY/zqT7RF/wA9Y/zrwn+0L3/n8m/77o/tC9/5/Jv++6I41ROj/V6fdHvCXUP/AD0T86GuIT/y0T/vqvCP7Qvh/wAvk3/fdH9pX3/P5N/33Vf2ig/1el3R7o80P/PRPzpplhx/rI/zrwxtSvv+fub/AL7o/tG+x/x9zf8AfdRLHIX+r0u57j5sX/PSP86PNi/56R/nXh/9pXv/AD9zf990n9pXv/P3N/33UfXkP/V2Xc9w86H/AJ6R/nR50P8Az0j/ADrw/wDtG9/5+5v++qP7Rvv+fub/AL6o+vIr/V6Xc9w86H/non/fVAmhz/rE/wC+q8Q/tG9/5+5v++qP7Rvf+fub/vqj68iXw9Lue43F3EsO1ZRnOPvUIF8obGrw46henb/pc3/fdX7LxLqlmRtuWdR2Y5rWOPi9zOXD9RK6Z7EKdXF6F46hnCx3w8t+m/oDXYwzLPGskZDIejDvXXCtGex4eIwlXDu00OxSYpwpcVscYyilPWkpkiClpB1p4FMBhFJtqTFJigCPbSgU8Cl20ANU1IDTdtOAoAWiiigBKXNMJpC1AGB8QT/xIG/3hXk6/dFeqfEA/wDEhf6ivK17U0AtFFFMAooooAKWJfNlWP7uT1pKaCQ+RQB1EDxR20lqmGCKckfSs7Q2IS6YcEA4o0DLLc7vmOw/ypuhlN1zG7KpYHGaQg0zUrqW9EbtlMkURnHiFgRkelS2Wnx21ysv2qPqTjFRwusniMsrZHtQBQ1U/wCnyf7xqGOF3DMm7Z/FU2s/8f8ANj+8avOPsWjhWHzy/nQBYSzF5o9tHHKiuByCfeqr6A+/b56f99DNUtKLvdRhS3BrQV/N19B6HFAFnTNLGnzNK84cbTldwrEFy8F+Zk29TUmrt/psibuuKjgf7DKrzRK/H3WFAG3HfStozXBXDgmm6dfS3Ec3mjjaf5VNNqEaaV5xhXazH5MVFp98LqGdkgVBtIxj2oAqaRzZ3g9v6U6x2yaRLDbf68g5puj82N3/ALpqno8rwX6bFblsN9KAK0aET+Weu8fzrp7gIsMI8pmbb/CKxdWj8rVGYcAkEVqi5ivfLVZmjYfLtVsUAJtQrgwSf98mkYxjC+RKf+AmlcxRMVe8fP8AvU6ERy5CXTn/AIFQBBruPscaqp681Do1nHu+0Tn5B0pdZvIpbcQxNkqeTWfHM/liIOdpNAGrr7I8ls5+5jj86j87Sh/yxb8qNaGLW2z/AHf61kUxnSubE6crnPl7jxiqHm6Tj/VH8qWQf8SNPqf51kgUAaNhp5uZfNf93ArZ54yKfqeoBh9mt/liXjjvVIX0wi8kPhPSp9NsDcPvfiNeSTQBJpNnk/abgfuk7HvUWpXBupyRlY1+6Kl1W8GRb2xxEnBI71IkcV9ZgINssfb1oAy8f99Guj0hFtI1Vtvmuua551IJB4YGtDRpHe/Uud2BgUAS2sv+k3ELN5YY9fxq5pltbRO7Q3G9mBz09Kwrw/6XN/vH+daGk/uLKe4b5dwwPyoAkawsmkLfaR8x9qp6pYJZ7GV96v0qgh3c1q63/wAe9r9P6UAZdFFFABRRRQAUUUUgLOl/8hC3/wCui/zr2iH/AFMf0FeL6X/yELf/AK6L/OvaIf8AUx/QUASUUUUAFNNLSGkMAaXNNozSEh2aMUlFIoQ00040hFA7jKKDRSGFFFFAFjNG6ncUmBWZQm6jNGKMUAFGaKKBgRTSKcTTSaAEoopaBiUUGmk1IAaTNNJ5pwoAdikpRTttACCgmnYxScUAIDSk0hNJQAuaSiiqEFFLijFAADTs0m0UoWgYhpMU7Ao4oASnCkpRQSKKU9KQU40CI2qI1K1RNQAClptFBQ400rTqUUxjAtPC04CloJDFJilzRmkMTFGKWigBKKKKBBSGlpk8qxQtJ/cBP5Um7K5UYuTsjC8W6+mkWrIjAyuP++a8rvLqW7naadiSTV/xLqLajqs75yoJA+lZPavHxNZydj7/ACvARowU2tWL9KKKK47nucoUUUUXKsFFFFIkMUUd8UUAJRS1f0zRb7U322kDOPXoKqNOU/hM6uIhSjzTdjPp1ddb/DnWJAC3lr9W/wDrVU1DwRrVlk+QJVH9wk1t9VqWvY4Y5rhpS5eY5ukqSaGWBykyMjDsRTKwcXHRnoRqxmrxYUUUUihenSus8F+J5bC4W1uWLQOcAnsa5OgEqcj8K2pVXTZxYzCxxFNxZ71G4kRXQ5VhkGn1zHgDVjqGlCKRsyxcfgK6evoKVTnjc/NcTRdGo4PoFGKKK0OUbtpQKfSVQCYpcUCloAbiloJpuaLhYfilxxUe6kLmi4WHE00tTS1MJNO4WH7qTNNFO7VNwsc/4/8A+QC3+8K8qXtXqvj3/kAv/vivKl7VaJY7pR1o60dKBBSGjNJmgBaSkzRmgDY8Oni5/wBw/wAqx5WIkOGxTormSHPltjPWoevJoAmt4pJ5NiM24+9aun6ZPBd+dMwCqOeRWOsjIcoSD6ile4mcfPIx/GgC7I8T6uWkfMRk5+lSXzyarfCK3+6oAFZO3v8AeFPikeA7kZvpQBsr5GixN/y0uW/HbVDT5yNRjlmb+LJaqbM0jbnOTR0oA37rSmuL0zB0KcHqKZqcK3l/DDEy7Yxgn8axPNkA++dvpTkmZOVLZoA3LlPtzLZ2zKEgHJJ+92ohgGl2s5lkVmbgBawRM+/IOCfvH1oLsfvHNAGxobbbW6JXd8p4pq6vDEoMVsokHesuOeVFYKxCtwaZQBpWt/MZWPlh2f1xW1bSmBDNcqkfcDjNcvG7IQyfKw71JJPJN/rJWb60AaUusKZSVgVsnrgVZ0rUPtEsn7kL8h9PSsIU6N3jyUO3NAGjJqgEjL5KfkKz2k3zb8YGaYeTk9aSgDW1z/j3tMfN8v8AWsn+961JJI8iqGY/L0pmO9MZrSf8gKP6msqpDNJ5Qjz8vpUdAE9hDDNcBZjhc1uXhtTCIoZxGv8As965zpRQBqfZbEfeuP0qa3bTbRvMWRmb2zWKeaYecbu1AG1qsUM0YuoNuD1FQaH/AMfw+lZ25v73y09JGjYNGdp9RQBpJZfaLqWWQhEVjn86L6cXbLa2/wAka8VmmaQhvnY7utNBI7nPagDVTRJAy5lTb3+YVHrcyPKscbbhGB/Ks7zZe8jU3vQA6iiigAooooAKKKKALOl/8hG3/wCui/zr2iH/AFMf+6K8X0v/AJCNv/10X+de0Q/6iP8A3RUASUU3NGakoKKKKYCGig0UAFFOopjEopaKAIyKYalIqNhSGN3UVHRSAvlTTeRTy1NPNZlCZpc0YpaAA0004000DA0lLSUEiCloooLEaozT2phqQG05RzSYpymgCRadTVFOzQAhzSYp1GKoQwrSAGpcUACgBmKMU/FJigQ3FLS0UAFLxSYoFAAaSn4FNIoASnCmmnCgBRSnpSCnHpQIjaomqVqiNADcUuKUUoFBQAU4CijNMQtFNJpM0CFpaZmlBpgPpcU0GlzQAUUUUxhWR4suPs+h3EqcZ4/MVr1geO/+Rbl/3h/WsavwnVhEnWin3PJGbcS39403vSnoKSvnqmsmfqFGNoJC0UUVJqFFFFBEpcurCgDJ46+ldB4b8I6hrcgZEaOH++eK9Q8PeAdL01A8iCWbuTXbSwkpq7PAxmd0aHux1Z4i8UiDc6kD1pgr6H1Pw7p93aNE1umMdhXg2u2osdVuLZRwjDH4mqq4R01e4sBnP1u6as0avgnw4+vagGfK28Z+b/ar27SdJtdMtkjtowmB1rC+HGlx2egQOFw0g3GuqndY43dzgKM16eFoqnC58pmmNniKzjfRDseppCit1Ga8o1n4m3aX8kVlAvlRsU3buuDWv4Y+JNvfTrBqC+Q/QHsa1dam3y3Of+z68Ye0sa/i3wfY6vbOwiCXGMq68c14jqFpJY3sltKpDIcc19DXetWCWzTG5j2AZ+9Xg/iq8TUNcnuYj8j4ArhxkabjdHv5BUrOo4T2XcyqKKK8Q+2CiiimDOx+F8rLqc0eeCg4/GvTj1ryz4Z/8hx/90fzr1I9a93CO9M/O86ilXdgopKWuxHhjc0oNGKSqAdmjNNooAU0lJmkJoAXNITTTRimAhNLilxS4oAbS5oxRikI53x7/wAgFv8AeFeWrXqfj3/kAt9RXlfemiWOpDSUGrIEzRmkNIaBi5pM0UlACUUUUAFFFFABRRRQAUUUUAFHNOoxQA0ClxTsUYoAQLTgtAp2aAEoxRRQAUUUUAFFOoxQAUUUUAFFFFABRRRQAUUUUAI1AoNKtABQaKDTGNooooAUU6mA0oNAC0UUUAFFJSZoAtaZ/wAhG2/66L/OvaIf+PeL/dFeL6Z/yEbb/rov869oh/494/8AdFQwH0UUVJQUUUUwENAoNFADqKSimMWjNNoNAC5prCgU1moAbsFFLmikMs0UUVkUFFFFACUUUUDEpKWkoJExRTqDTGRtTDUhFNIqShFNKo5pvSnrU2AdThSLTjVgLRQOlJmgkdmim0ZoAWkozRQAUtIKWgBKWlpDTAM0UlJmgBaUUlKKBDhS0ClNAEb1Axqd6hI5oGItPFIBTwKACkxTqMUANxSYp1GKokbimmnkU00AApwptKDQAtFFFAwrB8d/8i3N/vD+tb1YPjv/AJFuX/eH9axrfA2dmC/jx9TyIdB9KU0g6ClNfOT+Jn6hS+FBRRR0oNA//VXf+BPAz3hW91NSIeqIe/1qt8OPCzalci9vE/cIcqpH3jXskEKQRBEAAHHFexhcMrc0j4jOc0fM6NJjba0htoFjgjCqowAKW6uIrWLfMwRR1JNZniTxBaaFZ+fcN/urnkmvGvEvjG/1u4ba5igzwobn8cV3VKsKSPEweX1cZK6PSPFHj/T7G3kitJPNmIIGzmvG725kvLmSaXO6Rt24/XNQdSxP/fVTWltcXcqw2sTSsey15NTESqysj7DCZfSwMG29bHu/w7ukuPDNqVOSBitvUozJYzIv3ihxXI/C7TtQ03Tniv4zGrNlAe1duea9qn/DSPhcS17eTXdnzPqEZi1G5jbqJW/mahc9M16t4k+GY1DUZby2uViMnY5rk9V+H2r2S7osXI/2BjFePWw9VyvE+2weaYR01GbOYM85XyTM5T0J4xUeMcCn3EE1rKYriNkcdQwxUea4p88dJHu0fYP3qaQtFFFYnQFFFFIbOq+GX/Icf/dH869TNeWfDP8A5Dj/AO6P516ma9zCfAfnmd/x2JTgabSZrtR4I4mkNGaQmmMQ0ZpCabQA4mkJpKSqAUU6mgU4CmAtFFFAhTTTTjTTUgc749P/ABIW/wB4V5YK9R8e/wDIDb/fFeWLVIhjqSiiqIGmkNLSGmMSiiigAooooAKKKKAEooooAQdaeBSAU8CgAxSgUtFAABS0lLQAlFFFACCnCminCgBKKdRQAUUUUAFFFFABRRRQAUUUUAFIaWmmgAoFFFADqDSUUxiUUUUhBRRRQA6im0UxhQOtFA60AWtN/wCQlb/9dF/nXtEP+oj/AN0V4tpv/ISt/wDrov8AOvaYf9TH/uioYD6KKKkoSiiiqAKKKBQAppKcaYaBi5pCaQmkJqQAmmMaGNRsaYD80VHuooA0KKKKyLEooooASiiigAopKKACiiikAUhFGaM0yiNhzTgaUjNMbiiwDxUgqJTUimgBaKKKCQpMUtLigBtLRRQAUZoNNoAcDThTBTxTAQimkVJSEUAMzSqaCtAFAEi0p6UwGgtQBG5pgpXNItADqctNJpVNADxSmkFLQA00CkpRVEiGkNONNNADDRnmhqaaAJs8UlNBp1AwrB8d/wDIty/7w/rW9WD49/5FuT/eH9axrfAzswX8ePqeRDoKU0i9BSmvnH8TP1Cl8IVc0bTpdU1S3tIh/rG+Y+gqnXo/wi0nzHfUJF4B2r+FdeFp880edmmJ+r4dyR6RoenRadYxwRqAEGBSa9qkWlWElxKQoQZA9TWiTwK8d+K+vPc6iNPib93H94D1Fe3UkqNO5+e4SjLGV+V9dzlvEms3Gt38ksznbn5V7AVlKu2l5yfetHw9pr6rqkVon8RyfpXhSlKtOx+jKFPA4e66Gl4S8LXOvTKWUpb55O3rXsWgeGLDR4QIIlL45OKuaJp0Ol2SW0KgBBjIqa9vYbKB5ZmCKgySTXt0qEaUdT4HHZhVxlSy2J8AdhS15nrHxQjgu0i0+Isu8b3bpjPOK9B0q9TULGG6TpIoatY1Iy0icFXDVaUeaa0Zb60FFI5ArP1+e5ttLmmswDKgyM1xPhz4lw3Mwg1KMRPnG4dP1qpTjH4hU6E6kXKHQ6fxH4SsNZiIkiCv2YDBFeNeKPC95oNywkUvAT8rgcV79a3Ud5EJIXVkI4IqtrekwarZPbzoG3DvWNWhCrE9DAZjVwlS0tuqPm8UVr+KtCl0HU2gdf3bElG9RWRXztWm6cuVn6Nhq8K8OeAUUUVmdB1Xwz/5Dj/7o/nXqBPNeX/DX/kOP/uj+deoHrXt4T4D89zv/eWFFFFdp4YpphNKTSGrEJRRSigAxRigUopgKBS0gpakBaaTQTTSaAFJphahmqJmoEYPjts6Iw/2hXly16V47f8A4kr/AO8K8zFUiJDjTSaCaQ1RAZpM0lFMY6iiigAooooAKKKKAG96cKTvSigBwpwpop1ABRRQKAFopQKXFADaKdijFADBThSY5pRQAtFFFABRRRQAUUUUAFFFFABRRRQAU006mmgAooooAKKKKACiiigAooooAKKKKYwoHWigdaALOm/8hK3/AOui/wA69ph/1Mf+6K8X0z/kJW//AF0X+de0Q/6mP/dFQwHUUUUFBRRRQAUUUUALmkopKBiNURPNSNUbVIDWPNNY8UjHmkY8UFCZopKKYGmaKDRWQwFJSikoAU0neg0lAwFFAooAKDRQaBDTSikNJmgocaaadmkoC42lFLijFAXFzS5ptKKBDgadmmUZoAdmim5pc0wA02lo70AKKfTBThQIWlpO9LQSJiilpDQA0mmE0rGmE80FBSikpwoAKBRQKAHUuaSigBaXNNopiFNNNONNNMBjUyntTTQIUGnA1GDTgaBklYPj3/kW5f8AeFbwrB8e/wDItyf7w/rWNb4GdmC/jx9TyJeg+lKaReg+lKa+clufqFL4UNr3n4cWS23h2A4wXG7868HQZeMerV9FeE02aBbL/sD+Verly1PkuJKjUYwLupzi2sJpm4CKT+lfOOrXT32pz3TnJdsive/HM3keHbs/7P8AOvnxeUNa5hK1onPw5RV3NhXpXwf01XM94y5IIGTXmlex/B5NuiO3941y4KKdTU9fP6rhh+Vdf+Ad5x1rxz4qeI5rq/OnQMUiQAsQeue1ewXB2wMfQE185eI2ZtdvDISWEhH4ZNejjajhDQ+ZyahGtX97oZ1e1fCnUvtehpAxy0J2V4tXofwbuWXVJ4M/KVDVwYKo/aWfU+izzDxlhrpbHrVxEHt5FPIZSK+dvEtmdP1+6g6ANlfpX0d1rxH4r2yweIw6j76nd+ld+MXuc3Y+eyOdq/I+qJvh74xuNOvFsr2TdbvwpPavZYZFmiV0OQRkV8w8kjB49a9v+GGtnU9FVJGy8R2/h/kVGDquS5WdOeYBUn7aCHfEnQk1TRZJkTM0ILKfYV4gQVYqeo4r6auYlltmRhkEYxXzx4ps/sOvXUOMZckD2rHMKV0pI34exWrpNmXRRRXjH2x1Xw1/5Db/AO6P516geteX/DX/AJDb/wC6P516eete3hPgPz7Ov94EooortPDYUE0lJmqIFJoFIKeBQAUUUUxgTSZpDSE0ADNUZehmqJmpAOZ6hd6Gao2NAGF43OdFb/fFebdq9G8an/iSt/vivOR0qkZyCigUVoQNNFBooGFOFNFOFABRRRQAUUUUgACnAUAU4CgBRRRRQAUUUUAOoptFADqE+c/Lu/Ckr034TaFZ3NtJeXESySZIGe2DQB5v9lnyfkk59qb9nlUFiknHtX0b/Zdlk5to/wAqadIsGBU20fP+zQB85UIjOfl3fhXSfETSoNI19orUbYyA2PrXZfCnQbOXSzeXESySSdM9qAPLvs0v/POT8qQwSDqjj6ivor+yLD/n2j/Kmz6Lp8ibTax9MdKAPnOitvxpp0WmeIbm3gGIw3A9KxKACiiigAopKKAFppp1NNABRRRQAUUUUAFFFFABRRRQAUUUUAFFFFMZa0n/AJCNv/10X+de0Rf6mP8A3RXi+k/8hG3/AOui/wA69oi/1Mf+6KhgOooooKCiiigApc0lJmgAJpuaU03NIYpNRtTiaYx4qQInqNjUj1A5pgLvoqKimBuGig0VkWApKUUlAAaSlNN70DAUtIKKAFpDQTTSaBgabnmgtTc80EkgNOFRg08UALSUppKACijNITQMUmkzTSaM0AOzSg1GDTxTAdRQKBQA4U4UgpRQIdRRQaCQNMY0pqNjQAjGm45paUCgoMUYozRmgB2KMUZozQAtFFFABRRRTEFJS0lMBDTCKkNNIoAjooPWg0CJUORWD49/5FuT6j+tbSnFYvjv/kW5PqP61jW+BnZgf94ieRr0H0pTSDoKU185Lc/UaXwoIv8AWxf7wr6K8Iv5mg2p/wBgfyr51r3r4c3iXXhq3K87AEP1Ar18u3Pj+JYfCyfx5H5vh27GM/Lmvn5eEr6U1i2F1p08RGd6kfpXztqlsbTUp7YjHlPtNVmEXoyeG6q96n1Kdeq/Bq+BtZ7Zjyh6V5VW94K1k6Nq6Ss2ImO1x9eK48LPknc9rOcO69BqJ9AyruVlPcYrw34jaDPpuvS3Cxl4JADuA717XZXkV5bxzwtuVxkVHqenWuowNFcxLIp9R0r2qtNVoWPhMDi5YOrznzZXpnwh0ieOSS/lXYjjaue9dTbfD/R4bgTrExYHIDHI/KujgtorZFSKNUVemBXPh8H7OXMz1sfnX1ml7OKLFeIfFW6WfXwqc7Ad36V6x4j1qHR9OknmOOCB9a+ftVvJL69mnkJLSNn8KWOqKMOXuGQ4eUq3teiK4wenQ16L8G5j9uuYc4HBArzpBwK9D+DcDf2ncynpgCuHBXdTQ+gztL6q7/1oz12vCvidDs8UOfVQf1r3WvDfinKr+Jjt/uAfrXoY34D5bIv95RyNFA6UV4B+jnVfDX/kNv8A7o/nXpxPNeY/DX/kNv8A7o/nXphzmvZwnwH5/nX+8Cg06mClFdp4YGkxTqMVRIgFOFAFBoACaaTTS1NLUxjy3FRs9NZqhZ6AFZqjZqC1MLUgAmmk0FqYzUAYfjQ/8Sdv94V5yeleieMj/wASdv8AeFeefw1otjOQg6UUCimQFFFFMYClpKs2Vjc30yxWkLSuewoAgpdkvll/LO0d69L8KfDANtuNZO1eqxDg10fjzSLC18Izpb26J5aEqQPmzj1oA8QHNOC0mMVc07T7rUJxDaRmRz2FAFUCpGikRNzKVU9zXqHhb4ZIjLc6w25+uwcVf+J2m2lt4azBCkbJ0KqAaAPH6KKKQC0004000AFFFFAC17B8HP8AkByf77fzrx+vYfg5/wAgOT/fb+dAHe0UUUAeJ/F3/kYz/wBc1/lXcfCf/kWov8+tcP8AF3/kYz/1zX+Vdx8Jv+RXi+v+NAHaUhpR0pDQB4V8Sv8Aka7r6/4VzFdP8TP+Rrufr/hXMUAFFFFADTRQaKACiipLb5rmLuu6gAkt5okDyxMit0J71HX0C+hadqWjQxXNum3yxghQD09a828WfDu804tNpoM8HXA6rQBw9H3qdIjwuY5kKMOCDVnSE36nar9796nH/AhQBBLbzwAGaIpnpmo819A6p4b07V7FYriBRx8rBQCPyrzDxP8AD690pmms18+365HGKAONopXRo2KuMEcEUlABRRRQAUGig0xlrS/+Qhbf9dF/nXs0P+oT/dFeM6X/AMhC2/66L/OvZof9Qn+6KhgOzRmgDijFSULmim0oqgFoxSiloAjNMJp5pjUhjSaaTSMabmpAbJ1qFulSyVE3SmAyiiimBtmig0VkaAKSlFJQAGgdaKB1oABRQKKAENMc041G5oAjc0gNDUgoAlWpBUSGpVpgOFIRThQRQBG1NzTmplAhxptLSUAApwpAKcKAFFPFIBThQAopwoFKBQAlBopGNBAkhwKgJyakc5qPpQWhwooBooGApQKAKcKBBilFFKBQAlFOxSUAJRQaKYgpKWkoAU0w07NJTAjIptSEU0iggbWN46P/ABTUv++K2qwfHX/ItTf7w/rWNb4Gd2B/jx9TygdBSmmr90fSnGvnH8R+o0vhQV6d8HNUwk2ns3Q7gPqa8xrQ8O6jJpOqw3iEgKcMPUV24apyTPLzbCfWKDS3Po9huQg14v8AFbQ/serfbo1YRzA7iP71euaPfJf2EdwjBlcdR3qr4n0eLWdMlt5VHI+U+h9a9ivBVaeh8Dga8sHiLv5nzrRV/XdKn0e/e3nUgA/K3qO1UcV8/JSg7H6dRqQrwU0dd4M8a3OjOtvdEy22cDP8Ir1TSfFWl6io8u6VWP8ACxFfPtKjNGcxuyn2OK7qGMcVZngY3I6deTlB2PpT+0rMf8vSfmKwNc8b6ZpuR5olkHQLzXh/2u6P/LxJ/wB9VE5Zzl/mPqea1nj01ZHFT4as/ekbfifxPd69dFnYrADlU7Vhnk0oHHSkrzKtSVR3PqMNhqeGhyoBXtHwr0htP0VZp1xJMSx+nUV5x4I8PPrmqIWH+jxHLn19q93tYFt4EiQAKgwK9TL6VveZ8nxBjYztQgya4kWKJmPYZr538XXf2zxFdy5yquVH4GvYviDrUelaHLhsyyfKAOvNeEOxdizHJJyT71WOqK3KieHsNJydVrQSiiivEPuDqvhr/wAht/8AdH869NPWvMvhr/yG3/3R/OvTj1r28GrwPz/O/wDeBKWijNdtjwQooFITTELmms1IWqNmoAGNRlqRmqNmoAVmqJjzQzVGzUAOLUwmmlqaTVDHE00mkzSZpAY3jL/kEN/vCvOz0r0Txl/yCG+orzs9KtGchR0ooHSimQFHzv8AKu72A+ait3wRd2Flrsc2pxq8GMfN0B7GmM0vCfw/vtXKzXANvB1Jbq34GvXPD3hnTtEtwlrCu/HLkcmr2mXlneWqPp8sbxY42VcFAByOBXN/ENGk8M3KxqWYqQAK6WqWqXFta2rS3xUQDli3SgDyHwn8Pr3UitxqA8i3bnB/wNeraHoOn6PAI7SBVYDlvU1dsp7e6gWS2kV0I42nirAGKAE71x3xY/5FmT6j+ddlXG/Fn/kWZPqP50AeJ0UUUgCiiigBaKKKACvYPg5/yA3/AN9v514/XsHwc/5Ab/77fzoA73+Kj+Kj+Kj+KgDxX4u/8jGf+ua/yrtvhN/yK6fX/GuJ+Lv/ACMZ/wCua/yrtvhN/wAiun1/xoA7QdKQ9KB0oPSgDwr4mf8AI13P1/wrmK6f4mf8jVc/X/CuYoAKKKKAG96XtSd6XtQADpUtn/x8w/71RDpUtn/x8w/71AH0dpX/ACDLcf8ATMfyqfYCKg0r/kH2/wD1zH8qtigDlvE/gnT9aRnVBBOR95R96vMrvwpqOia1bK6NJEJV2svP8Q64r3asvVdR020ZI76aMM7AKh9SeKAL8H+rT6U9kV1IYAg9Qe9In3F2+lPHSgDj/E/gLT9XDSQIIJzzle5rynxB4b1DQp2S5iZo88OoyK+hq57xVrGkWVq0eptHIWHCHrQB4DRU188cl/O8I2xlztHtUNABRRRQBa0r/kI2/wDvj+dezQ/6hP8AdFeM6X/yEbf/AHx/OvZof9Qn+6KljHjpRRRQUIaSnYppFIYoNLmmZpQaQwNRtUhqJ6QDGqNutSHpUT9aABjUTHinmoyKAG5opcUUAbJooNFQWApO9KKTvQAtAoo70AApKO1FACNUTnmpGNQueaAGNSUMaTNAEimplNQLUq0wJhQaaKUmgBj0ypGqPvQIWlxQKUUAGKcKSlWgB4FOpFFOoAKcKbS0EiE0xjQx5pjGgaEJpKKBQMMUoNLSYoGOBpaaKXNAhwpwNMpaAHUlJRQAGiiimIKSlpKAG0lLSUwFNIad2ppoJY2sHx1/yLs3+8P61vGsHx3/AMi7N/vD+tZ1vgZ24H+PH1PJ1+6PpSmkX7o+lKa+afxM/UaXwoKXtikopp2dypR5lY9B+F/ij7HONNvJMQuflLfw167uBXg5GM5r5iVmQrIhwynI/CvTPAHjsMqWGqvh8YRz3+te3g8SmuWR8LnOVOMnWpLTqdj4t8KWuv2jb1AlA+Vh1FeL694evdEuGjnjZkB4bHavoW3nWVQyHKmo76wt76Mx3EKSKezV0VsNCrqeZgszrYN8r1R80Ulex678M7C63PZMbdzzhFGM/jXJXXwy1WLPkyxv/vGvLngpp6H1lDO8PVV27HFUuTXWD4c636Q/9/P/AK1X7H4X6hNj7RMI/wDdINZfU6h1TzfDQV+Y4M/XPsK6Hwz4Sv8AWpQSphgJwWPOa9I0H4cabp22SZfPlHdh/hXX29lBbIFhjVQOwGK7aGBs7zPAx2fc65aRS8PaJbaNZJBboBgcn1q9d3MVpC0srBUUZJJ6Ul3dRWcDSysFVRkk14/4/wDG7apLJZ6cxW3GVZgfvV3TqQoLQ8LDYWrjav5syvHPiB9b1dyrH7PGcKPX3rnDSk5pK+fqTc5OTP0rB4aOHpKCCiiisTrOq+Gv/Ibf/dH869NPWvMvhr/yG3/3R/OvTD1r3MF8B+e51/vApFNIp2aaTXceCApGNJmmsaAEY1GxpWNROaABmqJmpWNRk0hAxphpxphoAQ000pppNMAooooAxvGP/IIb/eFeenpXoXjH/kEN/vCvPT0q0RIKKKKZAUUUUxmrofiLUdDlElnMdueUbkGvW/CXxBstWVILwi3uPfoa8PAqVCVcEEj3FAH08jh1DKQynuK5z4i8+Frv/cNeZeFvHV/ozKk8huLYfwuc7a6nxb400vVPDMkcDsJZUI2Ed6AOD8P+KdS0OVfImLR91Y5/nXq/hbx1Y6zGsczrBP0IJ714d1pyM6vlTtPZhQB9Nh8jqD9K5D4sf8ixJ9R/OuF8LfEG80pkgvmNxAPU8j8q2/H/AIu03WPDgitGZpJCMrjpQB5jRRRSAKKKKAHCiiigAr2D4O/8gOT/AH2/nXj9ewfB3/kByf77fzoA73vTR96nd6aPvUAeL/F3/kZj/wBc1/lXb/Cf/kWI/r/jXEfF3/kZj/1zX+Vdv8J/+RYi+v8AjQB2Q6UHpSjpSHpQB4V8TP8Akarn6/4VzFdP8TP+Rqufr/hXLUAFFFFABRRRQAVNZ/8AHzF/vVDT7Zts6N90BuaAPpHSv+Qfb/8AXMfyqS5u4bWEyXDrGoGTuNcbcePdO07SIRCfOmCABM98e1eb+JPFWo605EzlIj0jDcUAdz4p+JMMO6HSRukHHmdhXn9vqV3qeuWsl5M0jGZT14+8KxycnnmrWlyLBqNvLIcKsin9RQB9Jwf6lfpUV7ewWNuZrmQIg7muO1v4h2On2aizKzTMvC54FeX674k1HWrgyXczYzwo6CgDufFfxKI32+kLz0Ln/CvOLy9uL6dpruVpHY55NQdTk9aKAEooooAKKKKALOl/8hG3/wB8fzr2aH/UJ/uivGdL/wCQjb/74/nXs0P/AB7p/uipYx9FFFIsWkIpaKAIyKbnFSMKibigB2aY1ANI54pDGE1GxpWNMNIAJphpTTSaEAlFFFMDZNFBorMsKKKKAFoooNACdqQ0vammgBGqGTrUrVE55oERtRQaKAHJUy1CtSrTGSCikBooADSEUtLigQynCilFAAKcBQop4FADlp1NFLQSKajY0rGo2NAJCE80lGaSgtCig0ooNAAKU00UtAhtKDSnFMNUSSA0tRA04GgB+aKbmjNIY6ikFLQAUUUUAJTDT6aaYCLTutN6U5aoQhFY3iy38/QZ4/QZ/Ktp+tQXUQmhkiYZDAis5rmi0dGHn7OopHhwG3j0orQ16wOn6pLERhCTis+vmqkXGbTP1DDVFVpqSCiiipOkKTdz8v3hS0U02ncicIzVmdd4V8eXekMkN2xnt+nuv516honjHS9WUeVcKrn+HdzXgNPikkhcPHIUx/dOK9CjjXHRnzmNyKlW96GjPpwFXHWj5a+fLHxdrVljy7h2QdA3Nblv8TtUiwJYg/5V6EMbTe587VyLFU37quezYFKMDoT+dePH4qXv/Pt/49VK5+JOsSE+UqoD64NafW6ZhHJsVJ25fyPa5J44hl3UY9a5fX/Hel6ZEwWYTScjah5ryDUPEmragT592+D2HA/Sstm3klyWJ9WzXNUx8eh62G4ek3zVGbviTxZqGuyMpcxW+eEU9frWABj3NKCB0pM15FSrKo7tn1eHwlPDxtBC0UUVjc7UFFFFVFXdgk0k2zrvhkmdUmf0Qfzr0c9a5rwBpv2TS/PdcSTd/brXS19Bho8sD80zasquIdgNNpTTTW55IhNMY04mo2NMYxjUbGnMajJoGMY0lDU2gBSeKYadTDQIG6VGae1NoAKDQKU0AY3i/wD5A7f7wrzztXofi/8A5A7f7wrzztVoiQUUUVRAopQKQU8CgYAU8UgpRQAGkp1JQMKM0UUAFGaKKYBRRRQAtFFFABRRRQAtew/Bz/kBv/vt/OvHq9G+FXiKz06CSzu5BGWYkEn1NID1jvSVmf8ACQ6X/wA/afmKbL4k0uOMubtMD3oEeV/F3/kZj/uL/Ku3+E//ACLEX1/xrzTx7rFvreuyXNuSYlAUfhxXY/C7xLY22nmxu5RE68jNAHpgorL/AOEh0r/n8T8xUdz4m0mKBnN4mB6GgDyL4mf8jVc/U/0rlq2PF+pJquv3N1EcxM3y/SsegAooooAUdKQUo6UgoAKKKKAFNNNONNNABRRRQMWiiigQUUUUAFFFFABRRRQBZ0z/AJCNv/vj+dezQf8AHun+6K8Z0z/kI2/++P517NB/x7p/uipYx9FFFIsOaBRSgUxCGomFSmmMKAIjTCalcVC1SUMNMNPpppANaminNTBVIAooopgbNFFFYlhRRRQAtIaDSGgAbpTKe3SmGgBG6VE/WpGqN+tAiM0opGpe1ADlqQVGtPFMY8GlpopwoAUUtAFLigQ2nAUAU4CgBVFPpopwoAWkJpaY1AhrGozTjTTQUFFJThQAopTQtKaBDKKDSUCCkxTqKokTFLRRigYUoooFACilpBS0DCiiikAlFFFMkTFFOxRQA2mNUjiojVAc94w0IapaNJCgE6DIPrXmFxDJbytHMpUrxzXuFYmueF7TVFLKojl9a8/EYVT96O59Jleb/V/3dTY8morodS8I6hZE+XGZVHdRWNLZXcRw8Lj615cqE49D7Cnj6FRXUiDFFSi3n/54vR9nn/54vUeyl2NvrVH+ZfgQ0lTfZp/+eL0fZp/+eL/nR7KXYPrVH+ZEWfc0lTfZp/8Ani/50fZp/wDni/50ezl2D6zR7oh59qOfapvs1x/zxb86Ps1x/wA8W/Oj2cuwfWaPdEWT70mKm+zXH/PF/wA6Ps1x/wA8X/Oj2cuwfWaPdfeQ0VN9muP+eL/nR9muP+eL/nU+zl2D6zR/mX3kWKKl+y3H/PF6tWuiajdOqx2rfN0NUqUm7WJli6MVfmKHSuk8H+HpNTuVmnVltlOfrWxoHgbZtl1JvfbXawQw20Qit08uMDgDvXoUMLbWR83mWbxceWkEMawRLHGMKowKfmmZzSk16kdFY+NlJyd2BNNJpCabmgkVjUbGnMajY0xjGNRk05jUZNIYhppNKTTCaAFzSGig0wGmiiloENoNB60lAGR4v/5A7fUV54K9D8X/APIGb6ivPBVoiQtFFAqiBQKcOlApaQxw6UUClFMBKWjFFAwopKUUALim04mm0AFFFFMBaKKKACiiigAooooAOfWjB9aMCjApAFFFFAC8+tBzj71GBRgUAJj5aMfLRmjNABRRRQAUUUUAFFFFABRRRQAlFFFAC0UUUCCiiigAooooAKKKKBlnS/8AkI2//XRf517Pb8QJ9BXjOlD/AImNv/10X+deyx8QJ9BUsqI6iiikMUU6mCnimIQ0w04000AMeoGFTtUTipKIqaaU0lIBp6Uw1IelRmmAUUUUwNmiiisiwooooASilpKYCGmmlNIaAGmo5KkJqKQ0ARmnCm04UAKOtPBqPvTloAkWpFpi08UAOFOxTR1p4oENxTgKXFKBQAgFOoAoNAgpjU6mtQAw0lKaSgYUCiloAQU6kpaAENMNPNNIoAAad2poFOFMkSlFFFMAoozRmgQUtJmigodRSUZoADSUppDQKwpPFC9aaaVaAHsOKiI5qU9KYRQA2iiigQ089eaYYIm+9Eh+qipKKLLqi1UlHZkf2W3/AOeMf/fIo+ywf88Y/wDvkVJS0cqfQv21TuRfZYP+eMf/AHyKPssH/PGP/vkVLRRyIftqncZ9lg/54x/98ij7Lb/88Y/++RUvFHFHIg9tU7kP2W3/AOeUf/fIo+y2/wDzyj/75FT8UcVPIhe2qd2V/stv/wA8o/8AvkUfZbf/AJ5R/wDfIqfijijkQe2n3ZX+zQf88o/++RR9mg/55R/98ip8ijIo5EP21TuQ/Zof+eKf98inLGi/dVR9BTqM+9HIhe2qdxDSE0GkNVy2IcnLcKQ0U0mgkQmm5pTTCaQAxqJjT2NRNQAxzUTHmnsaYaBiZpD1paaaAFpM0hNJTAdRRRQAlB6UUUEmN4t+bR2+tee16R4kTzNIl46GvOD1q0TIB0p46U0dKeOlUIBS0AUuKQhRSimU4UAKaaaWikMSijFFMAooopgJRTqKACiiikAUUUUwCiiigAooooAWiiigAooooASiiigAooooAKKKKACiiigBTTTTjTTQAUUUUALRRRQAUUUUAFFFFABRRRQBa0n/AJCNt/10H869mT/UJ9BXj+gR+bq1uv8Atg/rXr4GFUe1SyojjSGkpDSGKKeDUeacDQA80xqdTTVEjTTSKcaaaRRCwqJhU7Co2FSMjNNNONNNACUUtFMDWooorIsWiiigBDSE0Gmk0wAmmk0hNBNACE1G9OJprUAM7Uoo7UnegBwp4qMGnqaAHg1ItMUU9RQA8VItMAp60CHUUUlAC0hpaKBBTWpxqJzQA00UlFAxaWilFABRS0lABRiiloAYabmpCKYRTJAGjNGKQ0ALmjNNFKKBjqWkFOpiEpaSgUBcU0lKaSgY004U00ooEPzSMKFp5HFAENFKetJQISiiiqQBS0lLTEFFFFAxKcKaKcKACiiipAMUYpuaM0ABooooAOKKbRQUBppoJppNIQE03NKTTTSKEY0wmnMajNACE0xjQTzTWNAhh6000pNNzQAhpDQTSUAFFFFMAooooASgU6gCgRFeQiazljIyWU4ry65jMVxIh7NivWQma4LxlpxtNQMyjEcn86pMlmFjFAoHSgVZI6iiigAooooABThTRThQAppppxppoASiiigBaKKKACiiigBKKdRQAlFFFABRRRQAUUUUAFFFFABRRRQAUUUUAIKcKaKcKAEooooAKQ0tBoASiiigBaKKKACiiigAooooAKKKKAOh8C2v2nWFYj5YwTXpzdfpxXL+BdN+x6YLmVcSTYI+ldG7VLKRJmkzUYNOBoAXNKpplOU0hkgNBpAaWqJEpKDSUDGsKiYVMaYwqBlcimkVKwphFAxlFOxRTA1KKKKyLCiiigBDUbU80xqYDCaaTSk0wmgAJoNITRQISkNLQRQAq08U1akUUDHJUy1GgqUUAOFOWmLTxQQxSaDSE80UAhc0maQ00mgoUmo2NOJppoASlFJSigB1FAooAWkpaSgApaSigB1NYU4UGgCE0lPYU2gAAp1NFOpkhS0lLQITvS0lLQAhpKdSGgYlFJS1Qxy1IKiU1IpoARhUZqVqjagQ2iiimIKKKKYBRRRQAuaM0lLikIM0maMUlIoWikpCaQxxNJTc0ZoAcaaaUmmk0AI1MJ5pzGoyaAFLU0mmk00mkMUmmE0E00mkA0mmMaVjTGNACE000E0lUSJQKKKBhRRRQAppKWgCkMUCpUFMAqVKAFAqnrGlpqli8Tj5sHafer4qReBRewmeQahay2Vy0E6FCp/OoRXqOu6Hb6tF8wCzAcPXn+q6Nd6ZIRPEdvZhVJmbRn0UZorQQUUUUAFFFFAC0UUUAFFFFAC0UnNHNAC0UnNHNAC0UYoxQAUUc0c0AGaSjFGKACijFGKACijFGKACijFGKACijFGKACijFFABRRRQAUlFFACUCigUAKKcKaKcKAEooooAKKM0qqzHCqSfagBK3vCOhSapeCZxi3iOWJ71JoXhS5vpFku1MMPXnqa9FsrSKzt1hgQKqjtQA4hYlWNAAijAFNY45olPNMBqCkPFOFNFOFIYUA0hoFMCRTTs0xafVEimm040hpgJTTTjTSKhoZGwqNhUxFMYVIyKilxRTGaVFFFZliGkJpTUZoAUmmMaUmmNTAaxphNK1NJoAQmnCmU4UCFFLigUtACrUqio0qVRQMkUU6kWnHrQAq04UgpRQQxD1paU0hoBDTTWNKTTGNBoGaBTaUGgBaKWkoJFpaaKUUAOpDS0hoASlBpKKAHUUZoFAARTGFSUhFAENKDSsKbTAeDS0yjNBI6lzUeaWmA4mkpM0daAAUtGKXFUAneng03FHSkIfmkIoBpaBkR60U4iimIbRRRTAKKKMUALRS4oxSEIaQ0ppKRQlIRTsUYpDGUU4immgBCaQmg0hoAaxphpzGmGgBpphpxpjGkMQmmE0rGoyaAAmmE0E00mkAE0lFFUSLRikooGFFIaUUAFOUUgFSKKQxQKetJinqKAHKKkApqipcUAOVeKjmt450KTorqexFSLmjnNArHO6h4PsbnJizCT6CsafwLcj/UTK6++BXeUU7isecP4M1Feiof+BU3/AIQ/U/8AnnH/AN916X2phouHKeb/APCH6p/zzj/77/8ArU3/AIQ7VP7sf/fdelUGncLHmv8Awh2q/wB2P/vunDwZqv8Adj/77r0pOtSA0J2Cx5l/whmq/wB2P/vul/4QzVf7sf8A33Xp2felBNVzBY8v/wCEL1b+7H/33R/wherf3I/++69RBp2eKdybHln/AAherf3I/wDvuj/hC9W/uR/9916gaSi4rHmH/CGat/dj/wC+6P8AhDNW/ux/9916eKcKLjseXf8ACF6t/cj/AO+6P+EL1b+5H/33XqdFFwseWf8ACF6t/cj/AO+6P+EL1b+5H/33XqdFFwseWf8ACF6t/cj/AO+6P+EL1b+5H/33XqJoouFjy7/hC9W/uR/990f8IXq39yP/AL7r1Gmmi4WPMP8AhC9W/uR/990f8IXq39yP/vuvT6KLiseYf8IXq39yP/vuj/hC9W/uR/8Afden0UXEeYf8IXq39yP/AL7o/wCEK1b+7H/33Xp4p1FwWp5f/wAIVq392P8A76o/4QrVv7sf/fdeoUUXHY8v/wCEK1b+6n/fdH/CFat/dT/vuvUKDRcdjy3/AIQvVf7if990f8IXqv8AcT/vuvS3oSlzBynmv/CFar/cT/vul/4QrVf7qf8AfdenpTqdxWPLf+EL1X0T/vqpU8D6ifvOg/EV6XRRcLHC2fgMLg3U5/DBrf0zw7p1gQyRK59TWyaZQ2FhpwBgDAoDUxzTN1ZlhJyaRaOtFMQ8dacOlNWnDpQAtApDQKYEi08VGpp9USLTTSg0GqAZSigikqbDFNNNONNNIBlFPopDLVFFFZGghphp5phoAYTTCaVqYaYCNUZp5phoAKUUlKKBEgooFOAoAVRUqUxRUiigY8U4daaKcOtADhSigCloIFprUppjUFIYaQ0pNJQMQ0UppKAFFLikBp2aAExSYpaKCQooJppNADqM00U4UAJmnA02imIkBoNNBp1ADSKbipGptAxhFJTjTaAEopaO1UAlLSUtMA3UuaTFLimSGaM0mKTBpAPBp4NQ09TUjQ8iozUnamMKYMbRRRTELSikpRTAQ0ZoNJSACaSilFIYlFFFIYUGig0AMao2NOamNQIYxphNOao2NA0BNMY0E0wmkMCaYTQxphNAhTTaM0UxB3oopKAFpDRTSaBhThTRT1FADgKeBSAU4VIxy1IBTVFSKKAHKOKeOtCjinAc0AKKUUYooAWikpaBiGkp1JigBtHelNJQIUU8GmCniqAetOpopc1RA6kJopDQAUUUUyRaBRQKBjxRQKKBhRRRQA00lKaKQCCkpRQaAEooopiYGkNKaaaCRRThTRThQAUUUUFDqSkooAY/Wo0+9UjdajT71ZlE4oNIKU0wEzQTSGmk0AGaYTS5phNMBrUxqVjTDSGKKcvWminLQIkUUpFIppSaoBDSZpSaYTQIkU1IDxVcGpAaoB+aXNMzSg0IkdSUtFMQdqaacaaaQwooooGWaKKKwNRpphpzGoyaAGtTGpWNRk0wA0w04mmmgApwptOFAiRakA4qNamXpQAq08UwU9etAx4FPA5pqipAKBC9qKKQmgkCajY05jUZNBSEooooGFGKKKAAClxQKCaAENFITSZoJHGm0ZooAKUGkooAdmim5ozTEPBp4qIGnqaAHNTacaTFAxhptSEU3FACYpKWkqgEpaSloAWnCmA04GmIWiijFMQhFIDzStTM80WGiUHikakU07FSDIzQacwphpiHClNItKaYCGkoNAqQCgUppKQxcUmKXNNJoGBppNKTTCaAGE00mlPWmmgQxqiY1IxqFjSKGnrTSaU0xqBCE02lpKACiikpiFpKKWgBpptONNoGOUVIopqipBQAop4FNWpFFSMVRUqimqKkFACinrTBUq0AKBQRxSihulADaWijFAwNJQaSgBDSU402gQopwpgp4qgHilzSCiqMxRQaQUtAC0UUUxBQKKKAH5ozTaKCh2aM02igBTRSGikACg0goNABRSUUEiGiiimAopwpopwoGLS03ml5oASiiigoRhTAOakNNxzWbAWkY0E1G7UwFLUhNMzRmgAJpuc0E0maBjWptPakoAQU4U0UoNAEgpaYDRuqhCsajJpxNMNAhVNSA1EtSrVAPpRTaWhEjxThTBThTEBpppxpppDCiiigCzRRRWBsMaomqVqiagCM1GakNRmmAzvTj0pvenHpQAgFPUUiipAKAHKKkHSmCnCgCQU5etIvSnqOaAHCnimiloJYppppxppoENNMNONMPWgpC0UUUDFooooAKaadTTQSNpaXFJQAlFOooAbRRRQAUUUUwAU9aYKcKAJQaDTVNOoAQ02nkUmKAG0hpTSGmA2iiimAUopKUUxDjSUvammmSKTTTQaQ0DHLTwajFOFSwFNManmmmmALSmkFKaYDT1oFB60CkwFNJSmkqRiGmk05qjY0DFJqNjTieKjY0AIzUxmpDTGoARmqNjSk001IxDTT1pTTT1piGmiiigAooopgJRTqBQA3bSheafSigAVadtpRTqAGqOakWkApRUjJFp4pi08UAOFSL0qMVIvSgAoooNADgaWmUoNAxcUYoooAaaaacaTvQIAKcBzSCnCqJY4UUUUyRKKKKYBRRRQAU4U0U4UwCiiigBaKKKBiUUUUAFFFFBIlFFFIBKKKKYCinCminCgYtLTaKAFFDUCg1JQ2kJpe1RuaTARzUZNDGm0AOFBoWg0ANpKWmmgYjUgpWpBQAUUUUwFopM0ZoACaaaM0HpTEKtTLUK1MtUIdRRRQIcKcKYKcKBDjTTTjTTQAlFFFAH//2ZnyZvgAAAAAumvhfdLrmhVfqtSk1315nQ==;" vertex="1" parent="1">
          <mxGeometry width="1170" height="1165" as="geometry" />
        </mxCell>
        <mxCell id="jelOHzqF7eau557FTTO8-2" value="" style="rounded=1;whiteSpace=wrap;html=1;strokeColor=none;fillColor=#60605B;fontColor=#333333;" vertex="1" parent="1">
          <mxGeometry x="740" y="800" width="260" height="60" as="geometry" />
        </mxCell>
        <mxCell id="jelOHzqF7eau557FTTO8-4" value="《从别后》" style="text;html=1;align=center;verticalAlign=middle;whiteSpace=wrap;rounded=0;fontColor=#FFFFFF;fontSize=54;" vertex="1" parent="1">
          <mxGeometry x="710" y="800" width="330" height="30" as="geometry" />
        </mxCell>
        <mxCell id="jelOHzqF7eau557FTTO8-6" value="" style="rounded=1;whiteSpace=wrap;html=1;strokeColor=none;fillColor=#60605B;fontColor=#333333;" vertex="1" parent="1">
          <mxGeometry x="720" y="860" width="310" height="60" as="geometry" />
        </mxCell>
        <mxCell id="jelOHzqF7eau557FTTO8-5" value="一片云落入掌心" style="text;html=1;align=center;verticalAlign=middle;whiteSpace=wrap;rounded=0;fontColor=#92908F;fontSize=45;" vertex="1" parent="1">
          <mxGeometry x="640" y="875.63" width="460" height="28.75" as="geometry" />
        </mxCell>
      </root>
    </mxGraphModel>
  </diagram>
</mxfile>
